<svg width="86" height="21" viewBox="0 0 86 21" fill="none" xmlns="http://www.w3.org/2000/svg">
<path d="M7.74023 17.0688H17.1099V18.9672H7.74023V17.0688ZM75.4996 10.9746L78.4537 7.79104H76.2521L73.8312 10.437V7.79104H72.0768V14.4816H73.8398V11.6634L76.4284 14.4816H78.6902L75.4996 10.9746ZM18.1419 11.4156C18.0946 12.6756 17.9312 12.915 17.2174 12.915V14.4858H17.484C19.2771 14.4858 19.7028 13.5828 19.7673 11.571L19.8447 9.34504H21.5002V14.4816H23.2546V7.79104H18.2623L18.1419 11.4156ZM10.5266 12.5664H14.2246L14.8395 14.4816H16.8906L14.1257 6.43444C13.8591 5.65744 13.5495 5.04004 12.4917 5.04004C11.4339 5.04004 11.1114 5.65744 10.8276 6.43444L7.92943 14.4816H9.85583L10.5266 12.5664ZM12.4014 7.14004H12.4487L13.6871 10.9536H11.0813L12.4014 7.14004ZM53.3847 8.74024H51.4282V6.85024H55.969V5.17024H49.5878V14.4816H53.3847C55.4874 14.4816 56.6957 13.4568 56.6957 11.5836C56.6957 9.80704 55.4702 8.74024 53.3847 8.74024ZM53.2944 12.7974H51.4282V10.3782H53.2944C54.2662 10.3782 54.8123 10.7982 54.8123 11.5878C54.8123 12.3774 54.2662 12.7974 53.2944 12.7974ZM35.9439 7.63564V5.15764H34.1938V7.63564C33.2749 7.66525 32.4055 8.04989 31.7766 8.70504C31.1478 9.36024 30.8109 10.2324 30.8398 11.13C30.8085 12.0295 31.1443 12.9043 31.7733 13.562C32.4022 14.2197 33.2729 14.6064 34.1938 14.637V17.157H35.9482V14.637C36.4044 14.6224 36.8531 14.52 37.2687 14.3357C37.6843 14.1515 38.0585 13.8889 38.3701 13.5632C38.6817 13.2374 38.9244 12.8548 39.0843 12.4373C39.2443 12.0198 39.3183 11.5755 39.3022 11.13C39.3206 10.6843 39.2479 10.2393 39.0884 9.82132C38.9289 9.40325 38.6857 9.02042 38.3731 8.69513C38.0605 8.36988 37.6847 8.10864 37.2676 7.92674C36.8505 7.74484 36.4006 7.64589 35.9439 7.63564ZM34.1981 13.02C33.7338 12.9702 33.3082 12.7441 33.013 12.3906C32.7177 12.037 32.5766 11.5843 32.62 11.13C32.5822 10.6769 32.7253 10.227 33.0195 9.87474C33.3137 9.52241 33.7361 9.29498 34.1981 9.24004V13.02ZM35.9525 13.02V9.24004C36.4146 9.29498 36.837 9.52241 37.1311 9.87474C37.4253 10.227 37.5685 10.6769 37.5306 11.13C37.5718 11.5838 37.4298 12.0354 37.135 12.3885C36.8403 12.7415 36.4159 12.9682 35.9525 13.02ZM45.8769 12.4278V10.1724C45.8769 8.52604 44.8062 7.49704 43.0088 7.49704C41.2114 7.49704 40.1622 8.58904 40.0762 9.72724H41.8521C41.9123 9.48364 42.1789 9.05104 43.0045 9.05104C43.1589 9.03163 43.3154 9.04751 43.4621 9.09749C43.6091 9.14747 43.742 9.23008 43.8503 9.33891C43.9587 9.44769 44.04 9.57965 44.0873 9.7243C44.1346 9.86899 44.1466 10.0224 44.1225 10.1724H42.4025C40.8459 10.1724 39.9214 10.9746 39.9214 12.3018C39.9093 12.6186 39.9654 12.9342 40.086 13.2284C40.2067 13.5227 40.3893 13.7888 40.622 14.0097C40.8546 14.2306 41.1322 14.4014 41.4367 14.5109C41.7412 14.6204 42.0658 14.6662 42.3896 14.6454C42.7552 14.6642 43.1198 14.5947 43.4513 14.4431C43.7828 14.2914 44.0709 14.0624 44.2902 13.776C44.433 14.0119 44.6411 14.2033 44.8909 14.3282C45.1403 14.4531 45.4211 14.5063 45.7006 14.4816H46.3069V12.936C46.0102 12.936 45.8769 12.7974 45.8769 12.4278ZM44.1225 12.0078C44.1298 12.1733 44.101 12.3383 44.0378 12.4921C43.975 12.6459 43.8796 12.7849 43.7579 12.9C43.6358 13.015 43.4904 13.1036 43.3309 13.1598C43.1714 13.2159 43.0015 13.2384 42.8325 13.2258C42.2004 13.2258 41.7016 13.0032 41.7016 12.3354C41.7016 11.6676 42.2563 11.571 42.725 11.571H44.1225V12.0078ZM27.6234 9.82384H26.3635V7.79104H24.6091V14.4816H27.6535C29.5584 14.4816 30.2335 13.272 30.2335 12.1296C30.2421 10.6554 29.2961 9.82384 27.6234 9.82384ZM27.4944 13.02H26.3635V11.34H27.4944C28.1007 11.34 28.4662 11.6088 28.4662 12.18C28.4662 12.7512 28.1179 13.02 27.4944 13.02ZM63.3908 12.4278V10.1724C63.3908 8.52604 62.3201 7.49704 60.5227 7.49704C58.7253 7.49704 57.6761 8.58904 57.5901 9.72724H59.366C59.4262 9.48364 59.6928 9.05104 60.5184 9.05104C60.6728 9.03163 60.8293 9.04751 60.976 9.09749C61.123 9.14747 61.2559 9.23008 61.3642 9.33891C61.4726 9.44769 61.5539 9.57965 61.6012 9.7243C61.6485 9.86899 61.6605 10.0224 61.6364 10.1724H59.9164C58.3598 10.1724 57.4353 10.9746 57.4353 12.3018C57.4233 12.6186 57.4792 12.9342 57.6 13.2284C57.7204 13.5227 57.9032 13.7888 58.1358 14.0097C58.3684 14.2306 58.6462 14.4014 58.9506 14.5109C59.2551 14.6204 59.5797 14.6662 59.9035 14.6454C60.2725 14.6677 60.6414 14.6 60.9772 14.4482C61.3126 14.2964 61.6042 14.0654 61.8256 13.776C61.9662 14.0078 62.1705 14.1965 62.4152 14.3212C62.6598 14.4459 62.935 14.5014 63.2102 14.4816H63.8165V12.936C63.5112 12.936 63.3908 12.7974 63.3908 12.4278ZM61.645 12.0078C61.6515 12.1731 61.6222 12.3378 61.559 12.4913C61.4958 12.6448 61.4004 12.7835 61.2787 12.8984C61.157 13.0134 61.0116 13.1019 60.8525 13.1584C60.6934 13.2148 60.524 13.2378 60.355 13.2258C59.7229 13.2258 59.2241 13.0032 59.2241 12.3354C59.2241 11.6676 59.7788 11.571 60.2475 11.571H61.645V12.0078ZM68.9937 10.2816H66.5728V7.79104H64.8184V14.4858H66.5728V11.8482H68.9937V14.4816H70.7481V7.79104H68.9937V10.2816Z" fill="#EF3124"/>
</svg>
