<svg width="12" height="15" viewBox="0 0 12 15" fill="none" xmlns="http://www.w3.org/2000/svg">
<path d="M3.59961 2.29999V10.0999C3.59961 10.4447 3.73657 10.7754 3.98037 11.0192C4.22416 11.263 4.55482 11.3999 4.8996 11.3999H10.0996C10.4443 11.3999 10.775 11.263 11.0188 11.0192C11.2626 10.7754 11.3996 10.4447 11.3996 10.0999V4.40728C11.3995 4.23409 11.3649 4.06266 11.2977 3.90304C11.2305 3.74342 11.1321 3.59884 11.0083 3.47778L8.85353 1.3705C8.61066 1.13303 8.2845 1.00004 7.94483 1H4.8996C4.55482 1 4.22416 1.13696 3.98037 1.38076C3.73657 1.62455 3.59961 1.95521 3.59961 2.29999V2.29999Z" stroke="#8F93FF" stroke-linecap="round" stroke-linejoin="round"/>
<path d="M8.79995 11.4V12.6999C8.79995 13.0447 8.66299 13.3754 8.41919 13.6192C8.1754 13.863 7.84474 13.9999 7.49996 13.9999H2.29999C1.95521 13.9999 1.62455 13.863 1.38076 13.6192C1.13696 13.3754 1 13.0447 1 12.6999V5.54999C1 5.20521 1.13696 4.87455 1.38076 4.63076C1.62455 4.38696 1.95521 4.25 2.29999 4.25H3.59998" stroke="#8F93FF" stroke-linecap="round" stroke-linejoin="round"/>
</svg>
