<svg width="60" height="60" viewBox="0 0 60 60" fill="none" xmlns="http://www.w3.org/2000/svg">
<path fill-rule="evenodd" clip-rule="evenodd" d="M15.5005 4.88527C1.63001 12.8934 -3.12237 30.6295 4.88576 44.5C12.8939 58.3705 30.63 63.1229 44.5005 55.1147C58.371 47.1066 63.1234 29.3705 55.1152 15.5C47.1071 1.62952 29.371 -3.12286 15.5005 4.88527ZM17.9172 9.07106C6.35843 15.7445 2.39811 30.5246 9.07155 42.0833C15.745 53.6421 30.5251 57.6024 42.0838 50.929C53.6426 44.2555 57.6029 29.4754 50.9294 17.9167C44.256 6.35794 29.4759 2.39762 17.9172 9.07106Z" fill="url(#paint0_angular_29_1238)"/>
<path fill-rule="evenodd" clip-rule="evenodd" d="M10.3355 48.0491C9.27453 48.8589 7.75799 48.6552 6.94823 47.5942C6.19547 46.6079 5.50678 45.5743 4.88641 44.4998C4.21906 43.344 4.6151 41.8659 5.77097 41.1986C6.92684 40.5313 8.40485 40.9273 9.0722 42.0832C9.58917 42.9786 10.1631 43.8399 10.7904 44.6618C11.6001 45.7228 11.3965 47.2394 10.3355 48.0491Z" fill="#5156EC"/>
<defs>
<radialGradient id="paint0_angular_29_1238" cx="0" cy="0" r="1" gradientUnits="userSpaceOnUse" gradientTransform="translate(30.0005 30) rotate(150) scale(29)">
<stop stop-color="#27AE60" stop-opacity="0"/>
<stop offset="0.0001" stop-color="#5156EC" stop-opacity="0"/>
<stop offset="1" stop-color="#5156EC"/>
</radialGradient>
</defs>
</svg>
