<svg width="86" height="22" viewBox="0 0 86 22" fill="none" xmlns="http://www.w3.org/2000/svg">
<path d="M21.5 0H42.57V21.56H21.5V0Z" fill="#15008F"/>
<path d="M43.9204 0H64.9904V21.56H43.9204V0Z" fill="#DD002E"/>
<path d="M27.9157 6.96537C28.1705 7.46253 28.5544 7.87815 29.0251 8.16657C29.1258 8.23129 29.2 8.33122 29.234 8.44777C29.268 8.56433 29.2595 8.68955 29.21 8.80017C29.0896 9.11257 28.8531 9.56577 28.9692 9.75497C29.1254 9.8699 29.3094 9.93885 29.5011 9.95433C29.6929 9.96987 29.8852 9.93132 30.0571 9.84297C30.1288 10.0029 30.2092 10.1586 30.2979 10.3094C30.2579 10.3554 30.2044 10.3868 30.1454 10.3987C30.0863 10.4106 30.0251 10.4024 29.9711 10.3754C30.026 10.4245 30.0599 10.4936 30.0658 10.5679C30.0716 10.6422 30.0488 10.716 30.0022 10.7734C29.9557 10.8308 29.889 10.8673 29.8165 10.8751C29.744 10.883 29.6715 10.8615 29.6142 10.8154C29.574 10.7836 29.5442 10.7401 29.5288 10.6905C29.5134 10.641 29.5132 10.5878 29.5282 10.5382C29.4499 10.6629 29.3357 10.7598 29.2014 10.8154C29.1296 10.7602 29.0765 10.6835 29.0496 10.5959C29.0226 10.5083 29.023 10.4143 29.0509 10.327C28.9913 10.4345 28.9083 10.5265 28.8085 10.5959C28.7085 10.6654 28.5943 10.7103 28.4747 10.7274C28.4014 10.6159 28.3678 10.4821 28.3795 10.3483C28.3913 10.2145 28.4476 10.0889 28.5392 9.99257C28.4498 10.0609 28.3448 10.1048 28.2343 10.1202C28.1237 10.1356 28.0111 10.122 27.9071 10.0806C27.9071 10.0806 27.8426 9.86937 28.2124 9.55697C28.0908 9.55253 27.9722 9.51675 27.8677 9.45291C27.7632 9.38907 27.6762 9.29922 27.6147 9.19177C27.7017 9.11754 27.8028 9.06245 27.9115 9.02989C28.0203 8.99733 28.1344 8.98805 28.2468 9.00257C28.1172 8.96103 28.0012 8.88421 27.911 8.78037C27.8209 8.67649 27.7601 8.5495 27.7351 8.41297C27.8579 8.3563 27.9943 8.33777 28.1273 8.35964C28.2602 8.38155 28.384 8.44293 28.4833 8.53617C28.4048 8.42195 28.3139 8.31714 28.2124 8.22377C28.0653 8.05362 27.9616 7.84885 27.9106 7.62775C27.8596 7.40665 27.8628 7.17609 27.92 6.95657L27.9157 6.96537ZM29.6056 12.0078C29.5393 11.9372 29.4881 11.8532 29.4551 11.7614C29.5196 12.373 29.5411 12.7734 29.8851 13.1738C30.012 12.8986 30.035 12.5852 29.9496 12.2938C29.8901 12.2599 29.8283 12.2305 29.7647 12.2058C29.8086 12.3765 29.8203 12.5542 29.7991 12.7294C29.702 12.5029 29.6396 12.2625 29.6142 12.0166L29.6056 12.0078ZM29.0724 11.9506C29.0061 11.88 28.9549 11.796 28.9219 11.7042C28.8875 12.0694 28.8015 12.9934 29.1068 13.275C29.1068 13.275 29.3132 13.121 29.3777 11.7614C29.3132 11.8274 29.2917 11.9154 29.2272 11.9726C29.258 12.221 29.2285 12.4734 29.1412 12.7074C29.1412 12.7074 28.9907 12.6282 29.0767 11.9506H29.0724ZM28.35 12.6634C28.6209 12.351 28.6768 11.405 28.6768 11.405L28.7972 11.317L28.8316 11.2818V11.3698C28.8311 11.8627 28.7497 12.352 28.5908 12.8174C28.4682 13.0008 28.3046 13.1517 28.1135 13.2574C27.8082 12.7338 28.178 12.021 28.4704 11.4974L28.5908 11.4314C28.4704 11.8714 28.264 12.3114 28.35 12.6678V12.6634ZM27.6319 11.031C27.6274 11.0751 27.6397 11.1192 27.6663 11.1542V11.1894C27.3782 11.4959 27.1164 11.8271 26.8837 12.1794C26.7735 12.3295 26.6333 12.4539 26.4724 12.5442C26.3114 12.6345 26.1336 12.6886 25.9506 12.703C25.9894 12.2892 26.1566 11.8991 26.4279 11.5898C26.7236 11.2587 27.0554 10.9634 27.4169 10.7098C27.5123 10.755 27.6194 10.7673 27.7222 10.745H27.7566C27.7165 10.7858 27.6933 10.841 27.6921 10.899C27.2335 11.1143 26.841 11.4535 26.5569 11.8802C26.501 11.9242 26.9138 11.801 27.6104 11.0354L27.6319 11.031ZM27.1546 10.547L27.189 10.5118L27.2234 10.4766C26.9826 10.5646 26.1355 10.9166 25.8646 11.031C25.6537 11.1509 25.4687 11.3133 25.3209 11.5084C25.1731 11.7035 25.0655 11.9273 25.0046 12.1662C25.1883 12.1823 25.3733 12.161 25.5489 12.1036C25.7246 12.0462 25.8874 11.9538 26.028 11.8318C26.5053 11.4314 27.0514 10.877 27.2578 10.6966L27.1933 10.6306C26.7972 10.9605 26.3641 11.2412 25.9033 11.4666C26.004 11.2751 26.1524 11.1143 26.3333 11.0002C26.5928 10.8034 26.8838 10.6545 27.1933 10.5602L27.1546 10.547ZM26.6601 10.1202L26.6945 10.0542C26.4236 10.1202 25.727 10.2082 25.4045 10.3006C25.147 10.3709 24.9066 10.4952 24.6986 10.6656C24.4906 10.836 24.3195 11.0489 24.1962 11.2906C24.1962 11.2906 24.6735 11.4446 25.6109 11.0134C26.053 10.7754 26.5149 10.5781 26.9912 10.4238C26.8834 10.4238 26.7778 10.3933 26.6859 10.3358C26.2608 10.5477 25.7991 10.6718 25.3271 10.701C25.4733 10.593 25.6322 10.5043 25.8001 10.437C26.0706 10.29 26.3602 10.1834 26.6601 10.1202ZM26.6601 9.68017C26.7461 9.7177 26.8377 9.74001 26.931 9.74617C26.8618 9.78727 26.7995 9.83923 26.7461 9.90017C26.1543 10.0522 25.5494 10.1451 24.9401 10.1774C24.4789 10.2439 24.0093 10.214 23.5598 10.0894C23.9263 9.87522 24.322 9.71801 24.7337 9.62297C25.0605 9.55697 25.9635 9.55697 26.3849 9.49977C26.4224 9.53273 26.4627 9.56216 26.5053 9.58777C26.0238 9.59076 25.546 9.67397 25.0906 9.83417C25.6185 9.89577 26.1532 9.84332 26.6601 9.68017ZM26.6042 9.12577C26.6637 9.09193 26.7254 9.0625 26.7891 9.03777C26.1289 8.80422 25.4427 8.65642 24.7466 8.59777C24.2533 8.53648 23.7535 8.55879 23.2674 8.66377C23.6838 8.94374 24.1431 9.15045 24.6262 9.27537C25.2048 9.36949 25.7924 9.39166 26.3763 9.34137C26.4096 9.28483 26.4501 9.23304 26.4967 9.18737C25.9378 9.18407 25.382 9.10113 24.8455 8.94097C25.4387 8.89376 26.0354 8.95333 26.6085 9.11697L26.6042 9.12577ZM26.6085 8.57137C26.669 8.75881 26.7965 8.91598 26.9654 9.01137C26.3032 8.73417 25.039 8.54497 24.3467 8.27657C23.4136 7.87617 23.2588 7.39657 23.2588 7.39657C23.9241 7.40185 24.5844 7.51471 25.2153 7.73097C25.813 7.92017 26.6945 8.25457 27.0213 8.40857C26.8924 8.40888 26.7671 8.45213 26.6644 8.53177C26.3376 8.37777 25.9678 8.28537 25.641 8.16657C25.4 8.08244 25.1474 8.03787 24.8928 8.03457C25.1191 8.17339 25.3599 8.28559 25.6109 8.36897C25.9463 8.45697 26.2731 8.52297 26.6128 8.59337L26.6085 8.57137ZM26.5784 7.88057C26.6128 7.94657 26.6644 8.03457 26.6988 8.09177C25.7335 7.88202 24.8602 7.35886 24.2091 6.60017C23.9937 6.22806 23.9088 5.79193 23.9683 5.36377C24.4434 5.58425 24.8715 5.89819 25.2282 6.28777C25.5894 6.68003 25.9821 7.04061 26.4021 7.36577L26.5225 7.73097C26.1957 7.45377 25.7743 7.14137 25.5335 6.93017C25.2939 6.74009 25.0307 6.58327 24.7509 6.46377C24.8958 6.6513 25.0555 6.82642 25.2282 6.98737C25.4509 7.17573 25.6915 7.34082 25.9463 7.48017C26.1374 7.64473 26.3539 7.77559 26.587 7.86737" fill="white"/>
<path d="M29.4811 10.7801L29.5671 10.6921C29.6875 10.8461 29.7735 11.0045 29.8724 11.1585C29.9333 11.3401 29.9836 11.5252 30.0229 11.7129C30.0551 11.8969 30.1176 12.074 30.2078 12.2365C30.127 12.2381 30.047 12.222 29.9728 12.1894C29.8987 12.1568 29.8322 12.1084 29.7778 12.0473C29.6344 11.8593 29.5411 11.6365 29.5069 11.4005C29.4481 11.1978 29.4363 10.9839 29.4725 10.7757L29.4811 10.7801ZM29.0425 10.8109L29.1285 10.8989L29.1629 10.9341H29.1973L29.2833 10.8989C29.3226 10.9751 29.3447 11.0593 29.3478 11.1453C29.3802 11.299 29.3802 11.458 29.3478 11.6117C29.3071 11.748 29.2365 11.8729 29.1414 11.9769C29.054 11.8786 28.9842 11.7655 28.935 11.6425C28.8696 11.4744 28.8696 11.2871 28.935 11.1189C28.978 10.9869 29.0124 10.8945 29.0425 10.8065V10.8109ZM28.5007 10.8285C28.6407 10.8076 28.7744 10.7551 28.892 10.6745C28.9134 10.7112 28.9275 10.7519 28.9334 10.7942C28.9393 10.8365 28.9369 10.8796 28.9264 10.9209C28.8855 11.0481 28.8146 11.1629 28.72 11.2553C28.6336 11.3317 28.5332 11.3897 28.4247 11.426C28.3161 11.4622 28.2016 11.476 28.0879 11.4665C28.0449 11.4885 27.989 11.2993 28.5179 10.8329L28.5007 10.8285ZM28.3115 10.4985C28.324 10.6011 28.3659 10.6975 28.4319 10.7757C28.3576 10.8993 28.2509 10.9991 28.124 11.0637C27.997 11.1282 27.8549 11.155 27.7138 11.1409C27.6802 11.0538 27.6807 10.9568 27.7151 10.8699C27.7496 10.7831 27.8153 10.7132 27.8987 10.6745C28.0406 10.6173 28.161 10.5513 28.3287 10.4985" fill="white"/>
<path d="M28.3803 10.1908C28.2301 10.224 28.0747 10.224 27.9245 10.1908H27.86V10.1204C27.6192 10.3096 27.3827 10.3316 27.2838 10.5208C27.3318 10.5895 27.3972 10.6435 27.473 10.6768C27.5488 10.7102 27.6321 10.7217 27.7138 10.71C27.8428 10.6989 27.9682 10.6608 28.0821 10.598C28.196 10.5351 28.2961 10.4489 28.376 10.3448C28.3632 10.3212 28.3565 10.2947 28.3565 10.2678C28.3565 10.2408 28.3632 10.2143 28.376 10.1908H28.3803ZM27.8643 9.91355C27.8945 9.82032 27.9461 9.73584 28.0148 9.66715C27.8169 9.63385 27.615 9.63385 27.4171 9.66715C27.2614 9.66592 27.1094 9.71621 26.9838 9.81059C26.8583 9.90493 26.7659 10.0383 26.7205 10.1908C26.864 10.278 27.0336 10.3093 27.1978 10.2788C27.327 10.2685 27.4526 10.2307 27.5667 10.1678C27.6807 10.1049 27.7806 10.0183 27.86 9.91355H27.8643ZM27.7396 9.47355C27.6727 9.39572 27.611 9.31339 27.5547 9.22715L27.5203 9.17875C27.2969 9.06757 27.0414 9.04407 26.8022 9.11275C26.6545 9.15821 26.5278 9.25659 26.4453 9.38995C26.614 9.52059 26.8122 9.60538 27.0215 9.63635C27.27 9.66975 27.5222 9.61875 27.7396 9.49115V9.47355ZM27.8041 8.98955C27.8385 8.95435 27.8901 8.95435 27.9546 8.95435C27.8296 8.82772 27.7456 8.66497 27.7138 8.48796C27.5549 8.52606 27.3884 8.51378 27.2365 8.45275C27.1522 8.42125 27.0618 8.41082 26.9728 8.42231C26.8838 8.43379 26.7988 8.46684 26.7248 8.51875C26.7561 8.62268 26.8155 8.71548 26.8962 8.78632C26.9768 8.85716 27.0755 8.90323 27.1806 8.91915C27.2716 8.97886 27.375 9.01591 27.4826 9.0274C27.5901 9.03884 27.6987 9.0244 27.7998 8.98515L27.8041 8.98955ZM27.6665 8.36035L27.731 8.32515C27.8054 8.28489 27.8877 8.26232 27.9718 8.25915C27.7744 8.08566 27.5629 7.92959 27.3397 7.79275C27.0846 7.64139 26.8094 7.52876 26.5227 7.45836C26.6036 7.71056 26.7371 7.94178 26.914 8.13595C27.0034 8.2445 27.122 8.32366 27.255 8.36357C27.3881 8.40347 27.5298 8.40237 27.6622 8.36035H27.6665ZM28.0535 8.14915C27.9541 8.0018 27.8839 7.83583 27.8471 7.66075C27.7826 7.44955 27.7267 7.19435 27.6407 6.98315C27.4908 6.70265 27.2415 6.49167 26.9441 6.39355C26.8778 6.68862 26.908 6.99781 27.0301 7.27356C27.2958 7.64813 27.6472 7.95027 28.0535 8.15356V8.14915ZM30.4013 10.3536C30.4549 10.4061 30.5176 10.4479 30.5862 10.4768C30.6263 10.5709 30.6441 10.6733 30.6381 10.7758C30.6321 10.8783 30.6026 10.9778 30.5518 11.0664C30.4057 11.3321 30.2862 11.6121 30.1949 11.9024C30.1949 11.9024 30.1089 11.9024 30.01 11.3788C29.9799 11.1844 29.8964 11.0028 29.7692 10.8552C29.8251 10.8914 29.8883 10.914 29.9541 10.9212H30.0186L30.053 10.8552C30.1063 10.7606 30.1289 10.6513 30.1175 10.5428V10.4548C30.1693 10.4658 30.2231 10.4621 30.2731 10.4443C30.3231 10.4265 30.3674 10.3951 30.4013 10.3536Z" fill="white"/>
<path d="M26.8276 6.59996V6.87716C26.5868 6.56476 26.2858 6.16436 25.9676 5.79916C25.8193 5.59694 25.6391 5.42146 25.4344 5.27996C25.556 5.66756 25.7738 6.01621 26.0665 6.29196C26.3004 6.5351 26.5504 6.76153 26.8147 6.96956L26.8491 7.05756C26.8835 7.14556 26.9136 7.24676 26.9351 7.30396C27.0001 7.42615 27.0811 7.53866 27.1759 7.63836C27.0899 7.60316 26.991 7.55036 26.905 7.51516H26.8276C26.0734 7.07758 25.4492 6.43892 25.0216 5.66716C24.8094 5.13093 24.7806 4.53707 24.9399 3.98196C25.3304 4.34435 25.6834 4.74686 25.9934 5.18316C26.3106 5.63016 26.5896 6.10413 26.8276 6.59996ZM37.4486 9.12556C37.3891 9.09172 37.3273 9.06229 37.2637 9.03756C37.9239 8.80401 38.6101 8.65621 39.3062 8.59756C39.7995 8.53627 40.2992 8.55858 40.7854 8.66356C40.3689 8.94353 39.9097 9.15024 39.4266 9.27516C38.8479 9.36928 38.2604 9.39145 37.6765 9.34116C37.6432 9.28462 37.6027 9.23283 37.5561 9.18716C38.115 9.18386 38.6707 9.10092 39.2073 8.94076C38.6141 8.89355 38.0174 8.95312 37.4443 9.11676L37.4486 9.12556ZM37.4443 8.57116C37.3838 8.7586 37.2563 8.91577 37.0874 9.01116C37.7496 8.73396 39.0138 8.54476 39.7061 8.27636C40.6392 7.87596 40.794 7.39636 40.794 7.39636C40.1287 7.40164 39.4683 7.5145 38.8375 7.73076C38.2398 7.91996 37.3583 8.25436 37.0315 8.40836C37.1604 8.40867 37.2857 8.45192 37.3884 8.53156C37.7152 8.37756 38.085 8.28516 38.4118 8.16636C38.6545 8.0905 38.9063 8.04906 39.16 8.04316C38.9337 8.18198 38.6928 8.29418 38.4419 8.37756C38.1065 8.45676 37.7797 8.52276 37.44 8.58876L37.4443 8.57116ZM37.5045 7.87596C37.4701 7.94196 37.4185 8.02996 37.3841 8.08716C38.3566 7.88304 39.2379 7.36112 39.8953 6.59996C40.1107 6.22785 40.1956 5.79172 40.1361 5.36356C39.661 5.58404 39.2329 5.89798 38.8762 6.28756C38.5176 6.68255 38.1247 7.04335 37.7023 7.36556L37.5819 7.73076C37.9087 7.45356 38.3301 7.14116 38.5709 6.92996C38.8105 6.73988 39.0737 6.58306 39.3535 6.46356C39.2085 6.65109 39.0489 6.82616 38.8762 6.98716C38.6521 7.17575 38.4101 7.34083 38.1538 7.47996C37.9526 7.62938 37.7381 7.75901 37.5131 7.86716L37.5045 7.87596ZM37.2422 6.59996V6.87716C37.483 6.56476 37.784 6.16436 38.1022 5.79916C38.2505 5.59694 38.4307 5.42146 38.6354 5.27996C38.5137 5.66756 38.296 6.01621 38.0033 6.29196C37.7694 6.5351 37.5194 6.76153 37.2551 6.96956L37.2207 7.05756C37.1863 7.14556 37.1562 7.24676 37.1347 7.30396C37.0697 7.42615 36.9887 7.53866 36.8939 7.63836C36.9799 7.60316 37.0788 7.55036 37.1648 7.51516L37.2508 7.47996C38.005 7.04238 38.6292 6.40372 39.0568 5.63196C39.2632 5.09868 39.2889 4.50996 39.1299 3.95996C38.7394 4.32234 38.3864 4.72486 38.0764 5.16116C37.7519 5.61132 37.4643 6.08815 37.2164 6.58676L37.2422 6.59996ZM27.7564 11.2684C27.4511 11.5808 26.7889 12.3156 26.8534 13.0812C27.202 12.9686 27.5044 12.7412 27.7134 12.4344C27.8641 12.1294 28.0351 11.8354 28.2251 11.5544H27.9542C27.7794 11.9184 27.523 12.235 27.206 12.4784C27.206 12.4784 27.1415 12.1132 27.9542 11.3124C27.9542 11.2772 27.9886 11.2464 28.0187 11.2244C27.931 11.2517 27.8394 11.2637 27.7478 11.2596L27.7564 11.2684ZM36.1414 6.95636C35.8865 7.45352 35.5027 7.86914 35.032 8.15756C34.9373 8.22972 34.8712 8.33444 34.8459 8.45245C34.8207 8.5705 34.8379 8.69388 34.8944 8.79996C35.0148 9.11236 35.2513 9.56556 35.1352 9.75476C35.0191 9.94396 34.4386 10.032 33.9957 9.84276C33.924 10.0027 33.8436 10.1584 33.7549 10.3092C33.7948 10.3552 33.8484 10.3866 33.9074 10.3985C33.9665 10.4104 34.0276 10.4022 34.0817 10.3752C34.055 10.451 34.0442 10.5318 34.0502 10.6121C34.0561 10.6925 34.0786 10.7707 34.1161 10.8416C34.2053 10.8237 34.2898 10.7866 34.3639 10.7327C34.4381 10.6788 34.5002 10.6095 34.5461 10.5292C34.6244 10.6539 34.7386 10.7507 34.8729 10.8064C34.9447 10.7512 34.9978 10.6744 35.0247 10.5869C35.0517 10.4993 35.0513 10.4053 35.0234 10.318C35.083 10.4255 35.1659 10.5175 35.2658 10.5869C35.3658 10.6564 35.48 10.7013 35.5996 10.7184C35.6729 10.6069 35.7065 10.4731 35.6948 10.3393C35.683 10.2055 35.6266 10.0799 35.5351 9.98356C35.6245 10.0519 35.7295 10.0958 35.84 10.1112C35.9506 10.1266 36.0632 10.113 36.1672 10.0716C36.1672 10.0716 36.2317 9.86036 35.8619 9.54796C35.9835 9.54352 36.1021 9.50774 36.2066 9.4439C36.3111 9.38006 36.3981 9.29021 36.4596 9.18276C36.3726 9.10853 36.2715 9.05344 36.1628 9.02088C36.054 8.98833 35.9399 8.97904 35.8275 8.99356C35.9559 8.95599 36.0701 8.87956 36.1553 8.77435C36.2405 8.66915 36.2926 8.54001 36.3048 8.40396C36.182 8.34729 36.0456 8.32876 35.9126 8.35063C35.7796 8.37254 35.6558 8.43392 35.5566 8.52716C35.6351 8.41294 35.726 8.30813 35.8275 8.21476C35.9884 8.05249 36.1067 7.85128 36.1714 7.62974C36.236 7.4082 36.2449 7.17354 36.1973 6.94756L36.1414 6.95636ZM34.4773 11.9988C34.5389 11.9246 34.5897 11.8415 34.6278 11.7524C34.5633 12.364 34.5418 12.7644 34.1978 13.1648C34.0709 12.8896 34.0479 12.5762 34.1333 12.2848C34.1928 12.2509 34.2546 12.2215 34.3182 12.1968C34.2743 12.3675 34.2626 12.5452 34.2838 12.7204C34.3809 12.4939 34.4433 12.2535 34.4687 12.0076L34.4773 11.9988ZM35.0105 11.9416C35.0768 11.8709 35.128 11.787 35.161 11.6952C35.1954 12.0604 35.2814 12.9844 34.9761 13.266C34.9761 13.266 34.7697 13.112 34.7052 11.7524C34.7697 11.8184 34.7912 11.9064 34.8557 11.9636C34.8249 12.212 34.8544 12.4644 34.9417 12.6984C34.9417 12.6984 35.0922 12.6192 35.0062 11.9416H35.0105ZM35.7243 12.6544C35.4534 12.342 35.3975 11.396 35.3975 11.396C35.3642 11.3579 35.3231 11.3279 35.2771 11.308L35.2599 11.2816V11.3696C35.2604 11.8625 35.3418 12.3518 35.5007 12.8172C35.6149 13.0079 35.7807 13.1608 35.978 13.2572C36.2833 12.7336 35.9135 12.0208 35.6211 11.4972C35.5751 11.4888 35.5329 11.4657 35.5007 11.4312C35.6211 11.8712 35.8361 12.3112 35.7415 12.6676L35.7243 12.6544ZM36.4682 11.0308C36.4727 11.0748 36.4604 11.119 36.4338 11.154V11.1892C36.7219 11.4957 36.9837 11.8269 37.2164 12.1792C37.3266 12.3293 37.4668 12.4537 37.6277 12.544C37.7886 12.6343 37.9665 12.6884 38.1495 12.7028C38.1107 12.289 37.9434 11.8989 37.6722 11.5896C37.3765 11.2585 37.0447 10.9632 36.6832 10.7096C36.5878 10.7548 36.4807 10.7671 36.3779 10.7448H36.3435C36.3836 10.7856 36.4067 10.8408 36.408 10.8988C36.8555 11.1187 37.2372 11.4576 37.5131 11.88C37.569 11.924 37.1433 11.8008 36.4596 11.0352L36.4682 11.0308ZM36.8896 10.5468V10.4808L36.8552 10.4456C37.096 10.5336 37.9431 10.8856 38.214 11C38.4249 11.1199 38.6099 11.2823 38.7576 11.4774C38.9055 11.6725 39.0131 11.8963 39.074 12.1352C38.8903 12.1513 38.7053 12.13 38.5296 12.0726C38.354 12.0152 38.1912 11.9228 38.0506 11.8008C37.5948 11.4004 37.0272 10.846 36.8208 10.6656L36.8853 10.5996C37.2814 10.9295 37.7145 11.2101 38.1753 11.4356C38.0745 11.2441 37.9262 11.0832 37.7453 10.9692C37.4802 10.782 37.1907 10.6339 36.8853 10.5292L36.8896 10.5468ZM37.4099 10.12C37.4099 10.0848 37.3755 10.0848 37.3755 10.054C37.6464 10.12 38.343 10.208 38.6655 10.3004C38.923 10.3707 39.1634 10.495 39.3713 10.6654C39.5794 10.8358 39.7505 11.0487 39.8738 11.2904C39.8738 11.2904 39.3965 11.4444 38.4591 11.0132C38.017 10.7752 37.5551 10.5779 37.0788 10.4236C37.1866 10.4236 37.2922 10.3931 37.3841 10.3356C37.8092 10.5475 38.2709 10.6715 38.7429 10.7008C38.5967 10.5928 38.4378 10.5041 38.2699 10.4368C37.9959 10.2981 37.7074 10.1918 37.4099 10.12ZM37.4099 9.67996C37.3239 9.71749 37.2323 9.7398 37.139 9.74596C37.2081 9.78706 37.2705 9.83902 37.3239 9.89996C37.9157 10.052 38.5205 10.1449 39.1299 10.1772C39.5911 10.2437 40.0607 10.2138 40.5102 10.0892C40.1437 9.87501 39.748 9.7178 39.3363 9.62276C39.0095 9.55676 38.1065 9.55676 37.6851 9.49956C37.6476 9.53252 37.6073 9.56195 37.5647 9.58756C38.0462 9.59055 38.524 9.67376 38.9794 9.83396C38.4514 9.89455 37.917 9.8421 37.4099 9.67996Z" fill="white"/>
<path d="M34.5891 10.7803L34.5031 10.6923C34.3932 10.8349 34.3021 10.9917 34.2322 11.1587C34.1712 11.3403 34.121 11.5254 34.0817 11.7131C34.0347 11.8927 33.9728 12.0678 33.8968 12.2367C33.9812 12.2375 34.0649 12.2211 34.1431 12.1887C34.2214 12.1562 34.2926 12.1082 34.3526 12.0475C34.496 11.8595 34.5893 11.6366 34.6235 11.4007C34.6638 11.1928 34.652 10.9779 34.5891 10.7759V10.7803ZM35.0191 10.8111L34.9331 10.8991L34.8987 10.9343H34.8643L34.7439 10.8991C34.7045 10.9752 34.6825 11.0594 34.6794 11.1455C34.6469 11.2992 34.6469 11.4582 34.6794 11.6119C34.72 11.7482 34.7906 11.8731 34.8858 11.9771C34.9731 11.8788 35.043 11.7656 35.0922 11.6427C35.1576 11.4746 35.1576 11.2872 35.0922 11.1191C35.0928 11.0099 35.0661 10.9024 35.0148 10.8067L35.0191 10.8111ZM35.5566 10.8287C35.4166 10.8078 35.2829 10.7552 35.1653 10.6747C35.1438 10.7114 35.1297 10.7521 35.1238 10.7943C35.1179 10.8367 35.1203 10.8798 35.1309 10.9211C35.1718 11.0482 35.2427 11.1631 35.3373 11.2555C35.4237 11.3319 35.524 11.3899 35.6326 11.4261C35.7411 11.4624 35.8556 11.4762 35.9694 11.4667C36.0038 11.4887 36.0683 11.2995 35.5394 10.8331L35.5566 10.8287ZM35.7458 10.4987C35.7333 10.6012 35.6914 10.6977 35.6254 10.7759C35.6997 10.8995 35.8063 10.9993 35.9333 11.0638C36.0603 11.1284 36.2024 11.1552 36.3435 11.1411C36.377 11.0539 36.3765 10.9569 36.3421 10.8701C36.3077 10.7833 36.242 10.7133 36.1586 10.6747C36.0167 10.6175 35.8963 10.5515 35.7286 10.4987H35.7458ZM35.6899 10.1907C35.8401 10.2239 35.9955 10.2239 36.1457 10.1907H36.2102V10.1203C36.451 10.3095 36.6875 10.3315 36.8079 10.5207C36.7648 10.5848 36.7059 10.6361 36.6372 10.6693C36.5685 10.7026 36.4924 10.7166 36.4166 10.7099C36.2876 10.6989 36.1623 10.6608 36.0483 10.5979C35.9344 10.5351 35.8343 10.4489 35.7544 10.3447C35.7139 10.3041 35.6907 10.2487 35.6899 10.1907ZM36.2016 9.91351C36.1714 9.82028 36.1197 9.73579 36.0511 9.66711C36.249 9.6338 36.4509 9.6338 36.6488 9.66711C36.8045 9.66588 36.9565 9.71617 37.0821 9.81055C37.2076 9.90489 37.3 10.0383 37.3454 10.1907C37.2019 10.278 37.0324 10.3092 36.8681 10.2787C36.7379 10.2732 36.6106 10.2374 36.4959 10.1741C36.3812 10.1109 36.282 10.0218 36.2059 9.91351H36.2016ZM36.3263 9.47351C36.3997 9.40144 36.4621 9.31832 36.5112 9.22711L36.5456 9.16111C36.769 9.04992 37.0245 9.02643 37.2637 9.09511C37.4114 9.14056 37.5381 9.23895 37.6206 9.37231C37.4519 9.50295 37.2537 9.58774 37.0444 9.61871C36.7979 9.62012 36.5537 9.57075 36.3263 9.47351ZM36.2274 8.97191C36.193 8.93671 36.1414 8.93671 36.0769 8.93671C36.2004 8.80414 36.293 8.64468 36.3478 8.47031C36.5067 8.50841 36.6732 8.49614 36.8251 8.43511C36.9094 8.40361 36.9998 8.39318 37.0888 8.40466C37.1778 8.41615 37.2628 8.44919 37.3368 8.50111C37.3055 8.60504 37.2461 8.69784 37.1654 8.76868C37.0848 8.83952 36.9861 8.88558 36.881 8.90151C36.784 8.96236 36.6748 8.9999 36.5616 9.01134C36.4484 9.02278 36.3341 9.00777 36.2274 8.96751V8.97191ZM36.3951 8.36031H36.3306C36.2562 8.32005 36.1739 8.29748 36.0898 8.29431C36.2872 8.12082 36.4987 7.96475 36.7219 7.82791C36.9701 7.6626 37.2477 7.54895 37.5389 7.49351C37.4453 7.73965 37.3131 7.96853 37.1476 8.17111C37.059 8.28058 36.9404 8.36049 36.807 8.40044C36.6737 8.44043 36.5317 8.43872 36.3994 8.39551L36.3951 8.36031ZM36.0081 8.18431C36.1076 8.03696 36.1777 7.87099 36.2145 7.69591C36.279 7.48471 36.3349 7.22951 36.4209 7.01831C36.5708 6.73781 36.8201 6.52683 37.1175 6.42871C37.1838 6.72377 37.1536 7.03296 37.0315 7.30871C36.7685 7.68584 36.4164 7.9886 36.0081 8.18871V8.18431ZM33.6603 10.3887C33.6067 10.4412 33.544 10.483 33.4754 10.5119C33.4353 10.606 33.4175 10.7085 33.4235 10.8109C33.4295 10.9134 33.4591 11.013 33.5098 11.1015C33.6559 11.3672 33.7754 11.6473 33.8667 11.9375C33.8667 11.9375 33.9527 11.9375 34.0516 11.4139C34.0817 11.2196 34.1652 11.038 34.2924 10.8903C34.2365 10.9266 34.1733 10.9491 34.1075 10.9563H34.043L34.0086 10.8903C33.9553 10.7958 33.9327 10.6864 33.9441 10.5779V10.4899C33.8923 10.4991 33.839 10.4946 33.7894 10.4769C33.7397 10.4592 33.6953 10.4288 33.6603 10.3887Z" fill="white"/>
<path d="M36.2749 11.2684C36.5802 11.5808 37.2424 12.3156 37.1779 13.0812C36.8293 12.9686 36.527 12.7412 36.3179 12.4344C36.1672 12.1294 35.9962 11.8354 35.8062 11.5544H36.0771C36.2519 11.9184 36.5083 12.235 36.8253 12.4784C36.8253 12.4784 36.8898 12.1132 36.0771 11.3124C36.0771 11.2772 36.0427 11.2464 36.0126 11.2244C36.1003 11.2517 36.1919 11.2637 36.2835 11.2596L36.2749 11.2684ZM29.9238 5.64076C30.1177 5.57401 30.3276 5.57401 30.5215 5.64076C30.326 5.69651 30.1193 5.69651 29.9238 5.64076ZM32.1211 5.27996C32.1211 5.34596 32.0867 5.36796 32.0351 5.36796C32.0237 5.36858 32.0122 5.36677 32.0015 5.36255C31.9908 5.35837 31.981 5.3519 31.973 5.34358C31.9648 5.33531 31.9585 5.32533 31.9544 5.31437C31.9503 5.30341 31.9485 5.29166 31.9491 5.27996C31.9491 5.21396 31.9835 5.19196 32.0351 5.19196C32.0466 5.19134 32.058 5.19315 32.0688 5.19737C32.0795 5.20155 32.0892 5.20802 32.0973 5.21634C32.1054 5.22461 32.1118 5.2346 32.1158 5.24555C32.12 5.25651 32.1217 5.26826 32.1211 5.27996ZM31.5234 4.94556C31.4045 4.70193 31.3136 4.44502 31.2525 4.17996C31.2869 4.11396 31.317 4.05676 31.403 4.05676C31.489 4.05676 31.5234 4.02156 31.5535 4.05676C31.6596 4.31088 31.7221 4.58177 31.7384 4.85756C31.6629 4.88 31.5894 4.90944 31.5191 4.94556H31.5234ZM31.8115 4.87956H31.9319C31.9008 4.6497 31.8505 4.42297 31.7814 4.20196C31.7736 4.14935 31.753 4.0996 31.7214 4.0573C31.6898 4.01501 31.6484 3.98153 31.6008 3.95996C31.6352 4.08316 31.6868 4.20636 31.7212 4.32516C31.7641 4.51238 31.7972 4.70189 31.8201 4.89276L31.8115 4.87956ZM31.5793 5.53956C31.4223 5.62589 31.2458 5.66839 31.0676 5.66276C31.1364 5.54101 31.2286 5.43475 31.3385 5.35036C31.4895 5.24876 31.6708 5.20512 31.8502 5.22716C31.7832 5.35023 31.6908 5.45684 31.5793 5.53956ZM31.3084 5.57476C31.4436 5.52042 31.5655 5.43634 31.6653 5.32836C31.5192 5.3589 31.3908 5.44751 31.3084 5.57476Z" fill="white"/>
<path d="M29.8723 5.69839C30.0654 5.76175 30.2674 5.79149 30.47 5.78639C30.8248 5.78934 31.1786 5.74798 31.5235 5.66319C31.5098 5.70759 31.4858 5.74793 31.4537 5.78089C31.4214 5.8138 31.382 5.83835 31.3386 5.85239C31.3953 5.85367 31.4492 5.87734 31.4891 5.91839C31.4704 5.95575 31.4443 5.9887 31.4125 6.01523C31.3806 6.04172 31.3438 6.06121 31.3042 6.07239C31.4317 6.20171 31.6021 6.27712 31.7815 6.28359C31.7336 6.32702 31.676 6.35773 31.6138 6.37309C31.5516 6.3884 31.4866 6.38791 31.4246 6.37159C31.2698 6.33951 31.1311 6.25217 31.0333 6.12519C31.0605 6.18415 31.0724 6.24936 31.0677 6.31439C31.0271 6.30889 30.9879 6.29512 30.9524 6.274C30.917 6.25283 30.8861 6.22467 30.8613 6.19119C30.9001 6.25481 30.9223 6.3275 30.9258 6.40239C30.8589 6.40111 30.7941 6.37801 30.7409 6.33639C30.7675 6.38294 30.7795 6.43667 30.7753 6.49039C30.6129 6.43051 30.4595 6.34757 30.3195 6.24399V6.39799C30.3539 6.43319 29.8895 6.36279 29.8895 5.68519L29.8723 5.69839ZM30.6721 5.96239H30.1432C30.1486 6.00401 30.1621 6.0441 30.1827 6.08035C30.2034 6.11661 30.2309 6.14829 30.2636 6.17359C30.2636 5.96239 30.6549 5.96239 30.6549 5.96239H30.6721ZM29.7949 5.75119C29.7974 5.88917 29.8267 6.02527 29.8809 6.15159C29.7893 6.09276 29.7173 6.00683 29.6745 5.90519C29.6401 5.75119 29.6401 5.68079 29.7949 5.75119ZM29.8938 6.19119L30.1346 6.38039C30.046 6.41471 29.9555 6.4441 29.8637 6.46839C29.7749 6.39289 29.6631 6.35157 29.5477 6.35157C29.4322 6.35157 29.3204 6.39289 29.2316 6.46839C29.1876 6.44463 29.1489 6.4115 29.1185 6.37115C29.088 6.33085 29.0663 6.28429 29.0549 6.23466C29.0434 6.18503 29.0426 6.13346 29.0523 6.08348C29.062 6.03345 29.0821 5.98615 29.1112 5.94479C29.1643 5.88508 29.2347 5.84438 29.3121 5.82854C29.3895 5.8127 29.4698 5.8226 29.5412 5.85679C29.5744 5.93507 29.6234 6.00529 29.6848 6.06293C29.7463 6.12053 29.819 6.16422 29.8981 6.19119H29.8938ZM29.4681 6.25719C29.4809 6.25719 29.4934 6.25332 29.5039 6.24606C29.5146 6.2388 29.5228 6.2285 29.5277 6.21645C29.5326 6.20439 29.5339 6.1911 29.5314 6.1783C29.5289 6.16549 29.5227 6.15375 29.5138 6.14451C29.5047 6.13531 29.4932 6.12902 29.4807 6.12647C29.4682 6.12391 29.4552 6.12523 29.4434 6.13021C29.4317 6.13522 29.4216 6.14367 29.4145 6.15454C29.4074 6.16536 29.4036 6.17812 29.4036 6.19119C29.4036 6.22639 29.4036 6.25719 29.4681 6.25719ZM30.1518 6.43319C30.2155 6.51965 30.2845 6.60193 30.3582 6.67959C30.2304 6.67497 30.1043 6.71101 29.9972 6.78268C29.8902 6.8544 29.8075 6.95824 29.7605 7.07999C29.7174 7.01623 29.6916 6.94201 29.6855 6.86474C29.6795 6.78748 29.6935 6.70995 29.7261 6.63999C29.7794 6.57606 29.8452 6.52423 29.9193 6.48788C29.9934 6.45149 30.074 6.43139 30.1561 6.42879L30.1518 6.43319ZM30.6764 6.52999L30.8828 6.59599V6.47279C30.9473 6.47279 30.9688 6.50799 31.0333 6.50799C31.0857 6.69974 31.1716 6.88014 31.287 7.04039C31.28 7.10771 31.258 7.17244 31.2225 7.22959C31.1498 7.10283 31.0694 6.98086 30.9817 6.86439C30.9042 6.73587 30.7902 6.63458 30.6549 6.57399L30.6764 6.52999ZM30.2636 6.50799C30.4177 6.54156 30.5638 6.60585 30.6936 6.69719C30.7667 6.74387 30.8271 6.80864 30.8692 6.88555C30.9113 6.96251 30.9337 7.04901 30.9344 7.13719C30.8686 7.04153 30.7871 6.9582 30.6936 6.89079C30.5182 6.80882 30.3691 6.67761 30.2636 6.51239V6.50799ZM30.2636 4.94159C30.3281 4.94159 30.384 4.97679 30.384 5.02959C30.3475 5.14694 30.2969 5.25927 30.2335 5.36399C30.164 5.26275 30.1131 5.14945 30.083 5.02959C30.1028 4.99875 30.1305 4.97419 30.1632 4.95866C30.1959 4.94309 30.2322 4.93719 30.2679 4.94159H30.2636ZM30.169 5.53119C30.1437 5.38067 30.1034 5.23322 30.0486 5.09119C29.9928 5.05493 29.9295 5.03236 29.8637 5.02519C29.8416 5.02717 29.8208 5.03707 29.8051 5.05317C29.7893 5.06928 29.7797 5.09053 29.7777 5.11319V5.14839C29.85 5.28673 29.9304 5.42044 30.0185 5.54879C30.0663 5.5293 30.1179 5.52173 30.169 5.52679V5.53119ZM30.3195 5.52679C30.3448 5.37627 30.3851 5.22882 30.4399 5.08679C30.4958 5.05053 30.559 5.02796 30.6248 5.02079C30.647 5.02277 30.6677 5.03267 30.6835 5.04877C30.6992 5.06488 30.7089 5.08613 30.7108 5.10879V5.14399C30.646 5.28659 30.5652 5.42097 30.47 5.54439C30.4225 5.52402 30.3707 5.51641 30.3195 5.52239V5.52679ZM30.47 4.56759H30.2851V4.40039H30.1991V4.55439H30.0142V4.67759H30.1991V4.84039H30.2851V4.66439H30.47V4.56759ZM28.6339 5.66759V5.36839C28.5606 5.39316 28.4934 5.43391 28.437 5.48785C28.3805 5.54179 28.3362 5.60762 28.3071 5.68079C28.3071 5.68079 28.5479 5.52679 28.6339 5.68079V5.66759ZM28.8403 6.08119C28.8747 5.95799 28.9048 5.80399 28.9263 5.68079C28.9567 5.58931 28.9667 5.49203 28.9556 5.39611C28.9444 5.30015 28.9124 5.20801 28.8618 5.12639C28.7981 4.98924 28.7686 4.83806 28.7758 4.68639L28.5694 4.77439C28.5788 4.92813 28.6198 5.07808 28.6898 5.21439C28.733 5.33077 28.7449 5.45692 28.7242 5.57959C28.7076 5.66715 28.7098 5.75731 28.7305 5.84394C28.7514 5.93053 28.7903 6.01149 28.8446 6.08119H28.8403ZM28.8446 4.76119V4.67319C28.9569 4.54401 29.1083 4.45719 29.2746 4.42679C29.3606 4.39159 29.4251 4.42679 29.5154 4.49279C29.4588 4.49407 29.4049 4.51774 29.3649 4.55879C29.273 4.64296 29.1702 4.71402 29.0596 4.76999C28.9909 4.76475 28.9219 4.76475 28.8532 4.76999" fill="white"/>
<path d="M29.5023 4.46192C29.5758 4.52651 29.6282 4.61249 29.6528 4.70832C29.626 4.83878 29.5749 4.96277 29.5023 5.07352C29.4292 5.16095 29.3868 5.27095 29.3819 5.38592C29.3819 5.45192 29.4464 5.50912 29.4679 5.57512C29.4037 5.5566 29.3437 5.52531 29.2913 5.48303C29.2389 5.44074 29.1952 5.3883 29.1626 5.32872C29.1463 5.2702 29.1457 5.20829 29.1608 5.14946C29.1759 5.09059 29.2063 5.03704 29.2486 4.99432C29.3019 4.87358 29.3714 4.76103 29.455 4.65992C29.4891 4.5985 29.5041 4.52788 29.498 4.45752L29.5023 4.46192ZM31.0976 6.40232C31.1487 6.58941 31.2301 6.76642 31.3384 6.92592C31.4134 7.06016 31.4548 7.21135 31.4588 7.36592C31.5214 7.21936 31.5436 7.0581 31.5233 6.89952C31.4471 6.68599 31.2929 6.51096 31.0933 6.41112L31.0976 6.40232ZM31.3986 6.46832C31.4919 6.47448 31.5835 6.49679 31.6695 6.53432C31.8081 6.6434 31.9041 6.79938 31.9404 6.97432C31.8448 6.94682 31.7536 6.90533 31.6695 6.85112C31.5475 6.75238 31.4538 6.62162 31.3986 6.47272V6.46832ZM30.4311 6.85112C30.3666 6.85112 30.3107 6.88632 30.2462 6.88632C30.3306 6.91826 30.4114 6.95958 30.487 7.00952C30.5316 7.04837 30.5679 7.09611 30.5938 7.14984C30.6196 7.20356 30.6346 7.26212 30.6375 7.32192C30.6793 7.49189 30.7414 7.65592 30.8224 7.81032C30.8247 7.64378 30.8538 7.47878 30.9084 7.32192C30.8393 7.28087 30.7769 7.22886 30.7235 7.16792C30.6652 7.0317 30.5616 6.92104 30.4311 6.85552V6.85112ZM31.2911 7.29552C31.3591 7.43786 31.393 7.59472 31.39 7.75312C31.3202 7.9201 31.229 8.07692 31.1191 8.21952C31.0817 8.03701 31.0601 7.8515 31.0546 7.66512C31.0516 7.5842 31.0705 7.50399 31.1092 7.43333C31.1479 7.36271 31.2049 7.30436 31.2739 7.26472L31.2911 7.29552ZM31.6007 7.26472C31.6935 7.42994 31.7671 7.60563 31.82 7.78832C31.8349 7.84539 31.8368 7.90523 31.8257 7.96318C31.8145 8.02112 31.7905 8.07573 31.7555 8.12272C31.6695 8.24592 31.5706 8.36912 31.4846 8.48792C31.4273 8.4158 31.3862 8.33168 31.3642 8.24152C31.3568 8.11916 31.3655 7.99631 31.39 7.87632C31.4841 7.68096 31.5576 7.47596 31.6093 7.26472H31.6007ZM31.7297 8.46592C31.6136 8.58723 31.5112 8.72156 31.4244 8.86632C31.3924 8.91595 31.3754 8.97408 31.3754 9.03352C31.3754 9.09296 31.3924 9.15109 31.4244 9.20072C31.5191 9.33659 31.6407 9.45055 31.7813 9.53512C31.6965 9.40528 31.6544 9.25114 31.6609 9.09512C31.6934 8.98807 31.7336 8.88361 31.7813 8.78272C31.7866 8.67272 31.7675 8.5629 31.7254 8.46152L31.7297 8.46592ZM31.2954 8.30752C31.354 8.38729 31.3843 8.48502 31.3814 8.58472C31.3756 8.7088 31.354 8.8316 31.3169 8.94992C31.2521 9.13146 31.1715 9.30667 31.0761 9.47352C31.0139 9.38856 30.9632 9.29532 30.9256 9.19632C31.0116 9.07312 31.0761 8.94992 31.1664 8.83112C31.2221 8.66014 31.2652 8.4851 31.2954 8.30752ZM31.2309 8.21952C31.1693 8.54758 31.0483 8.861 30.874 9.14352C30.8251 9.23618 30.7571 9.31684 30.6747 9.37989C30.5923 9.44294 30.4974 9.4869 30.3967 9.50872C30.3079 9.50441 30.2227 9.47207 30.1526 9.4161C30.0825 9.36018 30.0311 9.2834 30.0054 9.19632C29.975 9.11598 29.965 9.02903 29.9763 8.94363C29.9875 8.85822 30.0198 8.77713 30.0699 8.70792C30.0888 8.78562 30.1268 8.85712 30.1802 8.91564C30.2336 8.97416 30.3008 9.01777 30.3752 9.04232C30.6031 9.02032 30.9084 8.74312 31.2352 8.21952" fill="white"/>
<path d="M30.9601 8.00807C30.99 8.12339 30.99 8.24475 30.9601 8.36007C30.9486 8.42387 30.9243 8.48459 30.8888 8.53836C30.8533 8.59208 30.8073 8.63775 30.7537 8.67247C30.6839 8.71401 30.6016 8.72795 30.5224 8.71176C30.4432 8.69553 30.3725 8.65029 30.3237 8.58447L30.2893 8.54927C30.4398 8.53369 30.5829 8.47447 30.7017 8.37864C30.8205 8.28276 30.9102 8.15424 30.9601 8.00807ZM31.6997 10.1201C31.8146 10.2673 31.906 10.4321 31.9706 10.6085C31.9647 10.8368 31.901 11.0597 31.7857 11.2553C31.6483 11.1383 31.543 10.9866 31.4804 10.8153C31.4644 10.69 31.4758 10.5627 31.5137 10.4425C31.5516 10.3223 31.6152 10.2121 31.6997 10.1201ZM31.4073 10.3313C31.4596 10.1822 31.5416 10.0458 31.6481 9.93087C31.6797 9.79922 31.6668 9.66053 31.6113 9.53742C31.5558 9.41431 31.4612 9.31412 31.3428 9.25327C31.2329 9.39895 31.1512 9.5647 31.102 9.74167C31.0676 9.99687 31.3084 10.1201 31.4073 10.3313ZM30.8655 9.28407C30.7996 9.37973 30.7182 9.46306 30.6247 9.53047V9.84287C30.6717 10.0224 30.7336 10.1976 30.8096 10.3665C30.9033 10.2481 30.9734 10.1121 31.016 9.96607C31.0408 9.84604 31.0523 9.72354 31.0504 9.60087C30.9969 9.49193 30.9351 9.38747 30.8655 9.28847V9.28407ZM30.3538 10.1685C30.2256 9.98169 30.1391 9.76842 30.1001 9.54367C30.165 9.58094 30.2371 9.60338 30.3113 9.60945C30.3856 9.61552 30.4602 9.60509 30.5301 9.57887C30.5627 9.71025 30.5627 9.84789 30.5301 9.97927C30.4737 10.0542 30.4118 10.1249 30.3452 10.1905L30.3538 10.1685ZM30.3796 10.2565L30.5301 10.1201C30.5645 10.0849 30.6806 10.3973 30.715 10.4853C30.6505 10.4853 30.5946 10.4853 30.5645 10.4501C30.5086 10.3853 30.4467 10.3264 30.3796 10.2741V10.2565ZM31.0676 10.1201C30.9762 10.274 30.8741 10.421 30.7623 10.5601C30.7948 10.6671 30.835 10.7716 30.8827 10.8725C30.9554 11.0069 31.0466 11.1299 31.1536 11.2377C31.227 11.1226 31.289 11.0002 31.3385 10.8725C31.3885 10.7769 31.4067 10.6672 31.3901 10.5601C31.3256 10.4061 31.1493 10.2477 31.0848 10.0937L31.0676 10.1201ZM31.3901 10.9561C31.4899 11.0906 31.5709 11.2387 31.6309 11.3961C31.652 11.4897 31.6398 11.588 31.5965 11.6733C31.5621 11.7393 31.4761 11.8845 31.4116 12.0077C31.2903 11.9136 31.1966 11.7873 31.1407 11.6425C31.1222 11.5823 31.1158 11.5191 31.1217 11.4563C31.1276 11.3936 31.1458 11.3327 31.1751 11.2773C31.2396 11.1893 31.36 11.1013 31.3944 10.9649L31.3901 10.9561ZM30.7838 10.9429C30.8685 11.0545 30.9379 11.1773 30.9902 11.3081C31.0219 11.3634 31.0387 11.4265 31.0387 11.4907C31.0387 11.5549 31.0219 11.6179 30.9902 11.6733C30.9257 11.7965 30.8698 11.8845 30.8397 11.9505C30.7524 11.8522 30.6825 11.739 30.6333 11.6161C30.601 11.4966 30.601 11.3704 30.6333 11.2509C30.7047 11.1589 30.756 11.0524 30.7838 10.9385V10.9429ZM31.6438 11.8185C31.5208 11.9855 31.4343 12.1775 31.3901 12.3817C31.4371 12.5713 31.4989 12.7566 31.575 12.9361C31.6621 12.8459 31.7321 12.74 31.7814 12.6237C31.856 12.505 31.8864 12.363 31.8674 12.2233C31.8711 12.1475 31.8575 12.0718 31.8277 12.0023C31.7978 11.9328 31.7525 11.8714 31.6954 11.8229L31.6438 11.8185ZM31.1192 11.7877C31.2116 11.9254 31.2638 12.0871 31.2697 12.2541C31.2053 12.4093 31.1246 12.5568 31.0289 12.6941C30.9652 12.5787 30.9147 12.4561 30.8784 12.3289C30.8757 12.2271 30.896 12.1262 30.9378 12.0338C30.9796 11.9415 31.0417 11.8602 31.1192 11.7965V11.7877ZM34.1636 5.63647C33.9697 5.56972 33.7598 5.56972 33.5659 5.63647C33.7614 5.69222 33.9681 5.69222 34.1636 5.63647ZM32.0351 4.65087C32.1114 4.45947 32.1733 4.26237 32.22 4.06127C32.22 4.01109 32.2005 3.96297 32.1659 3.92749C32.1312 3.89201 32.0841 3.87207 32.0351 3.87207C31.9861 3.87207 31.939 3.89201 31.9043 3.92749C31.8697 3.96297 31.8502 4.01109 31.8502 4.06127C31.8921 4.26371 31.9541 4.46127 32.0351 4.65087ZM32.5468 4.96327C32.6657 4.71964 32.7566 4.46273 32.8177 4.19767C32.7833 4.13167 32.7532 4.07447 32.6973 4.07447C32.6414 4.07447 32.5769 4.03927 32.5468 4.07447C32.4408 4.32859 32.3782 4.59948 32.3619 4.87527C32.3963 4.89727 32.4823 4.93247 32.5468 4.96327ZM32.2501 4.89287H32.1211C32.1522 4.66301 32.2025 4.43628 32.2716 4.21527C32.2714 4.15739 32.2899 4.10106 32.3241 4.05495C32.3582 4.00884 32.4063 3.97551 32.4608 3.96007C32.4264 4.08327 32.3748 4.20647 32.3404 4.32527C32.306 4.51447 32.2759 4.70367 32.2415 4.87967L32.2501 4.89287ZM32.2759 5.22287C32.4541 5.21724 32.6306 5.25974 32.7876 5.34607C32.9047 5.42215 32.9986 5.53039 33.0585 5.65847C32.8803 5.6641 32.7038 5.6216 32.5468 5.53527C32.4799 5.51023 32.4201 5.46857 32.3728 5.41405C32.3255 5.35953 32.2922 5.29384 32.2759 5.22287ZM32.3963 5.31087C32.4961 5.41893 32.6179 5.50306 32.7532 5.55727C32.7148 5.49215 32.6629 5.43636 32.6013 5.39381C32.5397 5.35122 32.4697 5.32293 32.3963 5.31087ZM33.7207 6.42407V6.27007C33.5892 6.37215 33.4445 6.45509 33.2907 6.51647C33.2865 6.46275 33.2985 6.40902 33.3251 6.36247C33.2692 6.39873 33.206 6.4213 33.1402 6.42847C33.1746 6.36247 33.1746 6.27447 33.2262 6.21727C33.2022 6.2515 33.1714 6.28019 33.1359 6.30144C33.1003 6.32265 33.0607 6.33598 33.0198 6.34047C33.0152 6.27544 33.027 6.21023 33.0542 6.15127C32.9699 6.27654 32.8424 6.36454 32.6973 6.39767C32.6353 6.41399 32.5704 6.41448 32.5081 6.39917C32.4459 6.38381 32.3883 6.3531 32.3404 6.30967C32.5203 6.3054 32.6914 6.22968 32.8177 6.09847C32.7486 6.05737 32.6862 6.00541 32.6328 5.94447C32.6727 5.90342 32.7267 5.87975 32.7833 5.87847C32.7399 5.86443 32.7005 5.83988 32.6683 5.80697C32.6361 5.77401 32.6121 5.73367 32.5984 5.68927C32.943 5.77591 33.2971 5.81731 33.6519 5.81247C33.8543 5.81291 34.0556 5.78325 34.2496 5.72447C34.1636 6.37127 33.7164 6.43727 33.7164 6.43727L33.7207 6.42407ZM33.8024 6.16007C33.8359 6.13552 33.8639 6.10401 33.8847 6.06763C33.9054 6.03124 33.9184 5.99076 33.9228 5.94887C33.7416 5.95367 33.5602 5.94187 33.381 5.91367V5.94887C33.4154 5.97087 33.811 5.97087 33.811 6.16007H33.8024ZM34.2883 5.75967C34.2858 5.89765 34.2566 6.03375 34.2023 6.16007C34.2939 6.10124 34.3659 6.01531 34.4087 5.91367C34.4431 5.78167 34.4431 5.68927 34.2883 5.75967ZM34.5936 5.90487C34.6651 5.87068 34.7453 5.86078 34.8227 5.87662C34.9001 5.89246 34.9705 5.93321 35.0236 5.99287C35.0629 6.08149 35.0725 6.18093 35.0507 6.2757C35.0289 6.37043 34.977 6.45513 34.9032 6.51647C34.8144 6.44097 34.7026 6.39965 34.5871 6.39965C34.4717 6.39965 34.3599 6.44097 34.2711 6.51647C34.1862 6.47199 34.0946 6.44224 34.0002 6.42847C34.0677 6.35002 34.1495 6.28573 34.241 6.23927C34.3952 6.17503 34.5218 6.05641 34.5979 5.90487H34.5936ZM34.7183 6.24807C34.7183 6.235 34.7145 6.22224 34.7074 6.21142C34.7003 6.20055 34.6903 6.1921 34.6785 6.18709C34.6667 6.18211 34.6537 6.18079 34.6412 6.18335C34.6287 6.1859 34.6172 6.19219 34.6082 6.20139C34.5992 6.21063 34.593 6.22237 34.5905 6.23518C34.5881 6.24798 34.5893 6.26127 34.5942 6.27333C34.5991 6.28538 34.6074 6.29568 34.618 6.30294C34.6286 6.3102 34.641 6.31407 34.6538 6.31407C34.6882 6.31407 34.7183 6.27887 34.7183 6.24807ZM33.9357 6.45927C33.872 6.54573 33.803 6.62801 33.7293 6.70567C33.8571 6.70105 33.9833 6.73709 34.0903 6.80876C34.1973 6.88048 34.28 6.98432 34.327 7.10607C34.3701 7.04231 34.396 6.96809 34.402 6.89082C34.4081 6.81356 34.394 6.73603 34.3614 6.66607C34.3098 6.60011 34.2444 6.54687 34.1699 6.51035C34.0955 6.47379 34.014 6.45483 33.9314 6.45487" fill="white"/>
<path d="M33.4156 6.56499L33.2092 6.63099V6.50779C33.1447 6.50779 33.1232 6.54299 33.0587 6.54299C32.9961 6.72392 32.903 6.89222 32.7835 7.04019C32.7905 7.10751 32.8126 7.17223 32.848 7.22939C32.9208 7.10262 33.0012 6.98066 33.0888 6.86419C33.1727 6.74134 33.285 6.64159 33.4156 6.57379V6.56499ZM33.8069 6.50779C33.6528 6.54136 33.5067 6.60565 33.3769 6.69699C33.3038 6.74367 33.2434 6.80844 33.2013 6.88535C33.1592 6.96231 33.1368 7.04886 33.1361 7.13699C33.202 7.04133 33.2834 6.958 33.3769 6.89059C33.5459 6.79867 33.6928 6.6694 33.8069 6.51219V6.50779ZM33.8069 4.94139C33.7424 4.94139 33.6865 4.97659 33.6865 5.02939C33.7231 5.14674 33.7736 5.25907 33.837 5.36379C33.9065 5.26254 33.9575 5.14925 33.9875 5.02939C33.9384 4.97795 33.8727 4.94667 33.8026 4.94139H33.8069ZM33.8886 5.53099C33.8979 5.37725 33.939 5.2273 34.009 5.09099C34.0649 5.05473 34.1281 5.03216 34.1939 5.02499C34.2283 5.02499 34.2799 5.06019 34.2584 5.11299V5.14819C34.1861 5.28652 34.1057 5.42024 34.0176 5.54859C34.0176 5.52659 33.9531 5.52659 33.8886 5.52659V5.53099ZM33.7467 5.52659C33.7214 5.37607 33.6811 5.22867 33.6263 5.08659C33.5705 5.05033 33.5072 5.02776 33.4414 5.02059C33.4193 5.02257 33.3985 5.03247 33.3828 5.04857C33.367 5.06468 33.3573 5.08593 33.3554 5.10859V5.14379C33.4277 5.28212 33.5081 5.41584 33.5962 5.54419C33.6437 5.52382 33.6955 5.51621 33.7467 5.52219V5.52659ZM33.5962 4.56739H33.7682V4.40019H33.8886V4.55419H34.0391V4.67739H33.8886V4.84019H33.7682V4.66419H33.5962V4.56739ZM31.8203 3.57299H31.9708V3.38379H32.0912V3.57299H32.2503V3.66099H32.0998V3.88539H31.9794V3.66099H31.8203V3.57299ZM35.4409 5.66299V5.36379C35.5142 5.38856 35.5814 5.42931 35.6379 5.48325C35.6943 5.53719 35.7386 5.60302 35.7677 5.67619C35.7677 5.67619 35.5269 5.52219 35.4409 5.67619V5.66299ZM35.2216 6.07659C35.1872 5.95339 35.1571 5.79939 35.1356 5.67619C35.0809 5.49324 35.0931 5.29616 35.17 5.12179C35.2494 4.99045 35.28 4.83425 35.256 4.68179L35.4624 4.76979C35.4531 4.92353 35.4121 5.07348 35.342 5.20979C35.2988 5.32617 35.2869 5.45232 35.3076 5.57499C35.3408 5.65841 35.3503 5.74971 35.335 5.83842C35.3198 5.92716 35.2805 6.00967 35.2216 6.07659ZM35.2216 4.75659V4.66859C35.1094 4.5394 34.9579 4.45259 34.7916 4.42219C34.7056 4.38699 34.6411 4.42219 34.5508 4.48819C34.6074 4.48946 34.6614 4.51314 34.7013 4.55419C34.7933 4.63836 34.896 4.70942 35.0066 4.76539C35.0754 4.76138 35.1443 4.76138 35.213 4.76539" fill="white"/>
<path d="M34.5592 4.46192C34.4857 4.52651 34.4332 4.61249 34.4087 4.70832C34.4355 4.83878 34.4866 4.96277 34.5592 5.07352C34.6323 5.16095 34.6747 5.27095 34.6796 5.38592C34.6796 5.45192 34.6151 5.50912 34.5936 5.57512C34.6578 5.5566 34.7178 5.52531 34.7702 5.48303C34.8226 5.44074 34.8663 5.3883 34.8989 5.32872C34.9152 5.2702 34.9158 5.20829 34.9007 5.14946C34.8856 5.09059 34.8552 5.03704 34.8129 4.99432C34.7596 4.87358 34.6901 4.76103 34.6065 4.65992C34.5724 4.5985 34.5574 4.52788 34.5635 4.45752L34.5592 4.46192ZM32.9768 6.40232C32.9257 6.58941 32.8443 6.76642 32.736 6.92592C32.6522 7.06602 32.6103 7.22816 32.6156 7.39232C32.553 7.24576 32.5307 7.0845 32.5511 6.92592C32.5744 6.80892 32.6261 6.69972 32.7011 6.60828C32.7762 6.51685 32.8724 6.44606 32.9811 6.40232H32.9768ZM32.6758 6.45952C32.5824 6.46568 32.4909 6.48799 32.4049 6.52552C32.2663 6.6346 32.1703 6.79058 32.134 6.96552C32.2296 6.93802 32.3208 6.89653 32.4049 6.84232C32.5244 6.74108 32.6175 6.61106 32.6758 6.46392V6.45952ZM33.6433 6.84232C33.7078 6.84232 33.7637 6.87752 33.8282 6.87752C33.7437 6.90946 33.663 6.95078 33.5874 7.00072C33.5428 7.03957 33.5065 7.08731 33.4806 7.14104C33.4547 7.19476 33.4399 7.25332 33.4369 7.31312C33.3951 7.48309 33.333 7.64712 33.252 7.80152C33.2497 7.63498 33.2206 7.46998 33.166 7.31312C33.2351 7.27207 33.2975 7.22006 33.3509 7.15912C33.3764 7.08951 33.4155 7.02598 33.4658 6.97225C33.516 6.91857 33.5764 6.87585 33.6433 6.84672V6.84232ZM32.7833 7.28672C32.7124 7.43135 32.677 7.59142 32.6801 7.75312C32.7499 7.9201 32.841 8.07692 32.951 8.21952C32.9884 8.03701 33.01 7.8515 33.0155 7.66512C33.0141 7.58504 32.9934 7.5065 32.9551 7.43663C32.9169 7.36676 32.8622 7.30766 32.7962 7.26472L32.7833 7.28672ZM32.0351 7.81912C32.0351 7.69592 32.306 7.41872 32.306 7.26472C32.2848 7.20022 32.2493 7.14165 32.2023 7.09356C32.1553 7.04547 32.0981 7.00917 32.0351 6.98752C31.9197 7.05018 31.8254 7.14671 31.7642 7.26472C31.7642 7.41872 32.0351 7.73112 32.0351 7.81912ZM32.4651 7.26472C32.3738 7.43012 32.3016 7.60585 32.2501 7.78832C32.2352 7.84539 32.2332 7.90523 32.2444 7.96318C32.2556 8.02112 32.2796 8.07573 32.3146 8.12272C32.4006 8.24592 32.4995 8.36912 32.5855 8.48792C32.6428 8.4158 32.6839 8.33168 32.7059 8.24152C32.7133 8.11916 32.7046 7.99631 32.6801 7.87632C32.5812 7.68312 32.5075 7.4775 32.4608 7.26472H32.4651ZM32.0308 8.71232C32.1137 8.64953 32.1778 8.56417 32.2157 8.46592C32.2343 8.42597 32.241 8.38122 32.2349 8.3374C32.2288 8.29353 32.2101 8.25252 32.1813 8.21952C32.108 8.14239 32.056 8.04673 32.0308 7.94232C31.9932 8.04132 31.9425 8.13456 31.8803 8.21952C31.8509 8.25226 31.8319 8.29326 31.8257 8.33726C31.8196 8.38126 31.8266 8.4261 31.8459 8.46592C31.8865 8.5625 31.9501 8.64716 32.0308 8.71232ZM32.3361 8.46592C32.4522 8.58723 32.5546 8.72156 32.6414 8.86632C32.6734 8.91595 32.6904 8.97408 32.6904 9.03352C32.6904 9.09296 32.6734 9.15109 32.6414 9.20072C32.5467 9.33659 32.4251 9.45055 32.2845 9.53512C32.3693 9.40528 32.4114 9.25114 32.4049 9.09512C32.3724 8.98807 32.3321 8.88361 32.2845 8.78272C32.2792 8.67272 32.2983 8.5629 32.3404 8.46152L32.3361 8.46592ZM32.7704 8.30752C32.7118 8.38729 32.6815 8.48502 32.6844 8.58472C32.6902 8.7088 32.7118 8.8316 32.7489 8.94992C32.8137 9.13146 32.8943 9.30667 32.9897 9.47352C33.0519 9.38856 33.1026 9.29532 33.1402 9.19632C33.0542 9.07312 32.9897 8.94992 32.8994 8.83112C32.8091 8.71232 32.8005 8.46592 32.7704 8.30752ZM32.8693 8.21952C32.9309 8.54758 33.0519 8.861 33.2262 9.14352C33.275 9.23618 33.3431 9.31684 33.4255 9.37989C33.5079 9.44294 33.6028 9.4869 33.7035 9.50872C33.7923 9.50441 33.8775 9.47207 33.9476 9.4161C34.0177 9.36018 34.0691 9.2834 34.0948 9.19632C34.1252 9.11598 34.1352 9.02903 34.1239 8.94363C34.1126 8.85822 34.0804 8.77713 34.0303 8.70792C34.0114 8.78562 33.9734 8.85712 33.92 8.91564C33.8666 8.97416 33.7994 9.01777 33.725 9.04232C33.4971 9.02032 33.1918 8.74312 32.865 8.21952" fill="white"/>
<path d="M33.1103 8.0083C33.0804 8.12362 33.0804 8.24498 33.1103 8.3603C33.1218 8.4241 33.1461 8.48482 33.1816 8.53859C33.2171 8.59231 33.2631 8.63798 33.3167 8.6727C33.3865 8.71424 33.4688 8.72818 33.548 8.71199C33.6271 8.69576 33.6978 8.65052 33.7467 8.5847L33.7811 8.5495C33.6301 8.53551 33.4862 8.4769 33.3672 8.3808C33.2481 8.28471 33.1588 8.1553 33.1103 8.0083ZM32.0353 9.5439C32.1135 9.51785 32.1794 9.46294 32.2202 9.3899C32.2789 9.2777 32.3085 9.15195 32.3062 9.0247C32.2734 8.9235 32.2223 8.82947 32.1557 8.7475C32.1224 8.78552 32.0812 8.81557 32.0353 8.8355C31.9978 8.80254 31.9575 8.77311 31.9149 8.7475C31.8526 8.83246 31.802 8.9257 31.7644 9.0247C31.7515 9.08828 31.7525 9.15402 31.7674 9.21716C31.7822 9.2803 31.8106 9.3393 31.8504 9.3899C31.8848 9.4911 31.9493 9.5131 32.0353 9.5439ZM32.0353 10.4679C32.0697 10.3139 32.3406 10.0675 32.3406 9.9135C32.3406 9.7595 32.1557 9.7243 32.0353 9.6363C31.9149 9.7243 31.7945 9.7023 31.73 9.9135C31.73 10.0367 32.0009 10.3139 32.0353 10.4679ZM32.3621 10.1335C32.2472 10.2807 32.1558 10.4455 32.0912 10.6219C32.0971 10.8502 32.1608 11.0731 32.2761 11.2687C32.4135 11.1517 32.5187 11 32.5814 10.8287C32.6021 10.7013 32.5929 10.5707 32.5548 10.4476C32.5167 10.3245 32.4507 10.2123 32.3621 10.1203V10.1335ZM32.6674 10.3315C32.615 10.1824 32.5331 10.0461 32.4266 9.9311C32.3949 9.79945 32.4079 9.66076 32.4634 9.53765C32.5189 9.41454 32.6135 9.31435 32.7319 9.2535C32.8292 9.40688 32.91 9.57061 32.9727 9.7419C32.9942 9.9971 32.7534 10.1203 32.6674 10.3315ZM33.2092 9.2843C33.2751 9.37996 33.3565 9.46329 33.45 9.5307V9.8431C33.4029 10.0227 33.3411 10.1978 33.2651 10.3667C33.1714 10.2483 33.1012 10.1123 33.0587 9.9663C33.0339 9.84627 33.0223 9.72377 33.0243 9.6011C33.0587 9.5659 33.1447 9.3767 33.2092 9.2887V9.2843ZM33.7209 10.1687C33.8475 9.98152 33.9327 9.76826 33.9703 9.5439C33.9054 9.58117 33.8333 9.60361 33.7591 9.60968C33.6848 9.61575 33.6102 9.60532 33.5403 9.5791C33.5077 9.71048 33.5077 9.84812 33.5403 9.9795C33.5936 10.0571 33.6556 10.128 33.7252 10.1907L33.7209 10.1687ZM33.6908 10.2567C33.6263 10.1907 33.5704 10.1687 33.5403 10.1027C33.4758 10.2259 33.4199 10.3491 33.3554 10.4679C33.4199 10.4679 33.4758 10.4679 33.5059 10.4327C33.5617 10.368 33.6237 10.309 33.6908 10.2567ZM32.9899 10.1203C33.0813 10.2742 33.1833 10.4213 33.2952 10.5603C33.2627 10.6674 33.2225 10.7718 33.1748 10.8727C33.1021 11.0071 33.0109 11.1301 32.9039 11.2379C32.8304 11.1228 32.7685 11.0005 32.719 10.8727C32.6734 10.7756 32.6598 10.666 32.6803 10.5603C32.7448 10.4063 32.9297 10.2479 32.9856 10.0939L32.9899 10.1203ZM32.0353 12.0695C32.1129 11.9516 32.1847 11.8297 32.2503 11.7043C32.2794 11.6188 32.2794 11.5257 32.2503 11.4403C32.2159 11.3523 32.0654 11.1279 32.0439 11.0751C31.9605 11.191 31.8858 11.3131 31.8203 11.4403C31.788 11.5298 31.788 11.628 31.8203 11.7175C31.8762 11.9067 32.0267 11.9947 32.0267 12.0827L32.0353 12.0695ZM32.6244 10.9695C32.5246 11.1041 32.4436 11.2522 32.3836 11.4095C32.3625 11.5031 32.3747 11.6014 32.418 11.6867C32.4524 11.7527 32.5384 11.8979 32.6029 12.0211C32.7242 11.9271 32.8179 11.8007 32.8738 11.6559C32.8922 11.5958 32.8987 11.5325 32.8928 11.4697C32.8869 11.407 32.8687 11.3461 32.8394 11.2907C32.805 11.2027 32.6889 11.1147 32.6201 10.9783L32.6244 10.9695ZM33.2522 10.9563C33.1675 11.0679 33.0981 11.1907 33.0458 11.3215C33.014 11.3769 32.9973 11.4399 32.9973 11.5041C32.9973 11.5683 33.014 11.6313 33.0458 11.6867C33.1103 11.8099 33.1662 11.8979 33.1963 11.9639C33.2836 11.8656 33.3534 11.7524 33.4027 11.6295C33.4349 11.51 33.4349 11.3838 33.4027 11.2643C33.3396 11.1672 33.289 11.0622 33.2522 10.9519V10.9563ZM32.0353 13.8603C32.1553 13.5953 32.2365 13.3136 32.2761 13.0243C32.2442 12.8105 32.1615 12.6081 32.0353 12.4347C31.8946 12.5993 31.8101 12.8062 31.7945 13.0243C31.8245 13.3156 31.9061 13.5989 32.0353 13.8603ZM32.3922 11.8231C32.5269 11.9856 32.6252 12.1764 32.6803 12.3819C32.6333 12.5715 32.5714 12.7569 32.4954 12.9363C32.4083 12.8461 32.3383 12.7402 32.289 12.6239C32.2474 12.5674 32.2182 12.5024 32.2034 12.4333C32.1885 12.3642 32.1884 12.2926 32.203 12.2235C32.195 12.1472 32.2068 12.0701 32.2369 11.9999C32.2671 11.9296 32.3147 11.8687 32.375 11.8231H32.3922ZM32.9512 11.7879C32.8588 11.9256 32.8066 12.0874 32.8007 12.2543C32.8651 12.4095 32.9458 12.557 33.0415 12.6943C33.1052 12.5789 33.1556 12.4563 33.192 12.3291C33.1947 12.2274 33.1744 12.1264 33.1326 12.034C33.0908 11.9417 33.0287 11.8605 32.9512 11.7967" fill="white"/>
<path d="M32.25 14.4716C32.2889 14.2585 32.3585 14.0524 32.4564 13.8601C32.4751 13.7691 32.474 13.675 32.4531 13.5845C32.4324 13.4941 32.3923 13.4094 32.336 13.3364C32.254 13.6108 32.1519 13.8785 32.0307 14.1373C31.914 13.8765 31.8121 13.6092 31.7254 13.3364C31.669 13.4094 31.629 13.4941 31.6082 13.5845C31.5874 13.675 31.5863 13.7691 31.605 13.8601C31.6944 14.0569 31.7664 14.2616 31.82 14.4716C31.8158 14.5625 31.7841 14.6498 31.7294 14.7215C31.6748 14.7932 31.5998 14.8458 31.5147 14.872C31.5897 14.9023 31.6723 14.9066 31.7499 14.8844C31.8275 14.8621 31.8959 14.8145 31.9447 14.7489C31.9818 14.7148 32.0112 14.6727 32.0307 14.6257C32.0629 14.664 32.0916 14.7052 32.1167 14.7489C32.165 14.8151 32.2333 14.8632 32.3112 14.8855C32.3889 14.9077 32.4718 14.903 32.5467 14.872C32.4755 14.8282 32.4138 14.7701 32.365 14.7014C32.3162 14.6326 32.2815 14.5545 32.2629 14.4716H32.25ZM31.2739 12.5357C31.3083 12.6237 31.3943 12.8481 31.4244 12.9009C31.4361 12.9814 31.4223 13.0636 31.3852 13.1356C31.3481 13.2076 31.2895 13.2657 31.218 13.3012C31.1371 13.2513 31.0727 13.1777 31.0331 13.0901C31.0132 13.0504 31.0058 13.0054 31.012 12.9613C31.0182 12.9171 31.0375 12.876 31.0675 12.8437C31.1141 12.7259 31.1844 12.6194 31.2739 12.5312V12.5357ZM31.7039 12.9712C31.6897 13.161 31.6491 13.3476 31.5835 13.5257C31.5378 13.6243 31.4712 13.7114 31.3887 13.7806C31.3062 13.8499 31.2097 13.8995 31.1062 13.9261C31.0072 13.9089 30.914 13.8666 30.8353 13.8029C30.8429 13.7458 30.8664 13.6922 30.903 13.6485C30.9396 13.6048 30.9877 13.5729 31.0417 13.5565C31.3153 13.4325 31.5461 13.2271 31.7039 12.9668V12.9712ZM31.1277 13.4068C31.0902 13.3739 31.0499 13.3445 31.0073 13.3189C30.9004 13.3588 30.798 13.4105 30.702 13.4729C30.5773 13.567 30.4671 13.6797 30.3752 13.8072C30.4816 13.8408 30.5955 13.8408 30.702 13.8072C30.7254 13.6935 30.7919 13.5938 30.8869 13.5301C30.9587 13.4736 31.0404 13.4317 31.1277 13.4068ZM30.96 13.2397C30.9014 13.1599 30.8711 13.0622 30.874 12.9624L30.5171 13.2089C30.4021 13.2985 30.2994 13.4036 30.2118 13.5213C30.3287 13.4839 30.4479 13.4545 30.5687 13.4333C30.7192 13.3673 30.8396 13.3101 30.96 13.2441V13.2397ZM30.4827 13.5565C30.2759 13.6235 30.0647 13.675 29.8506 13.7105C29.7035 13.7754 29.5705 13.8696 29.4593 13.9877L29.7861 14.0757C29.8977 13.993 30.0173 13.9222 30.143 13.8645C30.2738 13.784 30.3878 13.6778 30.4784 13.552L30.4827 13.5565ZM30.1731 14.564C30.2376 14.5288 30.2376 14.4761 30.2075 14.4101C30.1572 14.3368 30.0846 14.2826 30.0011 14.2561C29.8162 14.1901 29.6098 14.1328 29.4249 14.0668C29.3927 14.1052 29.3639 14.1464 29.3389 14.1901C29.3389 14.2253 29.3389 14.2561 29.4034 14.2561H29.7947C29.8159 14.2745 29.8307 14.2994 29.8368 14.3272C29.8431 14.355 29.8403 14.384 29.8291 14.4101C29.8849 14.3738 29.9482 14.3512 30.014 14.344C30.0552 14.3674 30.0912 14.3995 30.1194 14.4382C30.1475 14.4769 30.1673 14.5213 30.1774 14.5685L30.1731 14.564ZM29.8721 14.0801C29.9785 14.1076 30.0811 14.149 30.1774 14.2032C30.2118 14.168 30.2419 14.1681 30.2634 14.1373C30.3199 14.034 30.4032 13.9487 30.5042 13.8909C30.4517 13.8951 30.3992 13.8828 30.3537 13.8557C30.2892 13.8909 30.2333 13.8908 30.1688 13.9216C30.0641 13.9572 29.9655 14.0092 29.8764 14.0757L29.8721 14.0801ZM30.7364 13.8645C30.702 13.8997 30.6504 13.8997 30.5859 13.8997C30.4254 13.9976 30.3083 14.1552 30.2591 14.3397C30.2394 14.3928 30.241 14.4517 30.2636 14.5036C30.2861 14.5555 30.3278 14.5962 30.3795 14.6169C30.4433 14.6455 30.5152 14.6488 30.5812 14.626C30.6473 14.6032 30.7026 14.556 30.7364 14.4936C30.7364 14.4584 30.7708 14.4585 30.7708 14.4277C30.7487 14.4459 30.7234 14.4594 30.6963 14.4676C30.6691 14.4758 30.6406 14.4785 30.6125 14.4754C30.5844 14.4723 30.5571 14.4636 30.5322 14.4498C30.5073 14.4359 30.4854 14.4172 30.4676 14.3947C30.4317 14.3492 30.4149 14.2909 30.421 14.2327C30.427 14.1745 30.4554 14.1212 30.4999 14.0844C30.5343 14.0844 30.5343 14.0493 30.5644 14.0493C30.6615 13.9853 30.7759 13.9545 30.8912 13.9612C30.8267 13.926 30.7708 13.8733 30.7407 13.8733" fill="white"/>
<path d="M28.7845 16.2803C28.8215 16.1293 28.8719 15.982 28.935 15.8403C29.0855 15.5279 29.3908 14.7623 30.0745 14.6391C30.139 14.6391 30.01 14.4499 29.924 14.4851C29.8368 14.51 29.755 14.5518 29.6832 14.6083V14.4191C29.6832 14.3839 29.6488 14.3839 29.6187 14.3839C29.5344 14.3855 29.4517 14.4081 29.3779 14.4499C29.1439 14.7763 28.9531 15.1329 28.8103 15.5103C28.6598 15.8755 28.5695 15.9987 28.3803 15.9503C28.1911 15.9019 28.1395 15.7039 27.8385 15.7611C27.7213 15.7933 27.6154 15.859 27.5332 15.9503C27.5484 15.9855 27.5755 16.0137 27.6095 16.0299C27.6435 16.0461 27.6821 16.0491 27.7181 16.0383C27.8988 16.0433 28.0752 16.0964 28.2298 16.1923C28.4129 16.2359 28.598 16.2697 28.7845 16.2935V16.2803ZM31.5236 13.8691C31.5443 13.9922 31.5962 14.1075 31.6741 14.2035C31.6741 14.2035 31.4677 15.1935 30.7066 15.2815C30.739 15.1331 30.825 15.0026 30.9474 14.9163C31.1882 14.7623 31.5236 14.5159 31.4892 14.1507C31.4201 14.1918 31.3577 14.2438 31.3043 14.3047C31.1839 14.4587 30.9775 14.8591 30.5862 14.8591C30.6219 14.7358 30.694 14.6266 30.7926 14.5467C30.9704 14.4477 31.1258 14.3112 31.2484 14.1463C31.3034 14.0237 31.3995 13.9254 31.5193 13.8691H31.5236ZM31.1624 17.4947L31.6182 18.1723L31.9751 17.5255L31.8547 17.3143L31.6139 17.7807L31.3086 17.3143L31.1581 17.4903" fill="white"/>
<path d="M31.0461 16.9313L29.9926 15.4001L30.1775 15.2769L29.6357 15.0657V15.6773L29.8206 15.5233L30.93 17.1249L31.0504 16.9357L31.0461 16.9313ZM27.2578 13.3101C27.4083 13.1561 27.6147 13.2749 27.8555 13.5213C28.0963 13.7677 28.2468 13.9613 28.0963 14.1109C27.9458 14.2605 27.7394 14.1461 27.4986 13.9217C27.2578 13.6973 27.1417 13.4817 27.2578 13.3101Z" fill="white"/>
<path d="M27.6447 16.0073C27.5763 15.9472 27.5221 15.872 27.4864 15.7874C27.4506 15.7028 27.4342 15.6109 27.4383 15.5189C27.4311 15.4297 27.442 15.34 27.4704 15.2555C27.4988 15.1709 27.544 15.0932 27.6032 15.0275C27.6624 14.9616 27.7343 14.9091 27.8143 14.8732C27.8944 14.8373 27.9808 14.8188 28.0682 14.8188C28.1556 14.8188 28.2421 14.8373 28.3221 14.8732C28.4021 14.9091 28.474 14.9616 28.5332 15.0275C28.5924 15.0932 28.6377 15.1709 28.666 15.2555C28.6944 15.34 28.7053 15.4297 28.6982 15.5189V15.642C28.7398 15.5268 28.7902 15.415 28.8487 15.3077C28.7912 15.097 28.6557 14.9176 28.4711 14.8075C28.2864 14.6974 28.0671 14.6653 27.8597 14.7181C27.6392 14.7903 27.4555 14.9483 27.348 15.1581C27.3835 14.8854 27.4972 14.6297 27.6748 14.4232C27.7817 14.3389 27.9026 14.2748 28.0317 14.234C27.9215 14.2344 27.8127 14.2097 27.7131 14.1617C27.6135 14.1138 27.5255 14.0438 27.4555 13.9568C27.2845 13.8321 27.1674 13.6445 27.1287 13.4333C27.1554 13.599 27.1329 13.7691 27.0642 13.9216C26.8879 14.2632 26.816 14.651 26.8578 15.0348C26.9396 15.402 27.1285 15.735 27.3996 15.9897C27.4294 16.0227 27.4523 16.0615 27.4671 16.1039C27.4819 16.1462 27.4881 16.1912 27.4856 16.2361H28.0618C28.0618 16.2361 28.1822 16.2361 28.1822 16.1481C28.1822 16.0601 28.1177 16.0601 28.0618 16.0601C27.917 16.0757 27.7706 16.0607 27.6318 16.0161L27.6447 16.0073ZM30.1215 16.1481C29.8392 16.2363 29.552 16.3068 29.2615 16.3593C29.0923 16.3866 28.921 16.3984 28.7498 16.3944V16.4824C28.7613 16.4938 28.7704 16.5074 28.7763 16.5226C28.7822 16.5378 28.7849 16.5541 28.7842 16.5705C28.9654 16.5752 29.1467 16.5635 29.326 16.5353C29.6485 16.4954 29.9641 16.4095 30.2634 16.2801L30.1344 16.1348L30.1215 16.1481ZM30.6246 16.1348C31.0873 15.8912 31.4723 15.5172 31.734 15.0569L31.7985 14.9689C31.7665 14.9855 31.7311 14.9941 31.6953 14.9941C31.6594 14.9941 31.624 14.9855 31.5921 14.9689L31.5577 15.0348C31.2912 15.44 30.9402 15.7797 30.53 16.0293L30.616 16.1393L30.6246 16.1348ZM28.036 16.3153H27.7092C27.6877 16.3087 27.6651 16.3066 27.6429 16.3094C27.6206 16.312 27.5992 16.3194 27.5798 16.331C27.5604 16.3425 27.5436 16.358 27.5304 16.3765C27.5171 16.395 27.5077 16.4161 27.5028 16.4385C27.4684 16.5045 27.5028 16.5617 27.5673 16.6277C27.6318 16.6937 27.6877 16.6629 27.7178 16.6277C27.8413 16.5656 27.9605 16.495 28.0747 16.4165C28.0962 16.3505 28.1306 16.2845 28.0317 16.3153H28.036ZM28.3026 16.4693C28.256 16.4451 28.2043 16.4329 28.1521 16.434C28.0326 16.5005 27.9227 16.5834 27.8253 16.6804C27.7909 16.7464 27.8253 16.7684 27.8898 16.8036C27.9239 16.8308 27.9671 16.8435 28.0102 16.8389C28.0668 16.8376 28.1207 16.8139 28.1607 16.7728C28.1951 16.7376 28.3112 16.5837 28.3456 16.5616C28.3379 16.5294 28.3232 16.4993 28.3026 16.4736V16.4693ZM28.337 16.6277C28.3026 16.6629 28.1865 16.8169 28.1865 16.8169C28.1865 16.8169 28.1865 16.852 28.2209 16.8828H28.2553C28.363 16.8828 28.4687 16.8524 28.5606 16.7948C28.6595 16.7376 28.7455 16.5837 28.6466 16.5485C28.6217 16.532 28.5939 16.521 28.5647 16.5162C28.5355 16.5112 28.5057 16.5125 28.477 16.52C28.4484 16.5274 28.4215 16.5408 28.3982 16.5593C28.3748 16.5778 28.3554 16.6011 28.3413 16.6277H28.337ZM28.4058 16.2273C28.3776 16.2107 28.3458 16.2019 28.3133 16.2019C28.2808 16.2019 28.249 16.2107 28.2209 16.2273C28.1865 16.2933 28.2209 16.3505 28.3069 16.3812C28.3555 16.4113 28.4099 16.43 28.4664 16.4361C28.5229 16.4422 28.58 16.4355 28.6337 16.4165C28.6767 16.3813 28.6122 16.2845 28.4058 16.2273ZM32.852 12.5357C32.8176 12.6237 32.7316 12.8481 32.7015 12.9009C32.6898 12.9814 32.7035 13.0636 32.7406 13.1356C32.7777 13.2076 32.8363 13.2657 32.9079 13.3012C32.9887 13.2513 33.0531 13.1777 33.0928 13.0901C33.1126 13.0504 33.12 13.0054 33.1138 12.9613C33.1076 12.9171 33.0883 12.876 33.0584 12.8437C32.9724 12.7117 32.9079 12.6192 32.852 12.5312V12.5357ZM32.3962 12.9712C32.4059 13.1651 32.4573 13.3544 32.5467 13.5257C32.5924 13.6243 32.6589 13.7114 32.7414 13.7806C32.8239 13.8499 32.9205 13.8995 33.024 13.9261C33.1229 13.9089 33.2161 13.8666 33.2949 13.8029C33.2898 13.7476 33.2698 13.6949 33.2371 13.6506C33.2045 13.6063 33.1605 13.5722 33.11 13.552C32.8264 13.4295 32.5842 13.2245 32.4134 12.9624" fill="white"/>
<path d="M32.9383 13.3936C32.9758 13.3607 33.0161 13.3313 33.0587 13.3056C33.1656 13.3456 33.268 13.3973 33.364 13.4596C33.4887 13.5538 33.5988 13.6665 33.6908 13.794C33.5844 13.8276 33.4705 13.8276 33.364 13.794C33.3406 13.6803 33.2741 13.5806 33.1791 13.5168C33.1447 13.4596 33.0587 13.4288 32.9383 13.3936ZM33.1232 13.2396C33.1859 13.1486 33.2162 13.0384 33.2092 12.9272L33.5661 13.1736C33.6811 13.2633 33.7838 13.3684 33.8714 13.486C33.7545 13.4487 33.6353 13.4193 33.5145 13.398C33.3814 13.3599 33.2582 13.2923 33.1533 13.2L33.1232 13.2396ZM33.5833 13.5432C33.7901 13.6103 34.0013 13.6618 34.2154 13.6972C34.3625 13.7622 34.4955 13.8564 34.6067 13.9744L34.2799 14.0624C34.1683 13.9798 34.0487 13.9091 33.923 13.8512C33.79 13.7739 33.6754 13.6672 33.5876 13.5388L33.5833 13.5432ZM33.88 14.5508C33.8155 14.5156 33.8155 14.4628 33.8456 14.3968C33.8959 14.3236 33.9685 14.2694 34.052 14.2428C34.2369 14.1768 34.4433 14.1196 34.6282 14.0536C34.6604 14.092 34.6892 14.1332 34.7142 14.1768C34.7142 14.212 34.7142 14.2428 34.6497 14.2428H34.2584C34.2372 14.2613 34.2224 14.2862 34.2162 14.314C34.21 14.3418 34.2128 14.3708 34.224 14.3968C34.1682 14.3606 34.1049 14.338 34.0391 14.3308C33.9586 14.3815 33.9001 14.4618 33.8757 14.5552L33.88 14.5508ZM34.1982 14.08C34.0918 14.1076 33.9892 14.149 33.8929 14.2032C33.8762 14.2022 33.8603 14.1949 33.8485 14.1827C33.8366 14.1706 33.8295 14.1544 33.8284 14.1372C33.7719 14.034 33.6885 13.9487 33.5876 13.8908C33.6401 13.8951 33.6926 13.8828 33.7381 13.8556C33.8026 13.8908 33.8585 13.8908 33.923 13.9216C34.0189 13.9621 34.1098 14.0137 34.1939 14.0756L34.1982 14.08ZM33.3339 13.8644C33.3683 13.8996 33.4199 13.8996 33.4844 13.8996C33.6449 13.9975 33.762 14.1552 33.8112 14.3396C33.8309 14.3928 33.8293 14.4517 33.8067 14.5036C33.7842 14.5555 33.7425 14.5962 33.6908 14.6168C33.627 14.6455 33.5551 14.6488 33.4891 14.626C33.423 14.6032 33.3677 14.556 33.3339 14.4936C33.3339 14.4584 33.2995 14.4584 33.2995 14.4276C33.344 14.4644 33.4009 14.4816 33.4578 14.4754C33.5146 14.4692 33.5668 14.4401 33.6027 14.3946C33.6386 14.3492 33.6554 14.2909 33.6493 14.2327C33.6433 14.1746 33.6149 14.1212 33.5704 14.0844C33.536 14.0844 33.536 14.0492 33.5059 14.0492C33.4088 13.9853 33.2944 13.9545 33.1791 13.9612C33.2436 13.926 33.2995 13.8732 33.3296 13.8732L33.3339 13.8644ZM35.3205 16.28C35.2822 16.1289 35.2303 15.9816 35.1657 15.84C35.0152 15.5276 34.7099 14.762 34.0262 14.6388C33.9617 14.6388 34.0907 14.4496 34.1767 14.4848C34.264 14.5097 34.3457 14.5516 34.4175 14.608V14.4188C34.4175 14.3836 34.4519 14.3836 34.482 14.3836C34.5244 14.3764 34.5679 14.3785 34.6094 14.3899C34.651 14.4013 34.6896 14.4217 34.7228 14.4496C34.9612 14.781 35.1549 15.1436 35.299 15.5276C35.4495 15.8928 35.5398 16.016 35.729 15.9676C35.9182 15.9192 35.9999 15.7212 36.2708 15.7784C36.388 15.8107 36.4939 15.8763 36.5761 15.9676C36.5609 16.0028 36.5339 16.031 36.4998 16.0472C36.4658 16.0634 36.4272 16.0664 36.3912 16.0556C36.2105 16.0606 36.0341 16.1137 35.8795 16.2096C35.6846 16.2536 35.4997 16.2874 35.3248 16.3108L35.3205 16.28ZM32.547 13.86C32.5263 13.9831 32.4744 14.0984 32.3965 14.1944C32.3965 14.1944 32.6029 15.1844 33.364 15.2724C33.3316 15.124 33.2456 14.9935 33.1232 14.9072C32.8824 14.7532 32.547 14.5068 32.5814 14.1416C32.6506 14.1827 32.713 14.2347 32.7663 14.2956C32.8867 14.4496 33.0931 14.85 33.4844 14.85C33.4487 14.7267 33.3766 14.6176 33.278 14.5376C33.1002 14.4386 32.9449 14.3021 32.8222 14.1372C32.7641 14.017 32.6689 13.9195 32.5513 13.86H32.547ZM32.0353 14.806C32.157 15.0517 32.3103 15.2797 32.4911 15.4836C32.6115 15.6068 32.9211 15.9236 33.0888 16.0732C32.8247 16.0111 32.5786 15.886 32.3707 15.708C32.27 15.769 32.1592 15.8107 32.0439 15.8312C31.9274 15.8154 31.8158 15.7733 31.7171 15.708C31.5133 15.8922 31.2656 16.0182 30.999 16.0732C31.1495 15.9192 31.4763 15.6068 31.5967 15.4836C31.793 15.298 31.9408 15.065 32.0267 14.806" fill="white"/>
<path d="M32.0351 15.9195C32.1284 15.9134 32.22 15.891 32.306 15.8535C32.2501 15.9984 32.1564 16.1247 32.0351 16.2187C31.9209 16.1176 31.8286 15.9932 31.7642 15.8535C31.8502 15.891 31.9417 15.9134 32.0351 15.9195Z" fill="white"/>
<path d="M32.4266 18.1679L34.2627 15.5543L34.4476 15.7083V15.0967L33.9058 15.3079L34.0907 15.4311L32.4696 17.7675L31.6096 16.2319L31.5236 16.3859L30.8055 17.5211L30.6206 17.3979V18.0095L31.1968 17.7983L31.0119 17.6751L31.644 16.6851L32.4266 18.1635" fill="white"/>
<path d="M32.7534 17.1205L32.4481 16.6321C32.4137 16.7201 32.2976 16.8785 32.2073 17.0985L32.0869 16.8521L32.4438 16.2053L32.5298 16.3593L32.8566 16.9489L32.7491 17.1161L32.7534 17.1205ZM33.1404 17.2701L33.2608 17.4813L33.4457 17.3581V17.9697L32.8695 17.7585L33.0544 17.6353L32.9684 17.5121L33.1404 17.2657V17.2701ZM36.8169 13.3057C36.6664 13.1517 36.46 13.2705 36.2192 13.5169C35.9784 13.7633 35.8279 13.9569 35.9784 14.1065C36.1289 14.2561 36.3353 14.1417 36.5761 13.9173C36.8169 13.6929 36.933 13.4773 36.8169 13.3057Z" fill="white"/>
<path d="M36.4596 16.0076C36.5279 15.9476 36.5821 15.8724 36.6178 15.7878C36.6536 15.7032 36.67 15.6113 36.666 15.5192C36.6529 15.3575 36.5809 15.2066 36.4642 15.0967C36.3475 14.9867 36.1946 14.9257 36.036 14.9257C35.8774 14.9257 35.7246 14.9867 35.6079 15.0967C35.4912 15.2066 35.4191 15.3575 35.4061 15.5192V15.6424C35.3717 15.5764 35.2556 15.33 35.2556 15.308C35.313 15.0974 35.4485 14.918 35.6331 14.8079C35.8178 14.6978 36.0371 14.6657 36.2446 14.7184C36.465 14.7906 36.6488 14.9487 36.7563 15.1584C36.7207 14.8858 36.607 14.6301 36.4295 14.4236C36.3225 14.3393 36.2016 14.2751 36.0726 14.2344C36.1827 14.2347 36.2915 14.21 36.3911 14.1621C36.4907 14.1141 36.5788 14.0441 36.6488 13.9572C36.8223 13.8322 36.9411 13.6427 36.9799 13.4292C36.9532 13.5949 36.9756 13.7651 37.0444 13.9176C37.2206 14.2591 37.2925 14.6469 37.2508 15.0308C37.1689 15.3979 36.98 15.7309 36.709 15.9856C36.6792 16.0186 36.6562 16.0575 36.6414 16.0998C36.6267 16.1422 36.6204 16.1871 36.623 16.232H36.0339C36.0339 16.232 35.9135 16.232 35.9135 16.144C35.9135 16.056 35.978 16.056 36.0339 16.056C36.1786 16.0681 36.3243 16.0532 36.4639 16.012L36.4596 16.0076ZM33.484 16.144C33.0281 15.8906 32.6454 15.5188 32.3746 15.066L32.3101 14.978C32.3421 14.9946 32.3774 15.0033 32.4133 15.0033C32.4491 15.0033 32.4845 14.9946 32.5165 14.978L32.5509 15.044C32.8166 15.4471 33.166 15.7852 33.5743 16.034L33.4883 16.144H33.484ZM33.9183 16.144C34.2005 16.2322 34.4877 16.3028 34.7783 16.3552C34.9475 16.3826 35.1187 16.3943 35.29 16.3904V16.4784C35.2784 16.4897 35.2694 16.5034 35.2634 16.5186C35.2575 16.5338 35.2548 16.5501 35.2556 16.5664C35.0743 16.5712 34.893 16.5594 34.7138 16.5312C34.3987 16.4908 34.0906 16.4064 33.7979 16.2804L33.9269 16.1352L33.9183 16.144ZM36.0038 16.3112H36.3306C36.4187 16.3091 36.5045 16.3405 36.5714 16.3992C36.572 16.4386 36.5647 16.4777 36.5499 16.514C36.5351 16.5503 36.5131 16.5832 36.4854 16.6104C36.4209 16.6456 36.365 16.6456 36.3349 16.6104C36.2114 16.5484 36.0921 16.4778 35.978 16.3992C35.9565 16.3772 35.9221 16.276 36.0124 16.3112H36.0038ZM35.7415 16.4652C35.7991 16.4373 35.8628 16.4252 35.9264 16.43C36.0458 16.4965 36.1557 16.5794 36.2532 16.6764C36.2876 16.7424 36.2532 16.7644 36.1887 16.7996C36.1545 16.8268 36.1113 16.8394 36.0683 16.8348C36.0116 16.8335 35.9577 16.8099 35.9178 16.7688C35.8834 16.7336 35.7673 16.5796 35.7329 16.5576C35.7387 16.5286 35.7387 16.4986 35.7329 16.4696L35.7415 16.4652ZM35.6899 16.6324C35.7243 16.6676 35.8404 16.8216 35.8404 16.8216C35.8404 16.8216 35.8404 16.8568 35.806 16.8876H35.7716C35.6638 16.8876 35.5582 16.8572 35.4663 16.7996C35.3803 16.7336 35.2814 16.5884 35.3803 16.5532C35.4046 16.5354 35.4325 16.5232 35.462 16.5176C35.4915 16.5119 35.5218 16.5129 35.5508 16.5204C35.5799 16.5279 35.607 16.5419 35.6303 16.5612C35.6535 16.5806 35.6724 16.6049 35.6856 16.6324H35.6899ZM35.6211 16.232C35.6492 16.2154 35.681 16.2067 35.7135 16.2067C35.746 16.2067 35.7778 16.2154 35.806 16.232C35.8404 16.298 35.806 16.3552 35.72 16.386C35.6717 16.4169 35.6172 16.4362 35.5606 16.4423C35.5039 16.4484 35.4467 16.4412 35.3932 16.4212C35.3502 16.386 35.4147 16.2892 35.6211 16.232Z" fill="white"/>
<path d="M62.6384 6.46368C62.5524 5.62768 62.1611 5.20528 61.2581 5.20528H60.1186L59.9681 9.92208H60.8281C60.8281 9.92208 60.9141 7.72208 60.9141 7.64288H61.9676C61.9676 7.73088 62.1525 9.92208 62.1525 9.92208H63.0125C62.9781 9.88688 62.6771 6.65288 62.6427 6.46368H62.6384ZM60.9227 6.84208C60.9227 6.75408 60.9571 6.07648 60.9571 5.96208H61.1076C61.7053 5.96208 61.8257 6.08528 61.8902 6.84208H60.9227ZM52.4947 12.9405C52.4087 12.1045 52.0174 11.6821 51.1144 11.6821H49.9749L49.8244 16.3989H50.6844C50.6844 16.3989 50.7704 14.1989 50.7704 14.1197H51.8239C51.8239 14.2077 52.0088 16.3989 52.0088 16.3989H52.8688C52.8344 16.3549 52.5334 13.1165 52.499 12.9405H52.4947ZM50.779 13.3057C50.779 13.2177 50.8134 12.5401 50.8134 12.4257H50.9639C51.5616 12.4257 51.682 12.5489 51.7465 13.3057H50.779ZM46.2339 5.20528V9.91328H47.0939V5.95328H48.1173V9.91328H48.9773V5.20528H46.2339ZM55.1822 6.84208H54.7264C54.5737 6.84882 54.4232 6.80565 54.2964 6.71888C54.2667 6.68584 54.2435 6.64699 54.2289 6.60466C54.2143 6.56229 54.2078 6.51736 54.2104 6.47248V5.20528H53.3504V6.56048C53.3457 6.70806 53.3753 6.85462 53.4372 6.9879C53.4996 7.12118 53.592 7.23716 53.7073 7.32608C53.9472 7.53394 54.253 7.64504 54.5673 7.63848H55.165V9.91768H56.025V5.20528H55.165V6.84208H55.1822ZM56.9495 5.20528V5.97088H57.6461V9.93088H58.5061V5.97088H59.2027V5.20528H56.9495ZM55.7111 11.6337V13.1473H54.5372V11.6381H53.6987V16.3549H54.5372V13.9525H55.7111V16.3549H56.5711V11.6381L55.7111 11.6337ZM47.4723 13.2001H47.081V12.4477H48.5903V11.6821H46.2425V16.3989H47.5325C47.7354 16.4017 47.9363 16.3617 48.1233 16.2811C48.3104 16.2006 48.4789 16.0814 48.6187 15.931C48.7584 15.7806 48.8663 15.6022 48.9351 15.4071C49.0044 15.212 49.0332 15.0044 49.0203 14.7973C48.9859 14.2649 48.8139 13.2177 47.4852 13.2177L47.4723 13.2001ZM47.3648 15.6421C47.2788 15.6421 47.0595 15.6069 47.0595 15.6069V13.9525H47.21C47.64 13.9525 48.1431 13.9173 48.1431 14.7885C48.1431 15.5893 47.6013 15.6465 47.3605 15.6465L47.3648 15.6421ZM52.7441 7.39208C52.7501 6.87095 52.646 6.35461 52.4388 5.87848C52.3442 5.64005 52.1816 5.4362 51.9722 5.29342C51.7628 5.15064 51.5164 5.07548 51.2649 5.07768H51.2305C50.9798 5.0801 50.7356 5.1571 50.527 5.29931C50.3185 5.44152 50.1551 5.64278 50.0566 5.87848C49.8515 6.35527 49.7474 6.87112 49.7513 7.39208V7.54608C49.7405 7.93034 49.7913 8.31384 49.9018 8.68128C50.1426 9.63608 50.65 9.97048 51.2262 10.0013H51.2606C51.8368 10.0013 52.3485 9.66688 52.585 8.68128C52.6779 8.31006 52.7282 7.92915 52.7355 7.54608V7.39208H52.7441ZM50.5855 7.54608C50.5855 6.28768 50.8908 5.85648 51.2176 5.85648C51.5444 5.85648 51.8497 6.29648 51.8497 7.54608C51.8497 8.79568 51.5444 9.20488 51.2176 9.20488C50.8908 9.20488 50.6199 8.76488 50.5855 7.54608ZM60.7292 16.3461L59.7058 13.5741C59.9487 13.3855 60.1229 13.119 60.2003 12.8173C60.2648 12.5049 60.3508 11.6513 60.3508 11.6513H59.4908C59.4908 11.7393 59.4564 12.0165 59.4263 12.3289C59.3919 12.7953 59.2414 13.2089 58.8286 13.2089H58.5233V11.6601H57.6633V16.3549H58.5233V13.9525H59.035L59.895 16.3549L60.7292 16.3461Z" fill="white"/>
</svg>
