<svg width="86" height="21" viewBox="0 0 86 21" fill="none" xmlns="http://www.w3.org/2000/svg">
<g clip-path="url(#clip0_19_995)">
<path d="M42.5518 13.2891H43.6661C44.235 13.2891 44.6362 13.5737 44.6362 14.0767C44.6362 14.3613 44.4956 14.606 44.2565 14.7308V14.7396C44.6005 14.8382 44.7639 15.149 44.7639 15.4586C44.7639 16.0702 44.2617 16.3449 43.6842 16.3449H42.5518V13.2891ZM43.67 14.5373C43.9168 14.5373 44.0574 14.3651 44.0574 14.1454C44.0574 13.9257 43.9207 13.7671 43.6609 13.7671H43.1191V14.5373H43.67ZM43.7276 15.868C44.0187 15.868 44.1812 15.6833 44.1812 15.4248C44.1812 15.1715 44.014 14.9855 43.7276 14.9855H43.1191V15.868H43.7276ZM46.3231 14.0992C46.6271 14.0992 46.9711 14.1978 47.1869 14.4263L46.9354 14.8007C46.7948 14.6634 46.5738 14.5636 46.3536 14.5636C45.9395 14.5636 45.6699 14.8694 45.6699 15.2439C45.6699 15.6146 45.9382 15.9329 46.3704 15.9329C46.6082 15.9329 46.8636 15.8118 47.0313 15.6533L47.2471 16.0403C47.0352 16.2599 46.6834 16.3973 46.3218 16.3973C45.5766 16.3973 45.1014 15.8855 45.1014 15.2476C45.1027 14.6235 45.5792 14.0992 46.3231 14.0992ZM48.5978 14.0992C49.2406 14.0992 49.5937 14.5598 49.5937 15.1403C49.5937 15.2089 49.5846 15.2826 49.5756 15.3512H48.0293C48.065 15.7344 48.3639 15.9329 48.704 15.9329C48.9327 15.9329 49.1667 15.8343 49.3468 15.692L49.5666 16.084C49.3378 16.2824 48.9852 16.3985 48.6631 16.3985C47.9179 16.3985 47.4514 15.873 47.4514 15.2489C47.4527 14.5723 47.9244 14.0992 48.5978 14.0992ZM47.9549 13.2891H48.3871V13.7884H47.9549V13.2891ZM49.0351 14.9767C49.0312 14.6834 48.8369 14.5124 48.5853 14.5124C48.2989 14.5124 48.0955 14.6971 48.0431 14.9767H49.0351ZM48.7655 13.2891H49.1933V13.7884H48.7655V13.2891ZM51.164 14.1504H53.2138V16.3461H52.6544V14.616H51.7239V16.3461H51.164V14.1504ZM53.8094 14.1504H54.3206V14.3139C54.3206 14.3963 54.3116 14.4687 54.3116 14.4687H54.3206C54.4664 14.2315 54.7399 14.0979 55.0439 14.0979C55.6524 14.0979 56.0398 14.5673 56.0398 15.2476C56.0398 15.9454 55.6038 16.3973 55.0121 16.3973C54.7567 16.3973 54.5227 16.2849 54.3641 16.0877H54.355C54.355 16.0877 54.3679 16.1651 54.3679 16.2774V17.2074H53.8081V14.1504H53.8094ZM54.911 15.9367C55.2193 15.9367 55.4748 15.6907 55.4748 15.2563C55.4748 14.8394 55.246 14.5673 54.9188 14.5673C54.6238 14.5673 54.3503 14.7745 54.3503 15.2601C54.3516 15.6009 54.5455 15.9367 54.911 15.9367ZM57.6003 14.0992C58.2878 14.0992 58.8382 14.5773 58.8382 15.2489C58.8382 15.9242 58.2878 16.3985 57.6037 16.3985C56.92 16.3985 56.3692 15.9254 56.3692 15.2489C56.3705 14.576 56.9213 14.0992 57.6003 14.0992ZM57.6037 15.9329C57.9692 15.9329 58.2736 15.657 58.2736 15.2489C58.2736 14.8444 57.9692 14.5648 57.6037 14.5648C57.2382 14.5648 56.9381 14.8444 56.9381 15.2489C56.9393 15.657 57.2382 15.9329 57.6037 15.9329ZM59.2884 14.1504H59.8212V15.8805H60.5217V14.1504H61.0544V15.8805H61.7549V14.1504H62.2877V15.8805H62.6046V16.8616H62.1024V16.3449H59.2859V14.1504H59.2884ZM63.9939 14.0992C64.6368 14.0992 64.9894 14.5598 64.9894 15.1403C64.9894 15.2089 64.9803 15.2826 64.9713 15.3512H63.425C63.4607 15.7344 63.76 15.9329 64.0997 15.9329C64.3285 15.9329 64.5624 15.8343 64.7426 15.692L64.9627 16.084C64.734 16.2824 64.3809 16.3985 64.0589 16.3985C63.3141 16.3985 62.8475 15.873 62.8475 15.2489C62.8475 14.5723 63.3193 14.0992 63.9939 14.0992ZM64.4295 14.9767C64.4256 14.6834 64.2317 14.5124 63.9797 14.5124C63.6934 14.5124 63.4904 14.6971 63.4379 14.9767H64.4295Z" fill="white"/>
<path d="M52.1722 4.52496V10.8325C52.1722 10.9273 52.0943 11.0035 51.9971 11.0035H50.6783C50.5812 11.0035 50.5033 10.9273 50.5033 10.8325V4.52496C50.5033 4.43013 50.5812 4.35398 50.6783 4.35398H51.9971C52.0943 4.35398 52.1722 4.43013 52.1722 4.52496ZM62.4509 4.35398H60.9751C60.8981 4.35398 60.8293 4.40266 60.8074 4.47381L59.6395 8.20114L58.3564 4.47007C58.3319 4.40014 58.2657 4.35398 58.1904 4.35398H57.1602C57.0849 4.35398 57.017 4.4014 56.9942 4.47007L55.7111 8.20114L54.5427 4.47381C54.52 4.40266 54.452 4.35398 54.3755 4.35398H52.8993C52.843 4.35398 52.7896 4.38019 52.7574 4.42513C52.7243 4.46881 52.7152 4.52622 52.7333 4.57864L54.9005 10.8886C54.925 10.9585 54.9912 11.0047 55.0669 11.0047H56.2387C56.3143 11.0047 56.3819 10.9573 56.4051 10.8886L57.6766 7.2025L58.9481 10.8886C58.9722 10.9585 59.0388 11.0047 59.1141 11.0047H60.2863C60.3615 11.0047 60.4294 10.9573 60.4522 10.8886L62.6199 4.57864C62.6375 4.52748 62.6289 4.47007 62.5954 4.42513C62.561 4.38019 62.5072 4.35398 62.4509 4.35398ZM64.671 4.35398H63.3521C63.255 4.35398 63.1771 4.43013 63.1771 4.52496V10.8325C63.1771 10.9273 63.255 11.0035 63.3521 11.0035H64.671C64.7681 11.0035 64.846 10.9273 64.846 10.8325V4.52496C64.846 4.43013 64.7681 4.35398 64.671 4.35398ZM49.7388 10.7875C49.8158 10.8712 49.753 11.0047 49.6369 11.0047H48.0201C47.9547 11.0047 47.8924 10.976 47.8502 10.9261L47.5767 10.604C47.0182 10.9573 46.3534 11.1633 45.6405 11.1633C43.6723 11.1633 42.0723 9.59919 42.0723 7.67811C42.0723 5.75703 43.6736 4.19293 45.6405 4.19293C47.6086 4.19293 49.2086 5.75703 49.2086 7.67811C49.2086 8.3709 49 9.01623 48.641 9.55925L49.7388 10.7875ZM46.5349 9.38197L45.8271 8.55062C45.7527 8.46326 45.8168 8.33096 45.932 8.33096H47.4129C47.4834 8.12621 47.523 7.90655 47.523 7.67933C47.523 6.63706 46.7292 5.73956 45.6392 5.73956C44.5491 5.73956 43.7553 6.63828 43.7553 7.67933C43.7553 8.72038 44.5491 9.60667 45.6392 9.60667C45.9716 9.60667 46.273 9.52426 46.5349 9.38197ZM36.7699 14.6784C36.8274 15.0554 36.706 15.2114 36.5833 15.2114C36.4504 15.2114 36.2817 15.0591 36.0849 14.757C35.8893 14.4599 35.8191 14.1191 35.9149 13.9456C35.9788 13.832 36.113 13.7821 36.2817 13.8446C36.6076 13.9656 36.7354 14.4537 36.7699 14.6784ZM34.9641 15.4997C35.3552 15.823 35.474 16.2075 35.267 16.4784C35.152 16.6269 34.9654 16.7093 34.7417 16.7093C34.5219 16.7093 34.2983 16.6294 34.1436 16.4971C33.7884 16.1938 33.6836 15.7007 33.9162 15.4211C34.0069 15.3112 34.1539 15.2513 34.3315 15.2513C34.5462 15.2513 34.7711 15.34 34.9641 15.4997ZM34.3098 18.6192C35.9954 18.6192 37.8242 19.1834 39.8486 20.936C40.0517 21.1119 40.3214 20.8935 40.1451 20.6751C38.1552 18.2209 36.3149 17.7541 34.4798 17.3597C32.2356 16.8766 31.0803 15.6433 30.2752 14.2877C30.1154 14.0181 30.0438 14.0655 30.0285 14.4125C30.0106 14.8357 30.0413 15.3974 30.1384 15.9479C30.0477 15.9516 29.9569 15.9503 29.8649 15.9503C26.6533 15.9503 24.0501 13.4076 24.0501 10.2707C24.0501 7.13383 26.6533 4.59115 29.8649 4.59115C33.0765 4.59115 35.6798 7.13383 35.6798 10.2707C35.6798 10.4942 35.6683 10.7151 35.6427 10.9311C35.2184 10.8562 34.3826 10.8474 33.796 10.8974C33.5749 10.9161 33.6069 11.016 33.773 11.0459C35.6951 11.3855 37.0153 12.5489 37.3181 14.6596C37.3246 14.7083 37.3897 14.7233 37.4153 14.6809C38.2064 13.3914 38.66 11.8835 38.66 10.2707C38.6626 5.52733 34.7238 1.68018 29.8662 1.68018C25.0086 1.68018 21.0698 5.52733 21.0698 10.272C21.0698 15.0166 25.0086 18.8638 29.8662 18.8638C31.1544 18.8638 32.4337 18.6192 34.3098 18.6192Z" fill="#FF8C00"/>
</g>
<defs>
<clipPath id="clip0_19_995">
<rect width="86" height="21" fill="white"/>
</clipPath>
</defs>
</svg>
