<svg width="86" height="21" viewBox="0 0 86 21" fill="none" xmlns="http://www.w3.org/2000/svg">
<path d="M10.3716 3.83057H23.8693V17.0144H10.3716V3.83057Z" fill="#FFED00"/>
<path d="M40.2179 11.8397L39.8696 13.9397H41.968L42.3163 11.8397H43.86L42.914 17.4887H41.3832L41.7831 15.0653H39.6847L39.2848 17.4887H37.7368L38.7 11.8397H40.2351H40.2179ZM46.3325 11.8397H44.72L43.7525 17.4887H45.3349L45.7649 15.0485L47.3989 17.5055H49.45L47.3 14.5277L50.181 11.8565H48.246L45.9283 14.1833L46.3325 11.8397ZM35.3675 15.3719L35.0321 13.5659L34.0646 15.3719H35.3675ZM35.5997 16.4933H33.4153L32.8348 17.4719H31.1492L34.4473 11.8229H36.1673L37.5003 17.4719H35.819L35.5997 16.4933ZM31.4502 15.7751C31.4047 16.1546 31.2429 16.5118 30.9858 16.7999C30.3709 17.4173 29.4378 17.4509 28.8358 17.4677H26.5181L27.52 11.8397H31.4674L31.2825 12.9443H28.8874L28.7025 14.0657H29.3862C29.969 14.0259 30.5475 14.188 31.0202 14.5235C31.1978 14.6789 31.3308 14.8768 31.4063 15.0978C31.4816 15.3187 31.4968 15.5551 31.4502 15.7835V15.7751ZM28.9519 15.1199H28.5219L28.3069 16.3253H28.7068C29.6055 16.3253 29.7904 16.0817 29.842 15.7541C29.8936 15.4265 29.842 15.1199 28.9433 15.1199H28.9519ZM68.9333 6.60646H70.5329C70.4963 6.43208 70.3974 6.27597 70.2542 6.16601C70.111 6.05601 69.9326 5.99927 69.7503 6.00586C69.5615 5.98705 69.3727 6.03846 69.2214 6.1498C69.07 6.26114 68.9668 6.42423 68.9333 6.60646ZM71.81 7.24906V7.39606H68.9118C68.898 7.50963 68.9105 7.6248 68.9492 7.73282C68.9874 7.84089 69.0502 7.93908 69.1332 8.01993C69.2158 8.10078 69.3164 8.16227 69.4269 8.19969C69.5374 8.23716 69.6557 8.24959 69.7718 8.23606C69.9042 8.24707 70.0371 8.21889 70.1527 8.15521C70.2684 8.09154 70.3622 7.99532 70.4211 7.87906H71.7541C71.5391 8.79046 70.6705 9.19786 69.789 9.19786C68.499 9.19786 67.5401 8.48386 67.5401 7.14826C67.5237 6.8706 67.5685 6.59273 67.6717 6.33342C67.7744 6.07411 67.9335 5.83942 68.1369 5.64517C68.3407 5.45088 68.585 5.30157 68.8529 5.20732C69.1208 5.11303 69.4063 5.07598 69.6901 5.09866C71.0403 5.09866 71.8057 5.93866 71.8057 7.24906H71.81ZM33.583 6.22426C33.4646 6.21843 33.3463 6.23657 33.2355 6.27748C33.1247 6.31843 33.0237 6.38126 32.9389 6.46211C32.8541 6.54296 32.7874 6.64002 32.7428 6.74729C32.6982 6.85452 32.6768 6.96955 32.68 7.08526C32.677 7.19913 32.6978 7.31236 32.741 7.41816C32.7843 7.52391 32.8491 7.61997 32.9316 7.70052C33.014 7.78104 33.1124 7.84437 33.2207 7.88658C33.329 7.92883 33.4449 7.94916 33.5615 7.94626C33.6792 7.95366 33.7972 7.93648 33.9076 7.89582C34.018 7.85517 34.1182 7.792 34.2016 7.71052C34.285 7.62904 34.3497 7.53114 34.3913 7.42332C34.4329 7.31551 34.4505 7.20026 34.443 7.08526C34.4459 6.9714 34.4251 6.85817 34.3819 6.75237C34.3386 6.64662 34.2738 6.55056 34.1913 6.47001C34.1089 6.38949 34.0106 6.32616 33.9022 6.28395C33.794 6.24169 33.678 6.22137 33.5615 6.22426H33.583ZM35.776 5.16586V9.00886H34.4V8.58886C34.2698 8.77018 34.0945 8.91621 33.8907 9.01319C33.6868 9.11017 33.4611 9.15494 33.2347 9.14326C32.9679 9.13688 32.7052 9.07837 32.462 8.97127C32.2187 8.86413 31.9999 8.71054 31.8183 8.51956C31.6368 8.32855 31.4963 8.10397 31.405 7.85911C31.3137 7.61421 31.2735 7.35394 31.2868 7.09366C31.2723 6.83427 31.3111 6.57467 31.4008 6.33015C31.4906 6.08558 31.6295 5.86105 31.8093 5.6697C31.9893 5.47834 32.2065 5.32404 32.4483 5.21589C32.6901 5.10774 32.9516 5.04789 33.2175 5.03986C33.4398 5.03478 33.6607 5.07682 33.8648 5.16309C34.069 5.2494 34.2515 5.37784 34.4 5.53966V5.16586H35.776ZM55.9215 6.22426C55.8049 6.22137 55.6888 6.24169 55.5805 6.28395C55.4726 6.32616 55.3741 6.38949 55.2915 6.47001C55.209 6.55056 55.1445 6.64662 55.101 6.75237C55.0576 6.85817 55.037 6.9714 55.04 7.08526C55.037 7.19913 55.0576 7.31236 55.101 7.41816C55.1445 7.52391 55.209 7.61997 55.2915 7.70052C55.3741 7.78104 55.4726 7.84437 55.5805 7.88658C55.6888 7.92883 55.8049 7.94916 55.9215 7.94626C56.0393 7.95366 56.1571 7.93648 56.2676 7.89582C56.3781 7.85517 56.4783 7.792 56.5617 7.71052C56.6452 7.62904 56.7097 7.53114 56.7514 7.42332C56.7931 7.31551 56.8107 7.20026 56.803 7.08526C56.806 6.9714 56.7853 6.85817 56.7419 6.75237C56.6985 6.64662 56.634 6.55056 56.5514 6.47001C56.4689 6.38949 56.3704 6.32616 56.2625 6.28395C56.1541 6.24169 56.038 6.22137 55.9215 6.22426ZM58.1231 5.16586V9.00886H56.76V8.58886C56.6297 8.77018 56.4547 8.91621 56.2508 9.01319C56.047 9.11017 55.8213 9.15494 55.5947 9.14326C55.3281 9.13688 55.0653 9.07837 54.822 8.97127C54.5786 8.86413 54.3597 8.71054 54.1783 8.51956C53.9968 8.32855 53.8562 8.10397 53.765 7.85911C53.6739 7.61421 53.6334 7.35394 53.6468 7.09366C53.633 6.83427 53.6721 6.5748 53.7624 6.33044C53.8527 6.08613 53.9921 5.86189 54.1727 5.67096C54.3528 5.47998 54.5704 5.32618 54.8125 5.21853C55.0542 5.11084 55.316 5.05154 55.5818 5.04406C55.8075 5.03705 56.0315 5.07855 56.2392 5.16565C56.4465 5.25272 56.6314 5.3833 56.7815 5.54806V5.16586H58.1231ZM26.7331 9.00886V3.35986H29.068C30.6332 3.35986 31.0847 4.45186 31.0847 5.21626C31.0956 5.47347 31.0501 5.72997 30.9512 5.96857C30.8523 6.20717 30.7024 6.42238 30.5114 6.59979C30.3204 6.77715 30.0929 6.9126 29.8439 6.99706C29.5949 7.08153 29.3304 7.11303 29.068 7.08946H28.208V9.00886H26.7331ZM28.2166 4.58206V5.87986H28.7154C29.3991 5.87986 29.4636 5.45986 29.4636 5.24566C29.4636 5.03146 29.3647 4.61146 28.7154 4.61146H28.2854L28.2338 4.58206H28.2166ZM36.6489 5.17006V9.01306H37.9819L39.3493 6.91306V9.01306H40.7339V5.16586H39.4009L38.0335 7.23226V5.16586L36.6489 5.17006ZM38.7989 4.68286C39.1233 4.70836 39.4477 4.63524 39.728 4.47362C40.0082 4.31196 40.2303 4.06964 40.3641 3.77986L39.4654 3.45226C39.432 3.59323 39.3483 3.71798 39.2293 3.80417C39.1104 3.89037 38.9639 3.93237 38.8161 3.92266C38.6679 3.93414 38.5205 3.89281 38.4012 3.80633C38.2818 3.71985 38.1985 3.59407 38.1668 3.45226L37.2681 3.77986C37.4036 4.06411 37.6239 4.30167 37.9002 4.46131C38.1765 4.621 38.4958 4.6953 38.8161 4.67446L38.7989 4.68286ZM43.5805 10.6805V9.07186C42.7635 9.07186 41.3961 8.74426 41.3961 7.08526C41.3961 5.42626 42.7463 5.11546 43.5805 5.11546V3.43546H44.9651V5.11546C45.7993 5.11546 47.1151 5.44306 47.1151 7.08526C47.1151 8.72746 45.7649 9.07186 44.9651 9.07186V10.7015L43.5805 10.6805ZM44.8705 6.06046V8.19406C45.3392 8.19406 45.8036 7.86646 45.8036 7.11886C45.8036 6.37126 45.3349 6.04366 44.8705 6.06046ZM43.6708 8.16046V6.06046C43.2021 6.06046 42.7377 6.38806 42.7377 7.13566C42.7377 7.88326 43.2064 8.19406 43.6708 8.17726V8.16046ZM49.7854 10.6973V9.07186C48.9684 9.07186 47.601 8.74426 47.601 7.08526C47.601 5.42626 48.9512 5.11546 49.7854 5.11546V3.43546H51.17V5.11546C52.0042 5.11546 53.3544 5.44306 53.3544 7.08526C53.3544 8.72746 52.0042 9.07186 51.17 9.07186V10.7015H49.7854V10.6973ZM51.0754 6.07726V8.21086C51.5441 8.21086 52.0085 7.88326 52.0085 7.13566C52.0085 6.38806 51.5398 6.06046 51.0754 6.07726ZM49.8585 8.17726V6.07726C49.3898 6.07726 48.9082 6.40486 48.9082 7.15246C48.8953 7.28376 48.9112 7.41614 48.9546 7.54105C48.9976 7.66596 49.0677 7.78053 49.1593 7.87726C49.2509 7.97398 49.3627 8.05072 49.4869 8.10242C49.6112 8.15412 49.7449 8.17962 49.88 8.17726H49.8585ZM59.0261 5.16586V9.00886H60.3591L61.7265 6.90886V9.00886H63.1111V5.16586H61.7781L60.3935 7.21546V5.16586H59.0261ZM61.1761 4.67866C61.4951 4.69828 61.8125 4.62289 62.0868 4.46236C62.3607 4.30188 62.5787 4.06388 62.7112 3.77986L61.8125 3.45226C61.7789 3.59323 61.6955 3.71798 61.5764 3.80417C61.4573 3.89037 61.3111 3.93237 61.1632 3.92266C61.0148 3.93598 60.8665 3.89537 60.7465 3.80859C60.627 3.72181 60.544 3.59495 60.5139 3.45226L59.6109 3.77986C59.7463 4.06411 59.9669 4.30167 60.243 4.46131C60.5195 4.621 60.8385 4.6953 61.1589 4.67446L61.1761 4.67866ZM64.1431 6.27046C64.4419 6.06828 64.7945 5.95454 65.1579 5.94286C65.3256 5.94286 65.7083 5.97646 65.7083 6.28306C65.7083 6.58966 65.3729 6.61066 65.2439 6.61066H64.5602V7.45066H65.1622C65.3643 7.45066 65.7298 7.45066 65.7298 7.77826C65.7298 7.90846 65.6481 8.15206 65.1622 8.15206C64.7403 8.1511 64.3284 8.02678 63.9797 7.79506L63.64 8.71486C64.1775 9.01626 64.7876 9.17279 65.4073 9.16846C66.9897 9.16846 67.1918 8.27386 67.1918 7.97986C67.1935 7.75563 67.1144 7.53798 66.9682 7.36515C66.8215 7.19228 66.6177 7.07535 66.392 7.03486C66.567 6.958 66.7145 6.83175 66.816 6.67232C66.917 6.51293 66.9669 6.32767 66.9596 6.14026C66.9596 5.24566 65.9921 5.06506 65.3944 5.06506C64.8341 5.07519 64.2828 5.20266 63.7776 5.43886L64.1431 6.27046ZM72.5066 9.00466H73.8912V7.47586H75.1597V9.00466H76.54V5.16586H75.1554V6.51826H73.8869V5.16586H72.5023L72.5066 9.00466Z" fill="white"/>
<path d="M24.3381 17.4719H9.89014V3.35986H24.3381V17.4719ZM23.8694 3.83026H10.3717V17.0141H23.8694V3.83026Z" fill="black"/>
<path d="M17.1228 12.0331L12.9733 16.0861L11.3221 14.4733L15.4802 10.4245L14.6202 9.5845V7.9045L14.0182 7.3165V8.7655L13.5022 9.2695L11.3866 7.2367L10.8706 7.7407C10.8734 7.28916 10.9676 6.84261 11.1476 6.42673C11.3277 6.01084 11.5901 5.63381 11.9198 5.3173C12.238 4.96899 12.6836 4.75668 13.1604 4.72602C13.6374 4.6954 14.1075 4.84891 14.4697 5.1535L16.5681 7.2199L16.0349 7.7407L17.1228 8.8201L18.2236 7.7449L17.6904 7.2241L19.7802 5.1493C20.1419 4.84366 20.6123 4.68948 21.0896 4.72014C21.5668 4.7508 22.0125 4.96383 22.3301 5.3131C22.6598 5.62961 22.9222 6.00664 23.1023 6.42253C23.2823 6.83841 23.3765 7.28496 23.3793 7.7365L22.8633 7.2325L20.7477 9.2821L20.2317 8.7781V7.3165L19.634 7.9045V9.5845L18.774 10.4245L22.9235 14.4775L21.2723 16.0861L17.1228 12.0331Z" fill="black"/>
</svg>
