<svg width="86" height="22" viewBox="0 0 86 22" fill="none" xmlns="http://www.w3.org/2000/svg">
<path d="M8.6001 4.3999H21.1733V10.9647H8.6001V4.3999Z" fill="#E7002A"/>
<path d="M29.24 10.8065C29.3707 10.8141 29.5015 10.7934 29.6238 10.7457C29.7462 10.698 29.8573 10.6244 29.9498 10.5297C30.0424 10.4349 30.1144 10.3212 30.161 10.1961C30.2076 10.0709 30.2278 9.93703 30.2204 9.80327C30.2331 9.65574 30.2153 9.5071 30.168 9.3671C30.1207 9.22713 30.0451 9.09892 29.9461 8.99094C29.847 8.88292 29.7268 8.79756 29.5932 8.7404C29.4597 8.68325 29.3159 8.65557 29.1712 8.65927H26.4708V10.7889L29.24 10.8065ZM29.1884 7.62087C29.4799 7.59671 29.773 7.63649 30.0483 7.73751C30.3236 7.83858 30.5746 7.99856 30.7846 8.20677C30.9946 8.41502 31.1588 8.6667 31.2661 8.94505C31.3735 9.22339 31.4216 9.52198 31.4072 9.82087C31.4072 11.1409 30.5472 11.8977 29.1884 11.8977H26.488V14.0449H25.3184V7.62087H29.1884ZM35.7072 8.50087C34.2624 8.50087 33.2648 9.50407 33.2648 10.8065C33.2648 12.1089 34.2108 13.1121 35.7072 13.1121C37.2036 13.1121 38.1324 12.1265 38.1324 10.8065C38.1324 9.48647 37.2036 8.50087 35.7072 8.50087ZM35.7072 14.1857C33.712 14.1857 32.0608 12.8305 32.0608 10.8065C32.0608 8.78247 33.712 7.40967 35.7072 7.40967C37.7024 7.40967 39.3536 8.80007 39.3536 10.8241C39.3536 12.8481 37.7368 14.2033 35.7244 14.2033L35.7072 14.1857ZM44.1696 14.2033C42.0712 14.2033 40.4888 12.8481 40.4888 10.8065C40.4888 8.76487 42.0884 7.42727 44.1696 7.42727C45.2209 7.39876 46.2512 7.73355 47.0936 8.37767L46.4744 9.32807C45.8349 8.80649 45.039 8.52674 44.2212 8.53607C42.6904 8.53607 41.7444 9.52167 41.7444 10.8065C41.7444 12.0913 42.7076 13.0769 44.2384 13.0769C45.07 13.0913 45.8818 12.8185 46.5432 12.3025L47.1624 13.2001C46.2968 13.8657 45.2342 14.2074 44.1524 14.1681L44.1696 14.2033ZM57.62 11.4401H60.028L58.8412 8.80007L57.62 11.4401ZM57.1384 12.4785L56.416 14.0273H55.1604L58.2048 7.62087H59.426L62.4876 14.0273H61.232L60.5096 12.4785H57.1384ZM68.628 14.0449V11.2817H64.5344V14.0273H63.382V7.62087H64.5344V10.2257H68.628V7.62087H69.7976V14.0273L68.628 14.0449ZM71.5176 14.0449V7.62087H72.67V10.5953L75.8176 7.62087H77.2452L74.0116 10.7009L77.4 14.0273H75.8348L72.67 10.9121V14.0273L71.5176 14.0449ZM52.3912 12.9537H49.6048V11.0001H52.3912C53.1136 11.0001 53.5264 11.3873 53.5264 11.9681C53.5264 12.5489 53.1996 12.9361 52.3912 12.9361V12.9537ZM52.3224 9.94407H49.6048V8.60647H54.0768V7.60327H48.4352V14.0097H52.3052C53.664 14.0097 54.61 13.2529 54.61 11.9857C54.61 10.7185 53.664 9.96167 52.3052 9.96167" fill="white"/>
<path d="M8.6001 10.8418H21.1733V17.2834H8.6001V10.8418Z" fill="black"/>
<path d="M10.7842 10.437H18.9542V11.229H10.7842V10.437Z" fill="white"/>
</svg>
