<svg width="86" height="22" viewBox="0 0 86 22" fill="none" xmlns="http://www.w3.org/2000/svg">
<path d="M38.9148 8.58031L40.5488 7.34831H35.1308V14.6523H40.5488V13.4203H36.6788V11.5723H39.9468V10.3403H36.6788V8.58031H38.9148ZM32.1638 8.58031L33.7978 7.34831H27.6058V14.6523H30.8308C32.6368 14.6523 33.6688 13.8163 33.6688 12.3643C33.6688 10.9563 32.7228 10.2083 31.0028 10.2083H29.1108V8.58031H32.1638ZM30.7878 11.3963C31.7768 11.3963 32.2068 11.7483 32.2068 12.4083C32.2068 13.0683 31.7338 13.4203 30.7878 13.4203H29.1538V11.3963H30.7878ZM44.8918 7.34831H41.9678V14.6523H43.5158V12.5843H44.9348C46.8268 12.5843 47.9878 11.5723 47.9878 9.94431C47.9878 8.31631 46.7838 7.34831 44.8918 7.34831ZM44.8918 11.3523H43.5158V8.53631H44.8918C45.8808 8.53631 46.4398 9.02031 46.4398 9.94431C46.3968 10.8683 45.8808 11.3523 44.8918 11.3523ZM24.9828 13.0683C24.5528 13.2883 24.1228 13.4203 23.6498 13.4203C22.2738 13.4203 21.2418 12.4083 21.2418 11.0003C21.2418 9.59231 22.2308 8.58031 23.6498 8.58031C24.1658 8.58031 24.6388 8.75631 25.0688 9.02031L26.1868 8.18431L26.1008 8.09631C25.4558 7.52431 24.5958 7.21631 23.6068 7.21631C22.5318 7.21631 21.5858 7.56831 20.8548 8.27231C20.1668 8.97631 19.7368 9.94431 19.7798 10.9563C19.7798 11.9683 20.1668 12.9363 20.8548 13.6843C21.5858 14.3883 22.5748 14.7843 23.5638 14.7403C24.6818 14.7403 25.6278 14.3443 26.3158 13.6403L25.3268 12.8923L24.9828 13.0683ZM71.3798 10.3403H68.0688V7.34831H66.5208V14.6523H68.0688V11.6603H71.3798V14.6523H72.9278V7.34831H71.3798V10.3403ZM60.9308 7.34831L57.8348 14.6523H59.3828L59.9848 13.2003H63.2528L63.8548 14.6523H65.4888L62.4788 7.34831H60.9308ZM60.5008 11.9683L61.7048 9.02031L62.8228 11.9683H60.5008ZM78.5178 10.8683L81.3128 7.34831H79.5498L77.2278 10.4723H76.3678V7.34831H74.8198V14.6523H76.3678V11.7043H77.3568L79.7218 14.6523H81.6998L78.5178 10.8683ZM54.6098 10.2083H52.7178V8.58031H56.7598V7.34831H51.1698V14.6523H54.3948C56.2008 14.6523 57.2328 13.8163 57.2328 12.3643C57.2758 10.9563 56.3298 10.2083 54.6098 10.2083ZM54.3518 13.4643H52.7178V11.4403H54.3518C55.3408 11.4403 55.7708 11.7923 55.7708 12.4523C55.8138 13.1123 55.2978 13.4643 54.3518 13.4643Z" fill="#21A038"/>
<path d="M14.8264 7.20752C15.1056 7.5818 15.3419 7.98842 15.5306 8.41922L10.1776 12.5113L7.94043 11.057V9.30741L10.1776 10.7617L14.8264 7.20752Z" fill="#21A038"/>
<path d="M5.65744 10.9338C5.65744 10.8553 5.65929 10.7773 5.66298 10.6998L4.30719 10.6309C4.30257 10.7314 4.29981 10.8328 4.29981 10.9352C4.29923 11.7353 4.45098 12.5276 4.74636 13.2667C5.04174 14.0058 5.47493 14.6771 6.02108 15.2422L6.98277 14.2454C6.56237 13.8112 6.22886 13.2951 6.00141 12.7267C5.77396 12.1584 5.65707 11.5491 5.65744 10.9338Z" fill="url(#paint0_linear_19_1034)"/>
<path d="M10.1765 6.24728C10.2522 6.24728 10.3274 6.25016 10.4021 6.25398L10.47 4.84751C10.3728 4.84273 10.275 4.84034 10.1765 4.84034C9.40464 4.83936 8.64022 4.9965 7.9271 5.30274C7.21398 5.60899 6.56621 6.05829 6.021 6.62486L6.98269 7.62217C7.40142 7.18605 7.89915 6.84007 8.44726 6.60412C8.99538 6.36817 9.58304 6.24689 10.1765 6.24728Z" fill="url(#paint1_linear_19_1034)"/>
<path d="M10.1768 15.62C10.1011 15.62 10.0258 15.62 9.95065 15.6138L9.88281 17.0198C9.98033 17.0249 10.0783 17.0274 10.1768 17.0274C10.9483 17.0283 11.7124 16.871 12.4251 16.5647C13.1378 16.2584 13.7852 15.809 14.33 15.2424L13.3701 14.2456C12.9513 14.6815 12.4536 15.0273 11.9056 15.2631C11.3576 15.499 10.7701 15.6203 10.1768 15.62Z" fill="url(#paint2_linear_19_1034)"/>
<path d="M12.724 7.06513L13.8666 6.19176C12.8222 5.3148 11.5186 4.83741 10.1748 4.83985V6.24728C11.0848 6.24611 11.9736 6.53128 12.724 7.06513Z" fill="url(#paint3_linear_19_1034)"/>
<path d="M16.0529 10.9339C16.0536 10.5677 16.0228 10.2022 15.9606 9.8418L14.6957 10.8085C14.6957 10.8501 14.6957 10.8918 14.6957 10.9339C14.6961 11.5887 14.5637 12.2362 14.3073 12.8346C14.0508 13.4329 13.6759 13.9687 13.207 14.4072L14.1194 15.4529C14.729 14.8821 15.2161 14.1849 15.5492 13.4065C15.8823 12.6279 16.0539 11.7855 16.0529 10.9339Z" fill="#21A038"/>
<path d="M10.1765 15.6205C9.54502 15.6207 8.92054 15.4834 8.34348 15.2175C7.76645 14.9515 7.24969 14.5628 6.82669 14.0767L5.81885 15.0223C6.36913 15.6546 7.04141 16.1598 7.79212 16.5054C8.54282 16.8509 9.35515 17.0289 10.1765 17.0279V15.6205Z" fill="url(#paint4_linear_19_1034)"/>
<path d="M7.14614 7.46019L6.23428 6.41455C5.62448 6.98517 5.13715 7.68233 4.80389 8.46083C4.47064 9.23931 4.2989 10.0818 4.29981 10.9335H5.65744C5.65716 10.2788 5.78954 9.63119 6.04599 9.03285C6.30245 8.43452 6.67725 7.89872 7.14614 7.46019Z" fill="url(#paint5_linear_19_1034)"/>
<defs>
<linearGradient id="paint0_linear_19_1034" x1="6.29565" y1="15.0666" x2="4.71338" y2="10.6559" gradientUnits="userSpaceOnUse">
<stop offset="0.14" stop-color="#F1E813"/>
<stop offset="0.3" stop-color="#E6E418"/>
<stop offset="0.58" stop-color="#C9DA26"/>
<stop offset="0.89" stop-color="#A2CC39"/>
</linearGradient>
<linearGradient id="paint1_linear_19_1034" x1="6.40863" y1="6.87371" x2="10.2634" y2="5.45717" gradientUnits="userSpaceOnUse">
<stop offset="0.06" stop-color="#0FA7DF"/>
<stop offset="0.54" stop-color="#0098F8"/>
<stop offset="0.92" stop-color="#0290EA"/>
</linearGradient>
<linearGradient id="paint2_linear_19_1034" x1="9.79331" y1="16.178" x2="14.1283" y2="15.2336" gradientUnits="userSpaceOnUse">
<stop offset="0.12" stop-color="#A2CC39"/>
<stop offset="0.28" stop-color="#86C239"/>
<stop offset="0.87" stop-color="#219F38"/>
</linearGradient>
<linearGradient id="paint3_linear_19_1034" x1="9.89241" y1="5.31123" x2="13.6086" y2="6.4171" gradientUnits="userSpaceOnUse">
<stop offset="0.06" stop-color="#0290EA"/>
<stop offset="0.79" stop-color="#0C89CA"/>
</linearGradient>
<linearGradient id="paint4_linear_19_1034" x1="6.15941" y1="14.851" x2="10.2146" y2="16.3124" gradientUnits="userSpaceOnUse">
<stop offset="0.13" stop-color="#F1E813"/>
<stop offset="0.3" stop-color="#EAE616"/>
<stop offset="0.53" stop-color="#D8DF1F"/>
<stop offset="0.8" stop-color="#BAD52D"/>
<stop offset="0.98" stop-color="#A2CC39"/>
</linearGradient>
<linearGradient id="paint5_linear_19_1034" x1="4.80557" y1="11.1039" x2="6.52435" y2="6.79237" gradientUnits="userSpaceOnUse">
<stop offset="0.07" stop-color="#A2CC39"/>
<stop offset="0.26" stop-color="#81C45E"/>
<stop offset="0.92" stop-color="#0FA7DF"/>
</linearGradient>
</defs>
</svg>
