<svg width="86" height="21" viewBox="0 0 86 21" fill="none" xmlns="http://www.w3.org/2000/svg">
<path d="M24.9907 9.39352L25.2677 8.54395L24.3668 8.57179C23.9449 8.55659 23.5385 8.41753 23.1968 8.17229H23.3184C23.8673 8.16977 24.3695 7.8638 24.6127 7.3834L25.0088 6.55663C24.6982 6.55915 24.3876 6.54143 24.0795 6.5035C23.7844 6.43525 23.5204 6.27851 23.321 6.05599C23.0518 5.77535 22.6791 5.61604 22.2856 5.61352C22.1329 5.61352 21.9801 5.63881 21.8326 5.68429C21.8533 5.61604 21.8714 5.54779 21.8844 5.47698C21.9465 4.98394 21.8041 4.48582 21.4909 4.09393L20.8075 3.27219L20.3881 4.23298C20.3208 4.36952 20.2199 4.48838 20.0904 4.57432C20.0179 4.23046 19.8471 3.91694 19.5934 3.66915C19.1689 3.24438 18.5864 3.00671 17.9781 3.01176C17.872 3.01176 17.7659 3.01935 17.6623 3.03452L16.8443 3.19128C16.9142 2.92327 17.0255 2.6679 17.1756 2.43275L17.6261 1.74755L16.4922 1.85122L16.1298 1.09269L15.4309 1.46437L14.7838 0.839844L14.1366 1.46437L13.4376 1.11039L13.0752 1.85122L11.9414 1.72479L12.3918 2.41253C12.542 2.64767 12.6533 2.90304 12.7232 3.17105L11.9466 3.02188H11.9207C11.812 3.00671 11.7033 2.99912 11.5945 2.99912C10.9862 2.99407 10.4038 3.23174 9.97924 3.65651C9.72296 3.90683 9.54697 4.22542 9.47705 4.57432C9.35282 4.4909 9.25186 4.37713 9.18456 4.2431L8.7626 3.27472L8.07404 4.09898C7.76599 4.4909 7.62878 4.98646 7.68833 5.47698C7.70128 5.54779 7.71938 5.61604 7.74011 5.68429C7.59253 5.63881 7.43979 5.61352 7.2871 5.61352C6.89361 5.61604 6.52084 5.77535 6.25162 6.05599C6.05489 6.27595 5.79345 6.43273 5.50092 6.5035C5.19029 6.54903 4.8745 6.56671 4.55866 6.55663L4.94437 7.39604C5.18771 7.87644 5.68991 8.18241 6.23867 8.18493H6.36036C6.02385 8.42513 5.62261 8.56419 5.20581 8.58187L4.2998 8.54395L4.57677 9.39352C4.7839 10.0585 5.37149 10.5465 6.0782 10.635C6.0057 11.0825 5.71579 11.4694 5.30162 11.6716L4.60786 11.9472L4.98062 12.5819C5.28868 13.0496 5.81934 13.3277 6.38625 13.3227C6.53378 13.3227 6.68136 13.3075 6.82631 13.2772C6.86256 13.4314 6.90913 13.5856 6.9609 13.7348C7.09033 14.0686 7.09812 14.4327 6.98679 14.7715L6.65027 15.4617L7.40359 15.6564C7.57185 15.6994 7.74785 15.7196 7.92131 15.7196C8.04553 15.7196 8.16722 15.707 8.28887 15.6792C8.37689 15.659 8.46491 15.6337 8.54773 15.6008C8.64354 15.7702 8.76518 15.927 8.9024 16.066C9.38387 16.549 10.0673 16.7942 10.9344 16.7942H11.5531L10.2769 17.3125L11.2451 17.7803C11.636 17.9674 12.0346 18.1368 12.441 18.286L12.3246 18.6147L12.6585 18.7638C13.2125 18.9762 13.8001 19.0951 14.3955 19.1153H15.1902C15.783 19.0951 16.368 18.9737 16.9194 18.7613L17.2429 18.6147L17.129 18.286C17.5406 18.1317 17.9445 17.9573 18.3379 17.7626L19.288 17.3125L18.0144 16.8069H18.6356C19.5028 16.8069 20.1888 16.554 20.6677 16.0787C20.8075 15.9396 20.9266 15.7829 21.0223 15.6134C21.1052 15.6463 21.1932 15.6716 21.2812 15.6918C21.4029 15.7196 21.5245 15.7323 21.6488 15.7323C21.8222 15.7323 21.9983 15.7095 22.1665 15.6691L22.9224 15.4744L22.5936 14.7968C22.4694 14.4529 22.4746 14.0761 22.6066 13.7348C22.6609 13.5806 22.705 13.4238 22.7412 13.2671C22.8862 13.2974 23.0363 13.3126 23.1839 13.3126C23.7559 13.3176 24.2892 13.0294 24.5921 12.5541L24.9596 11.927L24.2762 11.6539C23.8621 11.4516 23.5721 11.0648 23.4996 10.6173C24.2064 10.5263 24.794 10.0408 25.0011 9.37328L24.9907 9.39352Z" fill="white"/>
<path d="M17.8954 12.079H11.6827V14.3546C11.6827 15.2902 12.3738 15.8717 13.3963 15.8717C14.2506 15.8717 14.4758 15.9045 14.7916 16.213C14.991 16.0031 15.2731 15.8843 15.5682 15.8894V15.854L15.765 15.2623L15.431 14.9058C15.2964 14.9463 15.1566 14.9615 15.0168 14.9539C14.8071 14.9513 14.6 14.9311 14.3955 14.8906H14.3308C14.3024 14.8906 14.3024 14.8907 14.2946 14.9058L14.2558 14.969L14.1859 15.0828L14.0513 15.0525L13.4533 14.9159L13.3705 15.0474V15.0626L13.443 15.141L13.4119 15.2421C13.3575 15.366 13.2799 15.4772 13.1815 15.5733L13.0314 15.7301L12.8941 15.5632L12.7932 15.4393C12.6845 15.3002 12.6586 15.1182 12.7207 14.9539L12.5525 15.0221L12.4774 14.8603L12.436 14.7465C12.3298 14.5063 12.4101 14.2282 12.6249 14.0765L13.1064 13.8236L13.5646 13.9121C13.5646 13.8692 13.5931 13.7149 13.606 13.677H13.5801L13.3213 13.7731L13.0624 13.6012C13.0106 13.5506 13.0081 13.4671 13.0624 13.4141L13.3083 13.05L12.6845 12.2914L13.619 12.6505L13.6837 12.5746L13.8131 12.4229L13.9607 12.5594C13.9995 12.5974 14.0254 12.6429 14.0383 12.696C14.2972 12.7971 14.7761 13.0929 14.8149 13.5733L14.6673 13.6315C14.6855 13.6568 14.7088 13.677 14.7373 13.6897L15.4207 13.7554L15.4828 13.7377C15.5993 13.6947 15.7235 13.6719 15.8478 13.6694C15.972 13.6694 16.0937 13.6972 16.205 13.7503C16.2542 13.7326 16.3086 13.7225 16.3603 13.72H16.394C16.759 13.72 16.9428 13.988 17.0877 14.2004L17.1628 14.3066C17.2897 14.4836 17.4579 14.7415 17.4657 14.7516L17.5407 14.8654L17.4475 14.9715C17.3621 15.0828 17.2275 15.146 17.0851 15.146C17.0437 15.1485 17.0023 15.1485 16.9609 15.146C16.9246 15.1385 16.8884 15.1283 16.8522 15.1132C16.8522 15.1485 16.8522 15.1915 16.8314 15.2269L16.7253 15.8236C17.4294 15.6846 17.9264 15.0676 17.898 14.3647L17.8954 12.079ZM11.6749 11.8945H16.5131C16.3163 11.6922 16.249 11.4014 16.337 11.1359C16.2723 11.1056 16.2102 11.0651 16.1558 11.0196C15.9668 11.1562 15.3792 11.5658 15.2395 11.6694L15.2084 11.6897L13.3083 11.361H13.2695C13.2074 11.3635 13.1453 11.3635 13.0831 11.361C13.065 11.4444 12.99 11.5026 12.9045 11.5026H12.8735C12.7725 11.4849 12.7026 11.3913 12.7181 11.2927V11.2522C12.4722 11.0803 12.3557 10.782 12.4204 10.4937V10.4608L12.4489 10.4406C12.4489 10.4406 12.4851 10.4153 12.5343 10.3875L12.3972 10.3673C12.3454 10.3572 12.3117 10.3117 12.3195 10.2611C12.3272 10.2105 12.3738 10.1777 12.4256 10.1853H12.4282L12.757 10.2358L12.788 9.10561L13.2773 8.59993L13.5828 9.22695L13.2618 10.3142L13.5517 10.3597C13.6034 10.3698 13.6371 10.4153 13.6293 10.4659C13.6216 10.5114 13.5828 10.5418 13.5361 10.5418H13.5206L13.285 10.5038V10.5215C13.3109 10.567 13.3498 10.6025 13.3989 10.6252L14.846 10.6479L15.2161 10.2914C14.934 10.1953 14.7321 9.95263 14.6984 9.66186C14.5172 9.59361 14.3697 9.46211 14.2868 9.29272C14.217 9.13342 14.204 8.95391 14.2532 8.78704C14.0254 8.69855 13.8183 8.56453 13.65 8.39258H11.5015C11.605 8.64038 11.6646 8.90334 11.6749 9.16882V11.8945Z" fill="#FCE527"/>
<path d="M28.374 9.94265H30.507V13.4824H32.0602V9.94265H34.1933V8.6582H28.374V9.94265ZM36.2435 11.4597V8.67845H34.7421V13.4824H36.0675L38.6561 10.6708V13.4824H40.1575V8.6582H38.8321L36.2435 11.4597ZM45.1563 10.4483H42.7435V8.67845H41.2421V13.4824H42.7435V11.6822H45.1563V13.4824H46.6574V8.67845H45.1563V10.4483ZM51.8944 10.0741C51.5396 9.96793 51.1668 9.92496 50.7966 9.94265H49.2434V8.67845H47.7423V13.4824L50.7863 13.4622C51.1049 13.4673 51.4205 13.4319 51.7288 13.351C52.5106 13.1639 53.0489 12.4686 53.0231 11.6822C53.0541 10.9616 52.5957 10.3042 51.8944 10.0741ZM51.1281 12.2486C50.9389 12.3118 50.7372 12.3371 50.5377 12.3194H49.2434V11.0956H50.5377C50.7321 11.083 50.9286 11.1058 51.1178 11.1563C51.356 11.2246 51.5164 11.4395 51.5112 11.6822C51.5138 11.93 51.3638 12.155 51.1281 12.2486ZM59.3132 8.67845H57.4289L55.6169 10.4888H55.2028V8.67845H53.7012V13.4824H55.2028V11.662H55.6169L57.4083 13.4824H59.4065L56.9112 10.954L59.3132 8.67845Z" fill="white"/>
<path d="M62.5441 8.5266C60.5145 8.5266 59.3028 9.63909 59.3028 11.0752C59.3028 12.5114 60.5248 13.6239 62.5334 13.6239C64.5423 13.6239 65.7536 12.5114 65.7536 11.0752C65.7536 9.63909 64.5733 8.5266 62.5441 8.5266ZM62.5334 12.4507C61.5293 12.4507 60.8873 11.8641 60.8873 11.0752C60.8873 10.2864 61.5396 9.70991 62.5334 9.70991C63.5275 9.70991 64.1798 10.2864 64.1798 11.0752C64.1798 11.8641 63.5378 12.4507 62.5334 12.4507ZM70.7008 8.87045V8.38502H69.1992V8.87045C67.3145 8.9109 66.1862 9.68966 66.1862 11.0651C66.1862 12.4406 67.3145 13.1587 69.1992 13.1991V13.6846H70.7008V13.1991C72.5954 13.1587 73.7241 12.4406 73.7241 11.0651C73.7241 9.68966 72.5979 8.9109 70.7008 8.87045ZM69.1992 12.1675C68.1638 12.1271 67.708 11.7124 67.708 11.0651C67.708 10.4179 68.1638 9.95262 69.1992 9.91218V12.1675ZM70.7008 12.1675V9.91218C71.7466 9.95262 72.1916 10.4179 72.1916 11.0651H72.1942C72.1942 11.7124 71.7491 12.1271 70.7008 12.1675ZM78.676 8.87045V8.38502H77.1749V8.87045C75.2902 8.9109 74.1614 9.68966 74.1614 11.0651C74.1614 12.4406 75.2902 13.1587 77.1749 13.1991V13.6846H78.676V13.1991C80.571 13.1587 81.6998 12.4406 81.6998 11.0651C81.6998 9.68966 80.571 8.9109 78.676 8.87045ZM77.1749 12.1675C76.1394 12.1271 75.6836 11.7124 75.6836 11.0651C75.6836 10.4179 76.1394 9.95262 77.1749 9.91218V12.1675ZM80.1647 11.0651C80.1647 11.7124 79.7222 12.1271 78.676 12.1675V9.91218C79.7222 9.95262 80.1672 10.4179 80.1672 11.0651H80.1647ZM13.6603 13.0727C13.6292 13.0727 13.6007 13.0955 13.5981 13.1258V13.1283C13.5955 13.1612 13.6214 13.1915 13.6551 13.1941H13.6576C13.6939 13.1941 13.7198 13.1663 13.7198 13.1334C13.7198 13.098 13.6939 13.0727 13.6603 13.0727ZM13.6577 13.0702C13.6603 13.0702 13.6603 13.0727 13.6603 13.0727C13.6628 13.0727 13.6628 13.0702 13.6654 13.0702H13.6577ZM17.8875 17.2168L17.5302 17.0828L17.6286 16.7212L17.7373 16.3268C17.248 16.572 16.7355 16.7693 16.2074 16.9159C15.9486 16.9867 15.7622 17.0196 15.7622 17.0196V17.2749C15.4438 17.3255 15.1228 17.3533 14.7992 17.3559H14.7707C14.4472 17.3533 14.1262 17.3255 13.8078 17.2749V17.0221C13.8078 17.0221 13.6188 16.9867 13.3599 16.9159C12.8319 16.7693 12.3193 16.572 11.83 16.3268L11.9362 16.7212L12.0371 17.0828L11.6774 17.2168L11.2891 17.3609C11.8223 17.6314 12.3789 17.8565 12.9535 18.0335L12.8163 18.3976C13.4402 18.6302 14.1081 18.744 14.7759 18.7288H14.7915C15.4593 18.744 16.1272 18.6302 16.7511 18.3976L16.6164 18.0335C17.1885 17.8565 17.7451 17.6314 18.2783 17.3609L17.8875 17.2168ZM11.7213 17.3837L12.3012 17.1941L12.1278 16.6378C12.5083 16.8224 12.9018 16.9766 13.3082 17.098L13.0234 17.8565C12.5756 17.7402 12.1381 17.5809 11.7213 17.3837ZM14.7992 18.5493L14.7863 18.5392C14.2168 18.5366 13.6498 18.4608 13.1011 18.3141L13.4505 17.3887C13.8854 17.4949 14.3332 17.5531 14.7837 17.5556H14.8122C15.2626 17.5505 15.7104 17.4949 16.1453 17.3887L16.4948 18.3141C15.9434 18.4659 15.3713 18.5442 14.7992 18.5493ZM16.5646 17.8717V17.8641L16.2799 17.1056C16.6863 16.9842 17.0798 16.83 17.4603 16.6454L17.2869 17.2016L17.8745 17.3938C17.4551 17.5936 17.0151 17.7553 16.5646 17.8717ZM14.7837 2.78454C15.3687 2.76937 15.9434 2.9413 16.4197 3.27252C16.4947 2.89832 16.6371 2.53928 16.8416 2.21311L16.254 2.27885L15.9485 1.63916L15.3557 1.93752L14.7837 1.38379L14.2116 1.93752L13.6188 1.63916L13.3133 2.27885L12.7257 2.21311C12.9302 2.53928 13.0726 2.89832 13.1477 3.27252C13.624 2.9413 14.1986 2.76937 14.7837 2.78454ZM13.2874 2.50135L13.4505 2.51905L13.5204 2.37493L13.7249 1.9451L14.1054 2.13726L14.253 2.21058L14.3721 2.10439L14.7837 1.69731L15.1953 2.10439L15.3143 2.21817L15.4619 2.14485L15.8398 1.95269L16.0469 2.38252L16.1168 2.52664L16.2799 2.50894L16.4352 2.49124C16.3731 2.6303 16.3187 2.77443 16.2747 2.92107C15.3402 2.45331 14.2297 2.45331 13.2952 2.92107C13.2512 2.77443 13.1968 2.6303 13.1347 2.49124L13.2874 2.50135ZM22.4616 8.00319L22.3917 7.91978C21.9102 7.32053 21.452 6.75164 20.634 6.49119C20.6677 6.46339 20.7013 6.43811 20.7375 6.41534C21.1258 6.20043 21.4002 5.83129 21.4882 5.40398C21.5323 5.01712 21.4209 4.6303 21.1776 4.32181L20.9187 4.00577L20.7556 4.3825C20.7556 4.40526 20.4683 5.00956 19.8885 5.00956H19.7176C19.7487 4.61258 19.6011 4.22067 19.3138 3.9375C18.9643 3.58858 18.4828 3.39389 17.9833 3.39642C17.89 3.39642 17.7969 3.40401 17.7063 3.41665L17.3102 3.4925L17.5561 3.80855C17.7477 4.06139 17.9211 4.4988 17.7166 4.73396C17.6182 4.81741 17.5069 4.88314 17.3853 4.92863C17.1264 5.04749 16.7536 5.21687 16.7536 5.64166C16.7536 5.91726 16.9737 6.20551 17.3697 6.45075C18.5372 7.1739 19.2594 7.91978 19.5727 8.75919C20.0567 10.0386 19.4251 10.7668 18.8116 11.1511L18.5372 11.323L18.7779 11.538C18.9928 11.7175 19.2568 11.8287 19.539 11.8565H19.7746C20.0153 11.8565 20.2535 11.8237 20.4838 11.7554C20.4269 11.854 20.357 11.9475 20.282 12.0335C19.9325 12.4305 19.4147 12.6479 18.8789 12.6201H18.6485L18.6304 12.8452C18.6278 13.1612 18.7702 13.4595 19.0161 13.6644C19.0808 13.72 19.1533 13.7655 19.2309 13.8009C18.8479 14.165 18.6304 14.6631 18.6226 15.1865C18.6226 15.4722 18.5553 15.7554 18.4285 16.0133L18.1696 16.3925H18.6304C19.3915 16.3925 19.9739 16.1877 20.3777 15.7807C20.5874 15.5658 20.7427 15.3053 20.8333 15.0221C20.9835 15.146 21.1595 15.232 21.3511 15.2749C21.4417 15.2952 21.5348 15.3053 21.628 15.3053C21.7678 15.3053 21.9076 15.2876 22.0422 15.2573L22.3373 15.1814L22.2079 14.9134C22.0448 14.4861 22.0448 14.0133 22.2079 13.586C22.3036 13.3078 22.371 13.0196 22.4072 12.7263C22.6402 12.8426 22.8991 12.9008 23.1605 12.8983C23.5902 12.9033 23.9914 12.696 24.2244 12.3445L24.3668 12.0917L24.1079 11.9855C23.2407 11.6341 23.0492 10.6884 23.0103 10.1777C23.0958 10.1953 23.1812 10.2055 23.2692 10.208L23.3417 10.256C24.284 10.256 24.5998 9.318 24.6127 9.27756L24.7189 8.9463H24.3642C23.6187 8.92102 22.9223 8.57717 22.4616 8.00319ZM23.3443 10.0007H23.308C23.1191 10.0032 22.9327 9.95262 22.7722 9.85657C22.7722 9.85657 22.635 11.6846 24.0303 12.251V12.2585C23.8465 12.5316 23.5307 12.6935 23.1968 12.6884C22.8188 12.7111 22.4538 12.5544 22.2157 12.2687C22.2234 12.6985 22.1509 13.1283 22.0034 13.5329C21.8144 14.0209 21.8144 14.562 22.0034 15.05C21.8869 15.0778 21.7704 15.0929 21.6513 15.0929C21.5788 15.0929 21.5038 15.0853 21.4339 15.0676C21.0896 14.9867 20.8152 14.7389 20.7039 14.4128C20.7039 14.4128 20.7583 16.1675 18.664 16.1675H18.6485C18.8064 15.8742 18.8893 15.548 18.8867 15.2168C18.9773 13.9197 19.8781 13.7351 19.8781 13.7351C19.6296 13.7048 19.394 13.6188 19.187 13.4823C18.998 13.3281 18.8893 13.1005 18.8841 12.8603C19.4898 12.8856 20.0749 12.6403 20.4709 12.1903C20.7091 11.9248 20.867 11.6012 20.9343 11.2548C20.6003 11.5 20.1887 11.6239 19.772 11.6062H19.5597C19.3345 11.5835 19.1197 11.4975 18.9462 11.3534C19.7435 10.8477 20.3026 9.98299 19.8082 8.6707C19.4096 7.61889 18.4544 6.83257 17.494 6.24092C17.1756 6.04872 16.984 5.83129 16.984 5.64418C16.984 5.20423 17.6234 5.19159 17.8875 4.88566C18.1903 4.54181 18.0014 3.98554 17.7373 3.65179C17.8124 3.63915 17.89 3.63409 17.9651 3.63409C18.3974 3.62903 18.8142 3.79844 19.1145 4.10185C19.4199 4.38502 19.5364 4.81233 19.4199 5.20679L19.5597 5.2346C19.6451 5.24976 19.7306 5.25736 19.8186 5.25988H19.8755C20.634 5.25988 20.9757 4.48364 20.9757 4.48364C20.9757 4.48364 21.7833 5.45455 20.5952 6.21307C20.3907 6.34205 20.3001 6.46591 20.3363 6.59233L20.3544 6.67578L20.4398 6.69095C21.3019 6.9185 21.7342 7.50008 22.27 8.15998C22.7774 8.78956 23.5436 9.16882 24.3642 9.19662H24.3797C24.3797 9.19662 24.1209 10.0007 23.3443 10.0007Z" fill="white"/>
<path d="M21.6825 6.60519C21.9724 6.76701 22.2235 6.98701 22.4202 7.24997C22.5678 7.47244 22.7775 7.64943 23.026 7.75565C23.1192 7.78597 23.2201 7.80114 23.3185 7.80114C23.7145 7.80114 24.077 7.58118 24.2582 7.23733L24.4083 6.90864L24.0433 6.88839C23.6498 6.81758 23.2952 6.62039 23.0338 6.32454C22.8396 6.11975 22.5678 6.00089 22.2804 5.99837C22.0578 6.00089 21.843 6.06666 21.6566 6.18296L21.3201 6.41304L21.6825 6.60519ZM22.2882 6.24365L22.2804 6.24617C22.5005 6.24617 22.7076 6.3397 22.8551 6.49901C23.158 6.83782 23.5722 7.06286 24.0278 7.13619C23.888 7.39155 23.6162 7.55082 23.3185 7.55338C23.246 7.55338 23.1736 7.54074 23.1036 7.51797C22.6843 7.37891 22.5367 6.75945 21.8093 6.38523C21.9517 6.29422 22.1174 6.24617 22.2882 6.24365ZM21.8533 9.86434L21.8482 9.8593C21.6359 8.19052 20.3959 6.98449 19.0162 6.25377C18.8894 6.18548 18.7703 6.12987 18.6564 6.07678C19.2259 6.19056 19.8187 6.05402 20.2769 5.70508C20.2769 5.70508 19.477 6.27906 17.841 5.75817C18.294 6.04642 19.1741 6.45096 19.9792 7.10835C21.988 8.83274 20.5513 10.5167 20.5513 10.5167C21.1518 9.96044 21.3615 9.11086 21.0923 8.3473C21.5168 9.03753 21.7213 9.83654 21.6773 10.6406C21.6204 11.9655 20.8671 13.1235 20.0905 14.0464C19.8575 14.3371 19.697 14.6785 19.6297 15.0426C19.7617 14.681 19.9611 14.3473 20.2199 14.059C21.0612 13.0957 21.7731 12.0969 21.8741 10.6583C21.9621 10.9111 22.3193 11.6469 22.8888 11.9225C22.8888 11.9225 22.1743 11.5028 21.8533 9.86434ZM11.1364 16.0312C11.0122 15.7733 10.9449 15.4901 10.9423 15.2044C10.9345 14.681 10.7145 14.1829 10.3313 13.8188C10.409 13.7834 10.4815 13.7379 10.5462 13.6823C10.7921 13.4775 10.9345 13.1791 10.9319 12.8631L10.9164 12.638H10.6834C10.1501 12.6633 9.63243 12.4484 9.28296 12.0515C9.20789 11.9655 9.14059 11.8719 9.08104 11.7733C9.31143 11.8416 9.54961 11.8745 9.79032 11.8745H10.0259C10.308 11.8466 10.5747 11.7354 10.7896 11.5559L11.0303 11.3409L10.7559 11.169C10.1398 10.7847 9.51078 10.0565 9.99483 8.77713C10.308 7.94528 11.0303 7.19432 12.2081 6.47121C12.6042 6.21837 12.8216 5.93772 12.8216 5.66212C12.8216 5.23733 12.4566 5.06794 12.19 4.94908C12.0683 4.90356 11.957 4.83783 11.8587 4.75441C11.6516 4.51926 11.825 4.07172 12.0191 3.82899L12.278 3.51294L11.8793 3.43709C11.7887 3.42192 11.6956 3.41686 11.6024 3.41686C11.0976 3.40169 10.6109 3.59132 10.2537 3.93772C9.9612 4.21837 9.80847 4.61279 9.83693 5.01229H9.68162C9.09918 5.01229 8.82476 4.41052 8.81444 4.38523L8.65134 4.00851L8.39248 4.32459C8.15172 4.63303 8.04044 5.0199 8.08443 5.40672C8.17245 5.83402 8.44425 6.2032 8.83254 6.41812C8.86879 6.44084 8.90504 6.46612 8.93608 6.49397C8.11809 6.74681 7.65989 7.3233 7.17842 7.92252L7.1085 8.00849C6.64775 8.58242 5.94883 8.92632 5.2033 8.9516H4.84863L4.95738 9.28281C4.95738 9.32326 5.28353 10.2613 6.22837 10.2613H6.27499C6.36301 10.2588 6.4484 10.2487 6.53385 10.231C6.49502 10.7366 6.30345 11.6874 5.43369 12.0388L5.17483 12.145L5.3172 12.3978C5.55018 12.7493 5.95141 12.9566 6.38111 12.9516C6.64255 12.9541 6.89883 12.8959 7.1318 12.7796C7.16805 13.0729 7.23535 13.3612 7.33115 13.6393C7.49421 14.0666 7.49421 14.5394 7.33115 14.9667L7.20172 15.2347L7.49679 15.3106C7.63142 15.3409 7.77121 15.3586 7.91101 15.3586C8.00419 15.3586 8.09737 15.3485 8.18797 15.3283C8.37953 15.2853 8.55558 15.1994 8.70569 15.0755C8.79629 15.3586 8.95161 15.6191 9.16132 15.834C9.56771 16.241 10.1501 16.4433 10.9086 16.4458H11.3694L11.1364 16.0312ZM10.9138 16.1728C8.8196 16.1728 8.87137 14.4181 8.87137 14.4181C8.76004 14.7442 8.48566 14.992 8.14136 15.0729C8.07148 15.0906 7.9964 15.0982 7.92395 15.0982C7.80484 15.0982 7.68835 15.083 7.57449 15.0552C7.76343 14.5672 7.76343 14.0261 7.57449 13.5382C7.42691 13.1336 7.35704 12.7038 7.36478 12.2739C7.12664 12.5597 6.76166 12.7164 6.38369 12.6937H6.37075C6.03423 12.6987 5.71844 12.5344 5.53461 12.2613C6.92992 11.6949 6.79271 9.86686 6.79271 9.86686C6.63219 9.96296 6.44582 10.0135 6.25684 10.011H6.22837C5.45179 10.011 5.19293 9.20696 5.19293 9.20696H5.20846C6.02907 9.18168 6.79787 8.80242 7.30527 8.17284C7.83851 7.51293 8.27341 6.93136 9.13543 6.7038L9.22083 6.68864L9.23898 6.60523C9.26224 6.47625 9.17164 6.35235 8.98007 6.22593C7.7919 5.46741 8.59957 4.49649 8.59957 4.49649C8.59957 4.49649 8.93608 5.27274 9.69972 5.27274H9.73597C9.82399 5.27022 9.90939 5.26261 9.99483 5.24745L10.1346 5.21965C10.0156 4.82518 10.1346 4.39788 10.4401 4.11471C10.7404 3.8113 11.1571 3.64189 11.5894 3.64695C11.6645 3.64695 11.7422 3.65201 11.8172 3.66465C11.5584 4.00093 11.3668 4.55718 11.6697 4.89852C11.9285 5.19436 12.5705 5.20701 12.5705 5.65704C12.5705 5.84415 12.3919 6.06158 12.0735 6.25629C11.1106 6.84795 10.1553 7.63427 9.75928 8.68612C9.26486 9.99837 9.82399 10.8707 10.6213 11.3688C10.4478 11.5104 10.233 11.5989 10.0078 11.6216H9.7929C9.37615 11.6393 8.96455 11.5154 8.63061 11.2702C8.69795 11.6165 8.85585 11.9402 9.0914 12.2057C9.48747 12.6532 10.0751 12.901 10.6808 12.8757C10.6756 13.1159 10.5669 13.3435 10.378 13.4977C10.1709 13.6342 9.93527 13.7202 9.68678 13.7506C9.68678 13.7506 10.5902 13.9301 10.6886 15.2322C10.686 15.5634 10.7688 15.8896 10.9267 16.1829L10.9138 16.1728Z" fill="#222220"/>
<path d="M6.24674 7.79821H6.24936C6.34771 7.79821 6.44867 7.78305 6.54185 7.75272C6.79039 7.64651 7.00006 7.46952 7.14759 7.247C7.34174 6.98408 7.59286 6.76409 7.88276 6.60226L8.24517 6.41263L7.90865 6.18255C7.72229 6.06626 7.50742 6.00048 7.28738 5.99796C7.00006 6.00048 6.72826 6.11934 6.53411 6.32666C6.27525 6.61998 5.91801 6.81974 5.52714 6.89051L5.16211 6.90823L5.30969 7.23692C5.49089 7.58078 5.85071 7.79569 6.24674 7.79821ZM6.71273 6.4986C6.85769 6.3393 7.06477 6.24576 7.2848 6.24576C7.45306 6.24828 7.61874 6.29885 7.76112 6.38735C7.02852 6.76913 6.87579 7.38102 6.46682 7.52009C6.39948 7.54285 6.32702 7.55549 6.25452 7.55549C5.95426 7.55549 5.67987 7.39367 5.54008 7.13579C5.99566 7.06245 6.40984 6.83742 6.71273 6.4986ZM7.89575 10.6503C7.85176 9.84626 8.05369 9.04725 8.48081 8.35702C8.21158 9.12058 8.42125 9.97016 9.02183 10.5264C9.02183 10.5264 7.58254 8.84246 9.5939 7.11806C10.399 6.46068 11.2765 6.05613 11.7295 5.76789C10.0935 6.28873 9.29364 5.7148 9.29364 5.7148C9.7518 6.06374 10.342 6.20024 10.9115 6.08646C10.7976 6.13959 10.6785 6.19772 10.5517 6.26345C9.17195 6.99672 7.92426 8.20275 7.71975 9.87154V9.8589C7.39875 11.4973 6.68431 11.917 6.68431 11.917C7.25118 11.6439 7.611 10.9057 7.69644 10.6528C7.7922 12.094 8.51185 13.0927 9.35315 14.0536C9.60943 14.3418 9.81136 14.6755 9.94337 15.0371C9.87349 14.6755 9.71297 14.3342 9.47742 14.046C8.70084 13.1231 7.95014 11.9651 7.89575 10.6503ZM14.3103 7.60606C14.4009 7.52009 14.5278 7.47964 14.6546 7.4948V7.97268C14.652 8.0915 14.6209 8.20527 14.5614 8.30897H15.0507C14.9911 8.20527 14.9601 8.0915 14.9575 7.97268V7.4948C15.0817 7.47964 15.2086 7.52009 15.2992 7.60606V7.27485H14.3103V7.60606ZM14.1059 5.31278H14.1007C14.1758 5.37599 14.2638 5.42655 14.3596 5.45688L14.4217 5.48472V5.17119L13.847 4.93604C13.8755 5.09278 13.9687 5.22932 14.1059 5.31278ZM15.4701 5.31026L15.4675 5.31278C15.6047 5.22932 15.6979 5.09278 15.7264 4.93604L15.1517 5.17119V5.48216L15.2113 5.45436C15.307 5.42403 15.395 5.37347 15.4701 5.31026Z" fill="#222220"/>
<path d="M16.5003 4.04359C16.5003 3.57077 15.6849 3.146 14.7866 3.146C13.8883 3.146 13.0729 3.57077 13.0729 4.04359L13.0911 4.1599L13.4508 6.18264L13.0911 6.38743L12.1514 6.90831C12.1514 6.90831 11.9417 7.01449 11.8433 7.0777C11.4887 7.33054 11.4136 7.66935 11.6181 7.81602C11.6699 7.47212 11.9779 7.21928 12.3352 7.2294C12.6329 7.23701 12.9099 7.38363 13.0781 7.62383C13.1299 7.68452 13.1765 7.75025 13.2179 7.81602C13.2723 7.90195 13.3266 7.9778 13.381 8.05113H10.9839C11.1858 8.38995 11.3023 8.77173 11.3282 9.16367V14.3646C11.3282 15.6289 12.3196 16.223 13.3991 16.223C14.2275 16.223 14.3387 16.1851 14.7944 16.6301C15.25 16.1851 15.3613 16.223 16.1896 16.223C17.2613 16.223 18.2605 15.6238 18.2605 14.3646V9.16871C18.2864 8.77681 18.4029 8.39503 18.6048 8.05622H16.1819C16.2362 7.98288 16.2906 7.90703 16.345 7.82106C16.3889 7.75533 16.4356 7.6896 16.4847 7.62891C16.6556 7.38871 16.9326 7.24205 17.2302 7.23444C17.5875 7.22436 17.8955 7.4772 17.9473 7.82106C18.1544 7.67696 18.0793 7.31538 17.7221 7.08274C17.6263 7.01701 17.4166 6.91335 17.4166 6.91335L16.4847 6.37731L16.1249 6.17252L16.4847 4.14978L16.5003 4.04359ZM13.4198 4.27622L14.683 4.6934V6.63019L13.7537 6.14975L13.4198 4.27622ZM11.5016 8.39247H13.6787C13.8469 8.56442 14.054 8.70096 14.2818 8.78693C14.2326 8.9538 14.2456 9.13331 14.3154 9.29261C14.3983 9.462 14.5458 9.5935 14.727 9.66175C14.7607 9.95252 14.9626 10.1952 15.2448 10.2913C15.0894 10.4456 14.9367 10.5897 14.8746 10.6478L13.4276 10.6251C13.3784 10.6023 13.3396 10.5669 13.3137 10.5214V10.5037L13.5492 10.5417H13.5647C13.6114 10.5417 13.6502 10.5113 13.658 10.4658C13.6657 10.4152 13.632 10.3697 13.5803 10.3596L13.2904 10.3141L13.6114 9.22688L13.3059 8.59982L12.8166 9.1055L12.7856 10.2357L12.4568 10.1852C12.405 10.175 12.3585 10.2079 12.3481 10.2584V10.261C12.3403 10.3116 12.374 10.3571 12.4258 10.3672L12.563 10.3874C12.5138 10.4152 12.4801 10.4354 12.4775 10.4405L12.4491 10.4607V10.4936C12.3844 10.7818 12.5034 11.0802 12.7468 11.2521V11.2926C12.7312 11.3912 12.8011 11.4848 12.9021 11.5024H12.9331C13.0186 11.5024 13.0936 11.4443 13.1117 11.3609C13.1739 11.3634 13.2334 11.3634 13.2955 11.3609H13.3344L15.2318 11.6972L15.2629 11.6769C15.4131 11.5733 15.9903 11.1712 16.1793 11.0271C16.2336 11.0726 16.2958 11.1131 16.3605 11.1434C16.2725 11.4089 16.3398 11.6997 16.5365 11.9019H11.6751V9.16871C11.6647 8.90323 11.6052 8.64027 11.5016 8.39247ZM16.0162 10.8931C15.8195 11.0347 15.3354 11.3785 15.1594 11.4999L13.4379 11.2066V11.1611C13.4664 11.0473 13.4819 10.931 13.4845 10.8147L14.9341 10.8375L14.9626 10.8097C14.9859 10.7869 15.4441 10.3545 15.6771 10.1042C15.7392 10.1801 15.8117 10.2433 15.8945 10.2939C15.8531 10.5012 15.8971 10.7161 16.0162 10.8931ZM13.1402 10.5897V10.5973C13.179 10.6681 13.236 10.7288 13.3059 10.7692C13.3033 10.8729 13.2929 10.974 13.2748 11.0751C13.2748 11.0979 13.2748 11.1207 13.2567 11.1434V11.1788C13.1376 11.1788 13.0211 11.1611 12.9072 11.1257C12.7001 11.017 12.5837 10.7945 12.6173 10.5669C12.7105 10.5037 12.8166 10.4633 12.928 10.4481C13.0237 10.4456 13.1092 10.5012 13.1402 10.5897ZM12.9616 10.2534L12.9901 9.18387L13.249 8.93103L13.4069 9.25217L13.0988 10.2939L12.9616 10.2534ZM16.0032 15.8867H15.7547L15.9489 15.2673C15.9799 15.1813 15.8195 15.07 15.7522 14.9714C15.9101 15.065 16.0732 15.1484 16.2414 15.2243C16.2414 15.2445 16.0032 15.8867 16.0032 15.8867ZM16.6685 15.1939L16.6478 15.1763L16.5132 15.8589C16.4278 15.8589 16.3372 15.8766 16.2544 15.8817L16.3967 15.2243C16.4381 15.0296 15.9023 14.9714 15.6382 14.5846C15.4648 14.7262 15.2422 14.7919 15.0196 14.7692C14.8228 14.7666 14.6287 14.7464 14.4371 14.7085C14.4035 14.706 14.3698 14.706 14.3362 14.7085C14.2559 14.7034 14.1783 14.7439 14.1369 14.8122L14.098 14.8754L13.3602 14.7009L13.1842 14.9993C13.1558 15.0397 13.1609 15.0953 13.1972 15.1307L13.2464 15.1838C13.1972 15.2774 13.135 15.3634 13.06 15.4367L12.9513 15.3052C12.8684 15.1737 12.8762 15.0043 12.9694 14.8804L13.2593 14.4025L13.878 14.4936L13.7822 14.2786C13.6528 13.9955 13.8495 13.6339 13.8702 13.4266C13.8702 13.4898 13.8029 13.5024 13.7356 13.5024H13.557C13.5441 13.4999 13.5285 13.4999 13.5156 13.5024L13.3473 13.6011L13.2153 13.4822C13.1946 13.4443 13.2023 13.3988 13.2334 13.3709L13.5389 13.0347L13.1765 12.6225L13.6942 12.8754L13.8495 12.6934C13.8909 12.7338 13.8728 12.84 13.8728 12.84C14.2481 12.931 14.5096 13.2648 14.4993 13.644V13.7174C14.551 13.7982 14.6339 13.8539 14.727 13.8767L15.4286 13.9449C15.5684 13.9019 15.7107 13.8741 15.8557 13.8564C15.9799 13.8564 16.1042 13.8943 16.2077 13.9601C16.2569 13.9272 16.3165 13.907 16.376 13.9045H16.3993C16.7125 13.9045 16.8445 14.1826 17.0128 14.4101C17.1396 14.5846 17.3105 14.8476 17.3105 14.8476C17.2613 14.9183 17.1811 14.9614 17.0931 14.9614C17.062 14.9639 17.0335 14.9639 17.0025 14.9614C16.6659 14.9007 16.6168 14.223 16.4252 14.1699H16.3941C16.3579 14.1699 16.3242 14.1901 16.3061 14.223C16.3941 14.4531 16.3424 14.5467 16.4381 14.7287C16.508 14.8375 16.596 14.9361 16.697 15.0195C16.697 15.0195 16.6841 15.1206 16.6685 15.1939ZM12.8969 14.5315H12.8917L12.9228 14.6099C12.9021 14.6781 12.6639 14.7768 12.6639 14.7768L12.6121 14.6655C12.5448 14.5062 12.594 14.3242 12.7364 14.2205L13.1273 13.9879L13.5441 14.0739C13.5414 14.1548 13.5673 14.2332 13.6165 14.2989L13.179 14.218L12.9202 14.395C12.8788 14.4304 12.871 14.486 12.8969 14.5315ZM17.9033 14.3671C17.9318 15.07 17.4322 15.687 16.7255 15.8235L16.8445 15.2117C16.8445 15.1763 16.8575 15.1333 16.8627 15.0979C16.8989 15.1131 16.9352 15.1231 16.9714 15.1307C17.0128 15.1333 17.0542 15.1333 17.0956 15.1307C17.238 15.1307 17.3726 15.0675 17.4581 14.9563L17.5512 14.8501L17.4736 14.7464C17.4736 14.7464 17.3002 14.4784 17.1707 14.3014L17.0982 14.1952C16.9533 13.9828 16.7695 13.7148 16.4045 13.7148H16.3708C16.3191 13.7174 16.2647 13.7275 16.2155 13.7452C16.1042 13.6921 15.9826 13.6643 15.8583 13.6643C15.734 13.6668 15.6098 13.6896 15.4933 13.7325L15.4312 13.7502L14.7478 13.6845C14.7193 13.6718 14.696 13.6516 14.6779 13.6263L14.8254 13.5682C14.784 13.0853 14.3077 12.7894 14.0488 12.6908C14.0359 12.6377 14.01 12.5922 13.9712 12.5543L13.8236 12.4177L13.6942 12.5695L13.6295 12.6453L12.6717 12.261L13.2955 13.0195L13.0496 13.3836C12.9978 13.4341 12.9953 13.5176 13.0496 13.5707L13.3085 13.7426L13.5673 13.6465H13.5932C13.5932 13.6845 13.5647 13.8387 13.5518 13.8817L13.1014 13.8058L12.6199 14.0587C12.3973 14.2154 12.3196 14.5037 12.4361 14.7464L12.4905 14.8602L12.5656 15.022L12.7338 14.9538C12.6717 15.1181 12.6976 15.3002 12.8063 15.4392L12.9072 15.5656L13.0419 15.7325L13.192 15.5757C13.2904 15.4797 13.368 15.3684 13.4224 15.2445L13.4535 15.1434L13.381 15.065V15.0498L13.4638 14.9183L14.0618 15.0549L14.1964 15.0852L14.2689 14.9689L14.3077 14.9057C14.3077 14.8931 14.3077 14.8905 14.3439 14.8905H14.4087C14.6132 14.931 14.8203 14.9512 15.0273 14.9538C15.1671 14.9614 15.3069 14.9461 15.4415 14.9057L15.7728 15.2749L15.5761 15.8665V15.9019C15.281 15.8969 14.9988 16.0157 14.7995 16.2256C14.4811 15.9171 14.2559 15.8842 13.4043 15.8842C12.3818 15.8842 11.6906 15.3002 11.6906 14.3671V12.0916H17.9033V14.3671ZM18.0716 8.39247C17.9654 8.63775 17.9085 8.90071 17.8981 9.16871V10.8729C17.6729 10.8248 17.5047 10.6377 17.4891 10.4127V10.3343H17.4114C17.2769 10.3242 17.1526 10.2635 17.0594 10.17C16.9455 10.041 16.8834 9.87918 16.8808 9.7098C16.7695 9.88679 16.7798 10.1143 16.9093 10.2812C17.0102 10.4051 17.1578 10.4886 17.3183 10.5088C17.3649 10.8021 17.6056 11.0296 17.9059 11.0676V11.9019H16.8186C16.5339 11.7604 16.4148 11.4291 16.5417 11.1434L16.5831 11.0524L16.4873 11.017C16.1767 10.9108 16.0058 10.5846 16.1042 10.2762L16.1249 10.2003L16.0524 10.1674C15.7806 10.0132 15.6305 9.71232 15.6745 9.40891C15.5321 9.55049 15.4959 9.76541 15.5865 9.94239C15.5347 10.0006 15.4674 10.0688 15.3923 10.1447C15.1205 10.0891 14.9238 9.85898 14.9134 9.58842V9.52521L14.8539 9.50244C14.696 9.45696 14.5666 9.35074 14.4915 9.20916C14.4423 9.09286 14.4319 8.9614 14.4656 8.84002C14.5174 8.85014 14.5691 8.8577 14.6209 8.86278C14.6727 8.8653 14.727 8.8653 14.7788 8.86278C15.1982 8.86278 15.5968 8.6858 15.8764 8.38239L18.0716 8.39247ZM16.3941 6.66812L16.8186 6.92096L16.9248 6.9816C16.7048 7.03977 16.5054 7.15607 16.3475 7.3179L16.3294 7.33306C16.2932 7.37099 16.2595 7.40891 16.2259 7.4494L16.2052 7.47468C16.1715 7.51513 16.1404 7.5581 16.112 7.60362L16.0965 7.62639C16.0602 7.67696 16.0265 7.73256 15.9929 7.78817C15.7573 8.24585 15.2992 8.55177 14.7788 8.60234C14.2585 8.55177 13.8003 8.24585 13.5647 7.78817C13.5311 7.73256 13.4975 7.67948 13.4638 7.62639L13.4431 7.59854L13.3602 7.46708L13.337 7.43928C13.3033 7.39883 13.2696 7.36086 13.236 7.3255L13.2179 7.30778C13.06 7.14595 12.8607 7.02965 12.6406 6.97152L12.7493 6.91083L13.1765 6.65799L13.6139 6.40515L14.7814 7.02461L15.9489 6.42536L16.3941 6.66812ZM15.8195 6.16239L14.8901 6.64027V4.69592L16.1508 4.27874L15.8195 6.16239ZM14.784 4.49113L13.4017 3.95004C13.5182 3.67697 14.0618 3.44435 14.784 3.44435C15.5062 3.44435 16.0498 3.67697 16.1663 3.95004L14.784 4.49113Z" fill="#222220"/>
</svg>
