<svg width="86" height="21" viewBox="0 0 86 21" fill="none" xmlns="http://www.w3.org/2000/svg">
<g clip-path="url(#clip0_19_1030)">
<path d="M80.3671 11.004H78.6041V9.324H77.7011V13.608H78.6041V11.76H80.3671V13.608H81.2701V9.282H80.3671V11.004ZM75.4221 9.324H74.3901L72.6271 13.65H73.6161L73.9601 12.684H75.8521L76.1961 13.65H77.1851L75.4221 9.324ZM74.2181 11.886L74.8631 10.164L75.5081 11.886H74.2181ZM86.0001 13.608L84.0651 11.256L85.9141 9.282H84.7961L83.2051 11.13V9.282H82.3021V13.608H83.2051V11.424L84.8821 13.608H86.0001ZM71.9391 11.34C71.6811 11.088 71.3371 10.962 70.9931 10.92H70.0471V10.08H71.9821V9.324H69.1441V13.608H70.9931C71.1651 13.608 71.3371 13.566 71.5091 13.524C71.6811 13.482 71.8101 13.356 71.9391 13.23C72.0681 13.104 72.1541 12.978 72.2401 12.81C72.3261 12.642 72.3261 12.474 72.3261 12.306C72.3261 11.928 72.1541 11.592 71.9391 11.34ZM71.1651 12.726C71.0361 12.852 70.9071 12.894 70.7351 12.936H70.0041V11.676H70.7351C70.8211 11.676 70.9071 11.676 70.9931 11.718C71.0791 11.76 71.1651 11.802 71.2081 11.844C71.2511 11.886 71.3371 11.97 71.3371 12.054C71.3801 12.138 71.3801 12.222 71.3801 12.306C71.3801 12.432 71.2941 12.6 71.1651 12.726ZM18.1891 14.322H16.0821L17.0281 12.684L14.6631 8.61H16.8131L18.0601 11.004L19.2641 8.61H21.3281L18.1891 14.322ZM44.5051 14.322H41.8821C40.4631 14.322 39.3021 13.146 39.3021 11.55C39.3021 9.702 40.4631 8.61 41.8821 8.61H44.5051V10.038H42.8281C41.8391 10.038 41.2371 10.332 41.2371 11.508C41.2371 12.684 41.7961 12.936 42.8281 12.936H44.5051V14.322ZM51.3421 14.322H49.4071V10.29L47.2141 14.322H44.8921V8.61H46.8271V12.516L49.0201 8.61H51.3421V14.322ZM37.3241 8.61H35.2171L33.1531 13.356L31.0891 8.61H28.9391L26.4451 14.364H28.4661L28.8961 13.146H31.0461L31.5191 14.364H34.7011L36.2491 10.206L37.7541 14.364H39.7751L37.3241 8.61ZM29.4551 11.844L30.1001 10.206L30.7021 11.844H29.4551ZM25.4561 8.61H21.5001V14.364H23.3921V12.684H25.4561C27.4341 12.684 27.4341 10.962 27.4341 10.584C27.4341 10.206 27.4341 8.61 25.4561 8.61ZM24.8111 11.256H23.4351V10.038H24.8111C25.0261 10.038 25.5851 10.038 25.5851 10.626C25.5851 11.214 25.0261 11.256 24.8111 11.256ZM55.5991 10.752H53.6641V9.996H57.3191V8.568H51.7291V14.322H55.5991C57.6201 14.322 57.6201 13.146 57.6201 12.516C57.6201 11.886 57.6201 10.794 55.5991 10.752ZM55.2551 13.02H53.6211V12.096H55.2551C55.6851 12.096 55.6851 12.39 55.6851 12.516C55.6851 12.642 55.6851 13.02 55.2551 13.02ZM6.14913 5.712C6.27813 5.712 6.45013 5.712 6.57913 5.754L6.53613 1.848H7.00913C6.96613 3.192 7.05213 4.494 7.18113 5.838C8.29913 6.09 9.33113 6.636 10.1481 7.476C10.9651 8.316 11.4811 9.324 11.6961 10.458C11.9111 11.592 11.7391 12.726 11.2661 13.776C10.7931 14.826 10.0191 15.666 9.03013 16.296C8.98713 16.254 8.94413 16.17 8.85813 16.086C7.09513 13.902 6.66513 10.668 6.53613 7.854C6.79413 7.896 7.00913 7.938 7.26713 7.98C7.65413 10.374 8.72913 12.642 10.4491 14.406C11.0511 13.692 11.3951 12.726 11.3091 11.802C11.2661 10.836 10.8361 9.954 10.1911 9.282C9.41713 8.484 8.47113 7.896 7.39613 7.644C6.88013 7.518 6.36413 7.434 5.84813 7.434C5.33213 7.434 4.77313 7.518 4.25713 7.644C2.02113 8.19 0.344133 9.912 0.344133 11.97C0.344133 12.852 0.645133 13.692 1.20413 14.406C2.92413 12.642 3.99913 10.374 4.38613 7.98C4.64413 7.938 4.85913 7.938 5.16013 7.854C5.03113 10.71 4.60113 13.902 2.83813 16.044C2.79513 16.128 2.70913 16.212 2.66613 16.254C1.67713 15.624 0.946133 14.742 0.473133 13.692C0.000132799 12.642 -0.128867 11.508 0.0861328 10.374C0.301133 9.24 0.860133 8.232 1.63413 7.434C2.40813 6.636 3.48313 6.048 4.60113 5.838C4.77313 2.94 4.73013 1.848 4.73013 1.848H5.20313L5.16013 5.754C5.28913 5.712 5.41813 5.67 5.54713 5.712V0H6.06313C6.10613 0 6.10613 5.712 6.14913 5.712Z" fill="white"/>
<path d="M6.14896 7.81214C6.19196 10.5421 6.40696 13.9021 7.30996 16.2121C7.39596 16.4641 7.52496 16.7161 7.69696 16.9681C7.09496 17.1361 6.49296 17.2201 5.89096 17.2621C5.28896 17.2621 4.68696 17.1781 4.08496 16.9681C4.25696 16.6741 4.38596 16.4221 4.51496 16.1281C5.33196 13.8601 5.54696 10.5001 5.58996 7.81214H6.14896ZM63.124 7.14014H63.511V15.7921H63.124V7.14014Z" fill="white"/>
</g>
<defs>
<clipPath id="clip0_19_1030">
<rect width="86" height="21" fill="white"/>
</clipPath>
</defs>
</svg>
