<svg width="86" height="22" viewBox="0 0 86 22" fill="none" xmlns="http://www.w3.org/2000/svg">
<path d="M33.97 4.2814H23.7145L24.4584 2.2002H34.701L33.97 4.2814ZM33.6045 5.3154H23.349L22.6094 7.3922H32.852L33.6045 5.3154ZM32.4951 8.4174H22.2439L21.5 10.4942H31.734L32.4951 8.4174Z" fill="#009FDF"/>
<path d="M58.3641 15.686H60.2002C60.4625 15.7198 60.7291 15.686 60.9754 15.5876C61.2214 15.4893 61.4398 15.3295 61.6106 15.1228C61.8668 14.7844 61.9937 14.362 61.9675 13.9348C61.9829 13.6628 61.9331 13.3909 61.8221 13.1432C61.7112 12.8954 61.5426 12.6793 61.3311 12.5136C60.9875 12.2846 60.579 12.1793 60.1701 12.2144H58.3426V15.6816L58.3641 15.686ZM55.9432 17.776V5.3152H63.8681L63.1672 7.4052H58.3641V10.164H60.3206C61.903 10.164 62.72 10.5512 63.2876 11.044C63.693 11.4132 64.0117 11.8711 64.2202 12.3838C64.4288 12.8965 64.5217 13.4508 64.4916 14.0052C64.5212 14.5998 64.406 15.1926 64.1557 15.7303C63.9059 16.2679 63.5292 16.7336 63.0597 17.0852C62.2943 17.6264 61.4988 17.7804 59.8777 17.7804L55.9432 17.776ZM48.9213 17.776V7.4052H45.3953V5.3152H55.1778L54.4769 7.4052H51.3594V17.7892H48.917L48.9213 17.776ZM39.1603 10.296H40.5492C40.8374 10.3206 41.1277 10.2983 41.4092 10.23C41.6974 10.1347 41.9457 9.94242 42.1136 9.68436C42.2815 9.4263 42.359 9.11773 42.3337 8.8088C42.3732 8.50186 42.3007 8.19082 42.1301 7.93509C41.9596 7.67941 41.7029 7.49703 41.4092 7.4228C41.1065 7.34946 40.7953 7.31984 40.4847 7.3348H39.1947V10.296H39.1603ZM39.1603 12.452V15.7212H40.8502C41.31 15.7726 41.7716 15.6419 42.1402 15.356C42.3133 15.1956 42.4498 14.9981 42.5397 14.7775C42.6296 14.5569 42.6709 14.3187 42.6605 14.08C42.6695 13.6972 42.5563 13.3218 42.338 13.0108C41.9811 12.5356 41.5296 12.4476 40.7771 12.4476H39.1646L39.1603 12.452ZM43.0647 11.132V11.176C43.4796 11.3483 43.8653 11.5859 44.2085 11.88C44.5568 12.1748 44.8315 12.5498 45.0108 12.9742C45.1901 13.3987 45.2688 13.8605 45.2405 14.322C45.2405 16.0292 44.359 17.2612 42.9056 17.622C42.3251 17.7688 41.7268 17.8281 41.1297 17.798H36.7437V5.3152H40.6481C41.2692 5.29135 41.8908 5.35049 42.4971 5.4912C43.9075 5.8784 44.832 6.8772 44.832 8.4524C44.844 8.82583 44.7812 9.19785 44.6483 9.54585C44.515 9.8938 44.3142 10.2104 44.058 10.4764C43.7849 10.7601 43.459 10.9846 43.0991 11.1364H43.0647V11.132Z" fill="white"/>
</svg>
