<svg width="86" height="21" viewBox="0 0 86 21" fill="none" xmlns="http://www.w3.org/2000/svg">
<path d="M75.4222 7.56015L73.8742 11.2562C73.8742 11.2982 73.8312 11.3402 73.8312 11.4242L73.7882 11.5082L73.7452 11.4242C73.7452 11.3822 73.7022 11.3402 73.7022 11.2562L72.1542 7.56015H70.0902L72.7992 13.9442L71.6812 16.3802H73.7452L77.4002 7.56015H75.4222ZM60.3292 7.93815C59.9422 7.68615 59.5122 7.51815 58.9962 7.47615C58.0932 7.39215 57.2332 7.68615 56.6742 8.31615V7.56015H54.8252V13.9442H56.6742V10.5842C56.6742 9.82816 56.8462 9.66015 56.9322 9.45015C57.1472 9.07215 57.5772 8.90415 58.0502 8.94615C58.5232 8.94615 59.0392 9.15615 59.2542 9.49215C59.4262 9.74415 59.4262 10.0382 59.4262 10.2482V13.9022H61.2752V10.0802C61.2322 9.07215 60.9312 8.40015 60.3292 7.93815ZM51.3422 7.60215C50.4392 7.30815 49.4502 7.35015 48.5472 7.77015C47.9022 8.02215 47.4292 8.48415 47.0422 9.07215C46.6982 9.57615 46.5692 10.1642 46.5692 10.8362C46.5692 11.5082 46.7412 12.0542 47.0422 12.6002C47.3862 13.1042 47.8162 13.4822 48.3322 13.7762C48.8912 14.0282 49.5362 14.1962 50.0952 14.1962C50.4392 14.1962 50.7402 14.1542 51.0842 14.1122C51.3422 14.0702 51.6432 13.9442 51.9012 13.8182C52.4602 13.5242 52.8902 13.1462 53.1912 12.6842C53.5352 12.1802 53.6642 11.5922 53.6642 10.9202C53.6212 9.32415 52.7612 8.14815 51.3422 7.60215ZM51.8152 10.7942C51.8152 11.3402 51.6002 11.8022 51.2132 12.1382C50.9552 12.3902 50.5682 12.5162 50.0092 12.5162C49.5362 12.5162 49.1492 12.3482 48.8052 12.1382C48.4182 11.8442 48.2462 11.3822 48.2032 10.7942C48.2032 10.1642 48.4182 9.61815 48.8912 9.24015C49.1492 9.03015 49.4932 8.94615 49.9232 8.94615C50.3532 8.94615 50.6972 9.03015 50.9552 9.24015C51.6002 9.61815 51.9012 10.2062 51.8152 10.7942ZM44.4622 7.93815C44.1182 7.68615 43.6452 7.51815 43.1292 7.47615H42.7852C42.0112 7.47615 41.4522 7.77015 40.8932 8.40015L40.7642 8.48416H40.5492C40.3772 8.27416 40.2052 8.06415 39.9902 7.98015C39.6462 7.68615 39.2162 7.51815 38.7002 7.47615C37.8402 7.39215 37.1522 7.64415 36.5502 8.23215V7.56015H34.7012V13.9442H36.5502V10.5422C36.5502 9.82815 36.6792 9.66015 36.7652 9.45015C36.9802 9.07215 37.4102 8.90416 37.8402 8.90416C38.2702 8.90416 38.7002 9.11415 38.9152 9.45015C39.0872 9.70215 39.0872 9.99615 39.0872 10.3322V13.8602H40.9792V10.5002C40.9792 9.87015 41.1082 9.61815 41.1942 9.40815C41.4092 9.03015 41.8392 8.90416 42.2692 8.90416C42.6992 8.90416 43.0862 9.15615 43.3012 9.45015C43.4302 9.66015 43.4732 9.91215 43.4732 10.1222V13.9022H45.3222V10.0802C45.3222 9.70215 45.2792 9.40816 45.1932 9.11416C45.1072 8.61015 44.8492 8.19015 44.4622 7.93815ZM68.1982 12.0122C67.9402 12.2642 67.2952 12.7262 66.4352 12.7682C65.7472 12.7682 65.1452 12.6002 64.7582 12.2222C64.5862 12.0122 64.4142 11.8022 64.3712 11.5502H69.4882V11.5082C69.5312 11.2562 69.5312 11.0042 69.5312 10.7942C69.5312 10.5842 69.4882 10.2902 69.3592 9.87015C69.1442 9.15615 68.7142 8.56815 68.1122 8.10615C67.4672 7.64415 66.8222 7.47615 66.6502 7.47615C65.3172 7.26615 63.8122 7.85415 63.0382 9.03015C62.4792 9.87015 62.4792 10.6682 62.5652 10.9202C62.5652 11.2142 62.6082 12.2222 63.4252 13.0202C64.3282 13.9862 65.7042 14.0282 66.1342 14.1122C67.9832 14.1542 69.1872 13.1042 69.4882 12.8102L68.1982 12.0122ZM65.0162 9.32415C65.2742 9.11416 65.6182 9.03015 66.0482 9.03015C66.4782 9.03015 66.8222 9.11416 67.0802 9.32415C67.3382 9.53416 67.5532 9.78615 67.6822 10.1642H64.4142C64.5432 9.78615 64.7582 9.53416 65.0162 9.32415Z" fill="white"/>
<path d="M22.0591 3.40186C17.9311 3.40186 14.6201 6.59386 14.6201 10.4999C14.6201 14.4059 17.9741 17.5979 22.0591 17.5979C26.1441 17.5979 29.4981 14.4059 29.4981 10.4999C29.5411 6.59386 26.1441 3.40186 22.0591 3.40186ZM22.0591 13.1039C20.5541 13.1039 19.2641 11.9279 19.2641 10.4999C19.2641 9.07186 20.5111 7.89585 22.0591 7.89585C23.6071 7.89585 24.8541 9.07186 24.8541 10.4999C24.8111 11.9279 23.6071 13.1039 22.0591 13.1039ZM14.6201 5.50186V15.8339H11.9971L8.6001 5.50186H14.6201Z" fill="#8B3FFD"/>
</svg>
